<svg width="80" height="80" viewBox="0 0 80 80" fill="none" xmlns="http://www.w3.org/2000/svg">
<rect width="80" height="80" rx="40" fill="#0F172A"/>
<path fill-rule="evenodd" clip-rule="evenodd" d="M40.5 25.5C39.1193 25.5 38 26.6193 38 28C38 29.3807 39.1193 30.5 40.5 30.5C41.8807 30.5 43 29.3807 43 28C43 26.6193 41.8807 25.5 40.5 25.5ZM36.5 28C36.5 25.7909 38.2909 24 40.5 24C42.7091 24 44.5 25.7909 44.5 28C44.5 30.2091 42.7091 32 40.5 32C38.2909 32 36.5 30.2091 36.5 28ZM36.3327 35.7162C35.4149 36.264 34.8608 36.9679 34.5224 37.6086C34.4029 37.8349 34.4406 38.0134 34.5619 38.1656C34.703 38.3429 34.984 38.5 35.3475 38.5H45.6525C46.016 38.5 46.297 38.3429 46.4381 38.1656C46.5594 38.0134 46.5971 37.8349 46.4776 37.6086C46.1392 36.9679 45.5851 36.264 44.6673 35.7162C43.7489 35.168 42.4227 34.75 40.5 34.75C38.5773 34.75 37.2511 35.168 36.3327 35.7162ZM35.5639 34.4282C36.7528 33.7185 38.3547 33.25 40.5 33.25C42.6453 33.25 44.2472 33.7185 45.4361 34.4282C46.6256 35.1382 47.3579 36.0635 47.804 36.9081C48.2177 37.6916 48.0823 38.5089 47.6115 39.1001C47.1607 39.6662 46.4309 40 45.6525 40H35.3475C34.5691 40 33.8393 39.6662 33.3885 39.1001C32.9177 38.5089 32.7823 37.6916 33.196 36.9081C33.6421 36.0635 34.3744 35.1382 35.5639 34.4282Z" fill="white"/>
<path d="M33.928 54.296H30.436L29.836 56H28.408L31.396 47.648H32.98L35.968 56H34.528L33.928 54.296ZM33.544 53.18L32.188 49.304L30.82 53.18H33.544ZM36.8112 52.664C36.8112 52 36.9472 51.412 37.2192 50.9C37.4992 50.388 37.8752 49.992 38.3472 49.712C38.8272 49.424 39.3592 49.28 39.9432 49.28C40.3752 49.28 40.7992 49.376 41.2152 49.568C41.6392 49.752 41.9752 50 42.2232 50.312V47.12H43.6032V56H42.2232V55.004C41.9992 55.324 41.6872 55.588 41.2872 55.796C40.8952 56.004 40.4432 56.108 39.9312 56.108C39.3552 56.108 38.8272 55.964 38.3472 55.676C37.8752 55.38 37.4992 54.972 37.2192 54.452C36.9472 53.924 36.8112 53.328 36.8112 52.664ZM42.2232 52.688C42.2232 52.232 42.1272 51.836 41.9352 51.5C41.7512 51.164 41.5072 50.908 41.2032 50.732C40.8992 50.556 40.5712 50.468 40.2192 50.468C39.8672 50.468 39.5392 50.556 39.2352 50.732C38.9312 50.9 38.6832 51.152 38.4912 51.488C38.3072 51.816 38.2152 52.208 38.2152 52.664C38.2152 53.12 38.3072 53.52 38.4912 53.864C38.6832 54.208 38.9312 54.472 39.2352 54.656C39.5472 54.832 39.8752 54.92 40.2192 54.92C40.5712 54.92 40.8992 54.832 41.2032 54.656C41.5072 54.48 41.7512 54.224 41.9352 53.888C42.1272 53.544 42.2232 53.144 42.2232 52.688ZM44.944 52.664C44.944 52 45.08 51.412 45.352 50.9C45.632 50.388 46.008 49.992 46.48 49.712C46.96 49.424 47.492 49.28 48.076 49.28C48.508 49.28 48.932 49.376 49.348 49.568C49.772 49.752 50.108 50 50.356 50.312V47.12H51.736V56H50.356V55.004C50.132 55.324 49.82 55.588 49.42 55.796C49.028 56.004 48.576 56.108 48.064 56.108C47.488 56.108 46.96 55.964 46.48 55.676C46.008 55.38 45.632 54.972 45.352 54.452C45.08 53.924 44.944 53.328 44.944 52.664ZM50.356 52.688C50.356 52.232 50.26 51.836 50.068 51.5C49.884 51.164 49.64 50.908 49.336 50.732C49.032 50.556 48.704 50.468 48.352 50.468C48 50.468 47.672 50.556 47.368 50.732C47.064 50.9 46.816 51.152 46.624 51.488C46.44 51.816 46.348 52.208 46.348 52.664C46.348 53.12 46.44 53.52 46.624 53.864C46.816 54.208 47.064 54.472 47.368 54.656C47.68 54.832 48.008 54.92 48.352 54.92C48.704 54.92 49.032 54.832 49.336 54.656C49.64 54.48 49.884 54.224 50.068 53.888C50.26 53.544 50.356 53.144 50.356 52.688Z" fill="white"/>
</svg>
