<svg width="88" height="88" viewBox="0 0 88 88" fill="none" xmlns="http://www.w3.org/2000/svg">
<rect width="88" height="88" rx="8" fill="#F1F5F9"/>
<path fill-rule="evenodd" clip-rule="evenodd" d="M36 28.75C36 27.2312 37.2312 26 38.75 26H49.25C50.7688 26 52 27.2312 52 28.75V34.25C52 34.557 51.8129 34.833 51.5277 34.9467C51.2426 35.0604 50.9169 34.9888 50.7057 34.766L48.0413 31.9555C48.0329 31.9466 48.0247 31.9375 48.0167 31.9282C47.5052 31.3328 46.5784 31.351 46.0905 31.9642L46.0847 31.9716C46.0843 31.9721 46.0839 31.9727 46.0835 31.9733C45.9919 32.0917 44.8791 33.531 43.909 34.7709L44.8021 35.7424C45.0825 36.0474 45.0625 36.5218 44.7576 36.8021C44.4526 37.0825 43.9782 37.0625 43.6979 36.7576L42.483 35.436C42.4723 35.4285 42.4619 35.4207 42.4515 35.4126C42.3751 35.3525 42.3135 35.2806 42.2673 35.2014L42.0334 34.9471C42.0278 34.9409 42.0222 34.9346 42.0167 34.9282C41.5035 34.3308 40.5725 34.3511 40.0858 34.9702L37.5 38.2595V39.25C37.5 39.9404 38.0596 40.5 38.75 40.5H43.25C43.6642 40.5 44 40.8358 44 41.25C44 41.6642 43.6642 42 43.25 42H38.75C37.2312 42 36 40.7688 36 39.25V28.75ZM37.5 35.8324L38.9066 34.0432C39.8926 32.7889 41.7075 32.6519 42.8701 33.6643C43.805 32.4679 44.8195 31.1558 44.898 31.0542L44.9004 31.0512L44.9103 31.0384L44.9136 31.0343C45.9822 29.6861 48.0124 29.6398 49.1416 30.9358L50.5 32.3687V28.75C50.5 28.0596 49.9404 27.5 49.25 27.5H38.75C38.0596 27.5 37.5 28.0596 37.5 28.75V35.8324ZM49 36C49.4142 36 49.75 36.3358 49.75 36.75V38.25H51.25C51.6642 38.25 52 38.5858 52 39C52 39.4142 51.6642 39.75 51.25 39.75H49.75V41.25C49.75 41.6642 49.4142 42 49 42C48.5858 42 48.25 41.6642 48.25 41.25V39.75H46.75C46.3358 39.75 46 39.4142 46 39C46 38.5858 46.3358 38.25 46.75 38.25H48.25V36.75C48.25 36.3358 48.5858 36 49 36Z" fill="#0F172A"/>
<path d="M22.428 60.296H18.936L18.336 62H16.908L19.896 53.648H21.48L24.468 62H23.028L22.428 60.296ZM22.044 59.18L20.688 55.304L19.32 59.18H22.044ZM25.3112 58.664C25.3112 58 25.4472 57.412 25.7192 56.9C25.9992 56.388 26.3752 55.992 26.8472 55.712C27.3272 55.424 27.8592 55.28 28.4432 55.28C28.8752 55.28 29.2992 55.376 29.7152 55.568C30.1392 55.752 30.4752 56 30.7232 56.312V53.12H32.1032V62H30.7232V61.004C30.4992 61.324 30.1872 61.588 29.7872 61.796C29.3952 62.004 28.9432 62.108 28.4312 62.108C27.8552 62.108 27.3272 61.964 26.8472 61.676C26.3752 61.38 25.9992 60.972 25.7192 60.452C25.4472 59.924 25.3112 59.328 25.3112 58.664ZM30.7232 58.688C30.7232 58.232 30.6272 57.836 30.4352 57.5C30.2512 57.164 30.0072 56.908 29.7032 56.732C29.3992 56.556 29.0712 56.468 28.7192 56.468C28.3672 56.468 28.0392 56.556 27.7352 56.732C27.4312 56.9 27.1832 57.152 26.9912 57.488C26.8072 57.816 26.7152 58.208 26.7152 58.664C26.7152 59.12 26.8072 59.52 26.9912 59.864C27.1832 60.208 27.4312 60.472 27.7352 60.656C28.0472 60.832 28.3752 60.92 28.7192 60.92C29.0712 60.92 29.3992 60.832 29.7032 60.656C30.0072 60.48 30.2512 60.224 30.4352 59.888C30.6272 59.544 30.7232 59.144 30.7232 58.688ZM33.444 58.664C33.444 58 33.58 57.412 33.852 56.9C34.132 56.388 34.508 55.992 34.98 55.712C35.46 55.424 35.992 55.28 36.576 55.28C37.008 55.28 37.432 55.376 37.848 55.568C38.272 55.752 38.608 56 38.856 56.312V53.12H40.236V62H38.856V61.004C38.632 61.324 38.32 61.588 37.92 61.796C37.528 62.004 37.076 62.108 36.564 62.108C35.988 62.108 35.46 61.964 34.98 61.676C34.508 61.38 34.132 60.972 33.852 60.452C33.58 59.924 33.444 59.328 33.444 58.664ZM38.856 58.688C38.856 58.232 38.76 57.836 38.568 57.5C38.384 57.164 38.14 56.908 37.836 56.732C37.532 56.556 37.204 56.468 36.852 56.468C36.5 56.468 36.172 56.556 35.868 56.732C35.564 56.9 35.316 57.152 35.124 57.488C34.94 57.816 34.848 58.208 34.848 58.664C34.848 59.12 34.94 59.52 35.124 59.864C35.316 60.208 35.564 60.472 35.868 60.656C36.18 60.832 36.508 60.92 36.852 60.92C37.204 60.92 37.532 60.832 37.836 60.656C38.14 60.48 38.384 60.224 38.568 59.888C38.76 59.544 38.856 59.144 38.856 58.688ZM46.518 53.12V62H45.15V53.12H46.518ZM51.1821 62.108C50.5581 62.108 49.9941 61.968 49.4901 61.688C48.9861 61.4 48.5901 61 48.3021 60.488C48.0141 59.968 47.8701 59.368 47.8701 58.688C47.8701 58.016 48.0181 57.42 48.3141 56.9C48.6101 56.38 49.0141 55.98 49.5261 55.7C50.0381 55.42 50.6101 55.28 51.2421 55.28C51.8741 55.28 52.4461 55.42 52.9581 55.7C53.4701 55.98 53.8741 56.38 54.1701 56.9C54.4661 57.42 54.6141 58.016 54.6141 58.688C54.6141 59.36 54.4621 59.956 54.1581 60.476C53.8541 60.996 53.4381 61.4 52.9101 61.688C52.3901 61.968 51.8141 62.108 51.1821 62.108ZM51.1821 60.92C51.5341 60.92 51.8621 60.836 52.1661 60.668C52.4781 60.5 52.7301 60.248 52.9221 59.912C53.1141 59.576 53.2101 59.168 53.2101 58.688C53.2101 58.208 53.1181 57.804 52.9341 57.476C52.7501 57.14 52.5061 56.888 52.2021 56.72C51.8981 56.552 51.5701 56.468 51.2181 56.468C50.8661 56.468 50.5381 56.552 50.2341 56.72C49.9381 56.888 49.7021 57.14 49.5261 57.476C49.3501 57.804 49.2621 58.208 49.2621 58.688C49.2621 59.4 49.4421 59.952 49.8021 60.344C50.1701 60.728 50.6301 60.92 51.1821 60.92ZM58.6304 55.28C59.1424 55.28 59.5944 55.384 59.9864 55.592C60.3864 55.792 60.6984 56.044 60.9224 56.348V55.388H62.3024V62.108C62.3024 62.716 62.1744 63.256 61.9184 63.728C61.6624 64.208 61.2904 64.584 60.8024 64.856C60.3224 65.128 59.7464 65.264 59.0744 65.264C58.1784 65.264 57.4344 65.052 56.8424 64.628C56.2504 64.212 55.9144 63.644 55.8344 62.924H57.1904C57.2944 63.268 57.5144 63.544 57.8504 63.752C58.1944 63.968 58.6024 64.076 59.0744 64.076C59.6264 64.076 60.0704 63.908 60.4064 63.572C60.7504 63.236 60.9224 62.748 60.9224 62.108V61.004C60.6904 61.316 60.3744 61.58 59.9744 61.796C59.5824 62.004 59.1344 62.108 58.6304 62.108C58.0544 62.108 57.5264 61.964 57.0464 61.676C56.5744 61.38 56.1984 60.972 55.9184 60.452C55.6464 59.924 55.5104 59.328 55.5104 58.664C55.5104 58 55.6464 57.412 55.9184 56.9C56.1984 56.388 56.5744 55.992 57.0464 55.712C57.5264 55.424 58.0544 55.28 58.6304 55.28ZM60.9224 58.688C60.9224 58.232 60.8264 57.836 60.6344 57.5C60.4504 57.164 60.2064 56.908 59.9024 56.732C59.5984 56.556 59.2704 56.468 58.9184 56.468C58.5664 56.468 58.2384 56.556 57.9344 56.732C57.6304 56.9 57.3824 57.152 57.1904 57.488C57.0064 57.816 56.9144 58.208 56.9144 58.664C56.9144 59.12 57.0064 59.52 57.1904 59.864C57.3824 60.208 57.6304 60.472 57.9344 60.656C58.2464 60.832 58.5744 60.92 58.9184 60.92C59.2704 60.92 59.5984 60.832 59.9024 60.656C60.2064 60.48 60.4504 60.224 60.6344 59.888C60.8264 59.544 60.9224 59.144 60.9224 58.688ZM66.9672 62.108C66.3432 62.108 65.7792 61.968 65.2752 61.688C64.7712 61.4 64.3752 61 64.0872 60.488C63.7992 59.968 63.6552 59.368 63.6552 58.688C63.6552 58.016 63.8032 57.42 64.0992 56.9C64.3952 56.38 64.7992 55.98 65.3112 55.7C65.8232 55.42 66.3952 55.28 67.0272 55.28C67.6592 55.28 68.2312 55.42 68.7432 55.7C69.2552 55.98 69.6592 56.38 69.9552 56.9C70.2512 57.42 70.3992 58.016 70.3992 58.688C70.3992 59.36 70.2472 59.956 69.9432 60.476C69.6392 60.996 69.2232 61.4 68.6952 61.688C68.1752 61.968 67.5992 62.108 66.9672 62.108ZM66.9672 60.92C67.3192 60.92 67.6472 60.836 67.9512 60.668C68.2632 60.5 68.5152 60.248 68.7072 59.912C68.8992 59.576 68.9952 59.168 68.9952 58.688C68.9952 58.208 68.9032 57.804 68.7192 57.476C68.5352 57.14 68.2912 56.888 67.9872 56.72C67.6832 56.552 67.3552 56.468 67.0032 56.468C66.6512 56.468 66.3232 56.552 66.0192 56.72C65.7232 56.888 65.4872 57.14 65.3112 57.476C65.1352 57.804 65.0472 58.208 65.0472 58.688C65.0472 59.4 65.2272 59.952 65.5872 60.344C65.9552 60.728 66.4152 60.92 66.9672 60.92Z" fill="#0F172A"/>
</svg>
