<svg width="63" height="56" viewBox="0 0 63 56" fill="none" xmlns="http://www.w3.org/2000/svg">
<circle cx="20.0999" cy="19.2" r="19.2" fill="#FFB13C"/>
<path fill-rule="evenodd" clip-rule="evenodd" d="M36.5 30.4C37.6782 30.4 38.6334 31.3552 38.6334 32.5334V36.8C38.6334 37.9782 37.6782 38.9334 36.5 38.9334C35.3218 38.9334 34.3667 37.9782 34.3667 36.8V32.5334C34.3667 31.3552 35.3218 30.4 36.5 30.4Z" fill="#0F172A"/>
<path fill-rule="evenodd" clip-rule="evenodd" d="M34.3667 24C34.3667 22.8218 35.3218 21.8667 36.5 21.8667C37.6782 21.8667 38.6334 22.8218 38.6334 24C38.6334 25.1782 37.6782 26.1334 36.5 26.1334C35.3218 26.1334 34.3667 25.1782 34.3667 24Z" fill="#0F172A"/>
<path fill-rule="evenodd" clip-rule="evenodd" d="M36.5 16.5334C28.8417 16.5334 22.6333 22.7417 22.6333 30.4C22.6333 38.0584 28.8417 44.2667 36.5 44.2667C44.1584 44.2667 50.3667 38.0584 50.3667 30.4C50.3667 22.7417 44.1584 16.5334 36.5 16.5334ZM19.4333 30.4C19.4333 20.9744 27.0744 13.3334 36.5 13.3334C45.9257 13.3334 53.5667 20.9744 53.5667 30.4C53.5667 39.8257 45.9257 47.4667 36.5 47.4667C27.0744 47.4667 19.4333 39.8257 19.4333 30.4Z" fill="#0F172A"/>
</svg>
