<svg width="63" height="56" viewBox="0 0 63 56" fill="none" xmlns="http://www.w3.org/2000/svg">
<circle cx="20.0999" cy="19.2" r="19.2" fill="#FFB13C"/>
<path fill-rule="evenodd" clip-rule="evenodd" d="M33.8334 16.533C32.3606 16.533 31.1667 17.7269 31.1667 19.1997V19.733H39.7V19.1997C39.7 17.7269 38.5061 16.533 37.0333 16.533H33.8334ZM42.9 19.733V19.1997C42.9 15.9596 40.2734 13.333 37.0333 13.333H33.8334C30.5933 13.333 27.9667 15.9596 27.9667 19.1997V19.733H21.0333C20.1497 19.733 19.4333 20.4494 19.4333 21.333C19.4333 22.2167 20.1497 22.933 21.0333 22.933H21.6998L23.3672 42.1079C23.6308 45.1395 26.1687 47.4663 29.2118 47.4663H41.6549C44.698 47.4663 47.2359 45.1395 47.4995 42.1079L49.1669 22.933H49.8334C50.717 22.933 51.4333 22.2167 51.4333 21.333C51.4333 20.4494 50.717 19.733 49.8334 19.733H42.9ZM24.9119 22.933L26.5551 41.8307C26.675 43.2087 27.8285 44.2663 29.2118 44.2663H41.6549C43.0382 44.2663 44.1917 43.2087 44.3116 41.8307L45.9548 22.933H24.9119ZM31.7 26.133C32.5837 26.133 33.3 26.8494 33.3 27.733V39.4663C33.3 40.35 32.5837 41.0663 31.7 41.0663C30.8164 41.0663 30.1 40.35 30.1 39.4663V27.733C30.1 26.8494 30.8164 26.133 31.7 26.133ZM39.1667 26.133C40.0503 26.133 40.7667 26.8494 40.7667 27.733V39.4663C40.7667 40.35 40.0503 41.0663 39.1667 41.0663C38.283 41.0663 37.5667 40.35 37.5667 39.4663V27.733C37.5667 26.8494 38.283 26.133 39.1667 26.133Z" fill="#0F172A"/>
</svg>
