<svg width="77" height="70" viewBox="0 0 77 70" fill="none" xmlns="http://www.w3.org/2000/svg">
<circle cx="24" cy="24" r="24" fill="#FFB13C"/>
<path fill-rule="evenodd" clip-rule="evenodd" d="M23.166 37.9998C23.166 26.2178 32.7173 16.6665 44.4993 16.6665C56.2814 16.6665 65.8327 26.2178 65.8327 37.9998C65.8327 49.7819 56.2814 59.3332 44.4993 59.3332C32.7173 59.3332 23.166 49.7819 23.166 37.9998ZM44.4993 20.6665C34.9264 20.6665 27.166 28.4269 27.166 37.9998C27.166 47.5728 34.9264 55.3332 44.4993 55.3332C54.0723 55.3332 61.8327 47.5728 61.8327 37.9998C61.8327 28.4269 54.0723 20.6665 44.4993 20.6665ZM37.0851 30.5856C37.8662 29.8046 39.1325 29.8046 39.9136 30.5856L44.4993 35.1714L49.0851 30.5856C49.8662 29.8046 51.1325 29.8046 51.9136 30.5856C52.6946 31.3667 52.6946 32.633 51.9136 33.4141L47.3278 37.9998L51.9136 42.5856C52.6946 43.3667 52.6946 44.633 51.9136 45.4141C51.1325 46.1951 49.8662 46.1951 49.0851 45.4141L44.4993 40.8283L39.9136 45.4141C39.1325 46.1951 37.8662 46.1951 37.0851 45.4141C36.3041 44.633 36.3041 43.3667 37.0851 42.5856L41.6709 37.9998L37.0851 33.4141C36.3041 32.633 36.3041 31.3667 37.0851 30.5856Z" fill="#0F172A"/>
</svg>
