<svg width="63" height="56" viewBox="0 0 63 56" fill="none" xmlns="http://www.w3.org/2000/svg">
<circle cx="20.1" cy="19.2" r="19.2" fill="#FFB13C"/>
<path fill-rule="evenodd" clip-rule="evenodd" d="M47.2072 14.5778C47.4038 13.7163 48.2616 13.1773 49.1231 13.374L48.767 14.9338C49.1231 13.374 49.1228 13.3739 49.1231 13.374L49.1258 13.3746L49.129 13.3753L49.137 13.3772L49.1591 13.3825L49.2263 13.3993C49.2808 13.4133 49.3547 13.4331 49.4437 13.4592C49.6205 13.5108 49.8637 13.5888 50.1375 13.6964C50.6469 13.8967 51.4237 14.2608 52.0319 14.869C52.6401 15.4773 53.0043 16.254 53.2045 16.7634C53.3121 17.0372 53.3901 17.2804 53.4417 17.4572C53.4678 17.5462 53.4876 17.6201 53.5016 17.6746L53.5184 17.7419L53.5237 17.7639L53.5256 17.7719L53.5263 17.7751C53.5264 17.7754 53.5269 17.7778 51.967 18.1338L53.5269 17.7778C53.7235 18.6393 53.1846 19.4971 52.3231 19.6937C51.4634 19.8899 50.6074 19.3537 50.4084 18.4954L50.4024 18.4713C50.3962 18.4473 50.3856 18.4073 50.3703 18.355C50.3393 18.2491 50.2914 18.0997 50.2263 17.9341C50.081 17.5645 49.9119 17.2745 49.7692 17.1318C49.6264 16.989 49.3364 16.8199 48.9668 16.6746C48.8011 16.6095 48.6518 16.5616 48.5458 16.5306C48.4935 16.5153 48.4535 16.5047 48.4295 16.4985L48.407 16.4928L48.4098 16.4935C47.5486 16.2965 47.0105 15.4391 47.2072 14.5778ZM24.5906 16.4935C25.4516 16.2965 25.9902 15.439 25.7936 14.5778C25.5969 13.7163 24.7391 13.1773 23.8776 13.374L24.2178 14.8642C23.8776 13.374 23.8779 13.3739 23.8776 13.374L23.8749 13.3746L23.8717 13.3753L23.8637 13.3772L23.8416 13.3825L23.7744 13.3993C23.7199 13.4133 23.646 13.4331 23.557 13.4592C23.3802 13.5109 23.137 13.5888 22.8632 13.6964C22.3538 13.8967 21.577 14.2608 20.9688 14.869C20.3606 15.4773 19.9965 16.254 19.7962 16.7634C19.6886 17.0372 19.6107 17.2804 19.559 17.4572C19.533 17.5462 19.5131 17.6201 19.4991 17.6746L19.4823 17.7419L19.477 17.7639L19.4752 17.7719L19.4744 17.7751C19.4744 17.7754 19.4738 17.7778 21.0337 18.1338L19.4738 17.7778C19.2772 18.6393 19.8162 19.4971 20.6777 19.6937C21.539 19.8903 22.3966 19.3516 22.5935 18.4905L22.5927 18.4938C22.5923 18.4954 22.5925 18.4945 22.5927 18.4938L22.5983 18.4713C22.6045 18.4473 22.6152 18.4073 22.6305 18.355C22.6614 18.2491 22.7093 18.0997 22.7744 17.9341C22.9197 17.5645 23.0888 17.2745 23.2316 17.1318C23.3743 16.989 23.6643 16.8199 24.0339 16.6746C24.1996 16.6095 24.349 16.5616 24.4549 16.5306C24.5072 16.5153 24.5472 16.5047 24.5712 16.4985L24.5943 16.4927C24.5951 16.4925 24.596 16.4923 24.5943 16.4927L24.5906 16.4935ZM23.7004 26.1338C23.7004 19.0646 29.4311 13.3338 36.5004 13.3338C43.5696 13.3338 49.3004 19.0646 49.3004 26.1338V30.0429L53.4147 38.7859C53.648 39.2815 53.6115 39.862 53.318 40.3245C53.0245 40.787 52.5148 41.0672 51.967 41.0672H44.3982C44.3909 41.1116 44.383 41.157 44.3746 41.2034C44.2537 41.8683 44.0091 42.7757 43.505 43.7C42.996 44.6331 42.2155 45.5942 41.0347 46.3158C39.8503 47.0396 38.3533 47.4672 36.5004 47.4672C34.6474 47.4672 33.1504 47.0396 31.966 46.3158C30.7853 45.5942 30.0047 44.6331 29.4957 43.7C28.9916 42.7757 28.7471 41.8683 28.6262 41.2034C28.6177 41.157 28.6099 41.1116 28.6025 41.0672H21.0337C20.4859 41.0672 19.9763 40.787 19.6828 40.3245C19.3893 39.862 19.3528 39.2815 19.586 38.7859L23.7004 30.0429V26.1338ZM31.8721 41.0672C31.9636 41.4112 32.1009 41.7934 32.305 42.1677C32.596 42.7013 33.0155 43.2068 33.6347 43.5853C34.2503 43.9615 35.1533 44.2672 36.5004 44.2672C37.8474 44.2672 38.7504 43.9615 39.366 43.5853C39.9853 43.2068 40.4047 42.7013 40.6957 42.1677C40.8999 41.7934 41.0372 41.4112 41.1287 41.0672H31.8721ZM36.5004 16.5338C31.1984 16.5338 26.9004 20.8319 26.9004 26.1338V30.4005C26.9004 30.636 26.8484 30.8687 26.7481 31.0818L23.555 37.8672H49.4458L46.2527 31.0818C46.1524 30.8687 46.1004 30.636 46.1004 30.4005V26.1338C46.1004 20.8319 41.8023 16.5338 36.5004 16.5338Z" fill="#0F172A"/>
</svg>
