<svg width="24" height="24" viewBox="0 0 24 24" fill="none" xmlns="http://www.w3.org/2000/svg">
<path fill-rule="evenodd" clip-rule="evenodd" d="M17.4623 12.6254C17.4372 10.0934 19.5274 8.87831 19.6208 8.81815C18.446 7.09962 16.6156 6.8634 15.9634 6.83684C14.4058 6.67959 12.9246 7.7544 12.1333 7.7544C11.3441 7.7544 10.1246 6.86043 8.83313 6.88409C7.13563 6.90918 5.57063 7.8714 4.69553 9.39174C2.93194 12.4516 4.24444 16.9867 5.96338 19.4678C6.80307 20.6828 7.80444 22.0478 9.11953 21.999C10.3855 21.9492 10.8646 21.1789 12.396 21.1789C13.9271 21.1789 14.3571 21.9991 15.6973 21.9728C17.06 21.9477 17.9233 20.7341 18.7574 19.515C19.7227 18.105 20.1183 16.7416 20.1423 16.6715C20.112 16.6578 17.4852 15.6516 17.4586 12.6265L17.4623 12.6254H17.4623ZM14.9451 5.19284C15.6427 4.34649 16.114 3.17165 15.9852 1.99902C14.9801 2.03999 13.7613 2.66893 13.0398 3.51418C12.392 4.26455 11.8262 5.46043 11.9775 6.60906C13.0999 6.69656 14.246 6.03881 14.9439 5.19431L14.9451 5.19284Z" fill="black"/>
</svg>
