<svg width="32" height="32" viewBox="0 0 32 32" fill="none" xmlns="http://www.w3.org/2000/svg">
<path fill-rule="evenodd" clip-rule="evenodd" d="M14.3897 8.30953C14.771 8.70902 14.7563 9.34202 14.3568 9.72336L8.8289 15H25.6663C26.2186 15 26.6663 15.4477 26.6663 16C26.6663 16.5523 26.2186 17 25.6663 17H8.8289L14.3568 22.2766C14.7563 22.658 14.771 23.291 14.3897 23.6905C14.0084 24.09 13.3754 24.1047 12.9759 23.7234L5.64253 16.7234C5.44485 16.5347 5.33301 16.2733 5.33301 16C5.33301 15.7267 5.44485 15.4653 5.64253 15.2766L12.9759 8.27665C13.3754 7.89531 14.0084 7.91003 14.3897 8.30953Z" fill="#111827"/>
</svg>
