<svg width="65" height="64" viewBox="0 0 65 64" fill="none" xmlns="http://www.w3.org/2000/svg">
<path fill-rule="evenodd" clip-rule="evenodd" d="M45.8835 12.2216C46.1293 11.1447 47.2015 10.471 48.2784 10.7169L47.8333 12.6667C48.2784 10.7169 48.278 10.7168 48.2784 10.7169L48.2818 10.7176L48.2858 10.7186L48.2958 10.7209L48.3234 10.7275L48.4074 10.7485C48.4756 10.766 48.5679 10.7908 48.6792 10.8234C48.9001 10.888 49.2042 10.9854 49.5464 11.1199C50.1832 11.3702 51.1541 11.8254 51.9144 12.5857C52.6747 13.346 53.1298 14.3169 53.3801 14.9537C53.5147 15.2959 53.6121 15.5999 53.6767 15.8209C53.7092 15.9322 53.734 16.0245 53.7515 16.0927L53.7725 16.1767L53.7791 16.2043L53.7815 16.2143L53.7824 16.2183C53.7825 16.2187 53.7832 16.2217 51.8333 16.6667L53.7832 16.2217C54.0289 17.2985 53.3552 18.3708 52.2783 18.6166C51.2037 18.8618 50.1338 18.1915 49.885 17.1186L49.8775 17.0885C49.8698 17.0585 49.8565 17.0085 49.8373 16.9432C49.7986 16.8107 49.7388 16.6241 49.6574 16.417C49.4758 15.955 49.2644 15.5926 49.086 15.4141C48.9075 15.2357 48.5451 15.0243 48.083 14.8426C47.8759 14.7612 47.6892 14.7014 47.5568 14.6627C47.4914 14.6435 47.4414 14.6302 47.4114 14.6225L47.3833 14.6154L47.3867 14.6162C46.3103 14.3701 45.6377 13.2982 45.8835 12.2216ZM17.6127 14.6163C18.689 14.3701 19.3622 13.2981 19.1165 12.2216C18.8707 11.1447 17.7984 10.471 16.7215 10.7169L17.1468 12.5796C16.7215 10.7169 16.7219 10.7168 16.7215 10.7169L16.7182 10.7176L16.7141 10.7186L16.7041 10.7209L16.6766 10.7275L16.5925 10.7485C16.5244 10.766 16.432 10.7908 16.3207 10.8234C16.0998 10.888 15.7958 10.9854 15.4535 11.1199C14.8168 11.3703 13.8458 11.8254 13.0855 12.5857C12.3253 13.346 11.8701 14.3169 11.6198 14.9537C11.4853 15.2959 11.3878 15.5999 11.3233 15.8209C11.2907 15.9322 11.2659 16.0245 11.2484 16.0927L11.2274 16.1767L11.2208 16.2043L11.2185 16.2143L11.2175 16.2183C11.2175 16.2187 11.2168 16.2217 13.1666 16.6667L11.2168 16.2217C10.971 17.2985 11.6447 18.3708 12.7216 18.6166C13.7982 18.8623 14.8702 18.1889 15.1163 17.1125L15.1154 17.1166C15.1149 17.1186 15.1152 17.1175 15.1154 17.1166L15.1224 17.0885C15.1302 17.0585 15.1435 17.0085 15.1626 16.9432C15.2013 16.8107 15.2611 16.6241 15.3425 16.417C15.5241 15.955 15.7355 15.5926 15.914 15.4141C16.0924 15.2357 16.4549 15.0243 16.9169 14.8426C17.124 14.7612 17.3107 14.7014 17.4431 14.6627C17.5085 14.6435 17.5585 14.6302 17.5886 14.6225L17.6174 14.6152C17.6183 14.615 17.6195 14.6148 17.6174 14.6152L17.6127 14.6163ZM16.5 26.6667C16.5 17.8301 23.6634 10.6667 32.5 10.6667C41.3365 10.6667 48.5 17.8301 48.5 26.6667V31.553L53.6429 42.4818C53.9345 43.1013 53.8888 43.8269 53.522 44.405C53.1551 44.9831 52.518 45.3334 51.8333 45.3334H42.3723C42.3631 45.3888 42.3533 45.4456 42.3427 45.5036C42.1916 46.3347 41.8859 47.4691 41.2558 48.6244C40.6196 49.7908 39.6438 50.9921 38.1679 51.8941C36.6874 52.7988 34.8162 53.3334 32.5 53.3334C30.1838 53.3334 28.3125 52.7988 26.8321 51.8941C25.3561 50.9921 24.3804 49.7908 23.7442 48.6244C23.114 47.4691 22.8083 46.3347 22.6572 45.5036C22.6467 45.4456 22.6368 45.3888 22.6277 45.3334H13.1666C12.4819 45.3334 11.8448 44.9831 11.478 44.405C11.1111 43.8269 11.0655 43.1013 11.357 42.4818L16.5 31.553V26.6667ZM26.7146 45.3334C26.8289 45.7633 27.0006 46.2412 27.2558 46.709C27.6196 47.376 28.1438 48.0079 28.9179 48.481C29.6874 48.9512 30.8162 49.3334 32.5 49.3334C34.1838 49.3334 35.3125 48.9512 36.0821 48.481C36.8561 48.0079 37.3804 47.376 37.7442 46.709C37.9994 46.2412 38.171 45.7633 38.2854 45.3334H26.7146ZM32.5 14.6667C25.8726 14.6667 20.5 20.0393 20.5 26.6667V32C20.5 32.2944 20.435 32.5852 20.3096 32.8516L16.3182 41.3334H48.6817L44.6903 32.8516C44.565 32.5852 44.5 32.2944 44.5 32V26.6667C44.5 20.0393 39.1274 14.6667 32.5 14.6667Z" fill="#232838"/>
</svg>
