<svg width="24" height="24" viewBox="0 0 24 24" fill="none" xmlns="http://www.w3.org/2000/svg">
<path fill-rule="evenodd" clip-rule="evenodd" d="M6 10C6 6.68629 8.68629 4 12 4C15.3137 4 18 6.68629 18 10V11.8323L19.9286 15.9307C20.0379 16.163 20.0208 16.4351 19.8833 16.6519C19.7457 16.8687 19.5068 17 19.25 17H15.7021C15.6987 17.0208 15.695 17.0421 15.691 17.0639C15.6344 17.3755 15.5197 17.8009 15.2834 18.2341C15.0448 18.6715 14.679 19.122 14.1255 19.4603C13.5703 19.7995 12.8686 20 12 20C11.1314 20 10.4297 19.7995 9.87454 19.4603C9.32105 19.122 8.95516 18.6715 8.71658 18.2341C8.48026 17.8009 8.36564 17.3755 8.30897 17.0639C8.30502 17.0421 8.30133 17.0208 8.29789 17H4.75C4.49324 17 4.25433 16.8687 4.11675 16.6519C3.97918 16.4351 3.96206 16.163 4.07139 15.9307L6 11.8323V10ZM9.83048 17C9.87337 17.1612 9.93773 17.3404 10.0334 17.5159C10.1698 17.766 10.3665 18.003 10.6567 18.1804C10.9453 18.3567 11.3686 18.5 12 18.5C12.6314 18.5 13.0547 18.3567 13.3433 18.1804C13.6336 18.003 13.8302 17.766 13.9666 17.5159C14.0623 17.3404 14.1266 17.1612 14.1695 17H9.83048ZM12 5.5C9.51472 5.5 7.5 7.51472 7.5 10V12C7.5 12.1104 7.47563 12.2195 7.42862 12.3193L5.93184 15.5H18.0682L16.5714 12.3193C16.5244 12.2195 16.5 12.1104 16.5 12V10C16.5 7.51472 14.4853 5.5 12 5.5Z" fill="#0F172A"/>
</svg>
