<svg width="32" height="32" viewBox="0 0 32 32" fill="none" xmlns="http://www.w3.org/2000/svg">
<path fill-rule="evenodd" clip-rule="evenodd" d="M14.3335 7.33331C13.413 7.33331 12.6668 8.0795 12.6668 8.99998V9.33331H18.0002V8.99998C18.0002 8.0795 17.254 7.33331 16.3335 7.33331H14.3335ZM20.0002 9.33331V8.99998C20.0002 6.97494 18.3585 5.33331 16.3335 5.33331H14.3335C12.3085 5.33331 10.6668 6.97494 10.6668 8.99998V9.33331H6.3335C5.78121 9.33331 5.3335 9.78103 5.3335 10.3333C5.3335 10.8856 5.78121 11.3333 6.3335 11.3333H6.75001L7.79213 23.3176C7.95689 25.2124 9.54308 26.6666 11.445 26.6666H19.222C21.1239 26.6666 22.7101 25.2124 22.8749 23.3176L23.917 11.3333H24.3335C24.8858 11.3333 25.3335 10.8856 25.3335 10.3333C25.3335 9.78103 24.8858 9.33331 24.3335 9.33331H20.0002ZM8.75756 11.3333L9.78461 23.1444C9.8595 24.0056 10.5805 24.6666 11.445 24.6666H19.222C20.0865 24.6666 20.8075 24.0056 20.8824 23.1444L21.9094 11.3333H8.75756ZM13.0002 13.3333C13.5524 13.3333 14.0002 13.781 14.0002 14.3333V21.6666C14.0002 22.2189 13.5524 22.6666 13.0002 22.6666C12.4479 22.6666 12.0002 22.2189 12.0002 21.6666V14.3333C12.0002 13.781 12.4479 13.3333 13.0002 13.3333ZM17.6668 13.3333C18.2191 13.3333 18.6668 13.781 18.6668 14.3333V21.6666C18.6668 22.2189 18.2191 22.6666 17.6668 22.6666C17.1145 22.6666 16.6668 22.2189 16.6668 21.6666V14.3333C16.6668 13.781 17.1145 13.3333 17.6668 13.3333Z" fill="#0F172A"/>
</svg>
