<svg width="25" height="25" viewBox="0 0 25 25" fill="none" xmlns="http://www.w3.org/2000/svg">
<path fill-rule="evenodd" clip-rule="evenodd" d="M4.5332 6.59805C4.5332 6.18038 4.87179 5.8418 5.28945 5.8418H14.8686C15.2863 5.8418 15.6249 6.18038 15.6249 6.59805C15.6249 7.01571 15.2863 7.3543 14.8686 7.3543H5.28945C4.87179 7.3543 4.5332 7.01571 4.5332 6.59805ZM4.5332 12.9001C4.5332 12.4825 4.87179 12.1439 5.28945 12.1439H19.9103C20.328 12.1439 20.6665 12.4825 20.6665 12.9001C20.6665 13.3178 20.328 13.6564 19.9103 13.6564H5.28945C4.87179 13.6564 4.5332 13.3178 4.5332 12.9001ZM4.5332 19.2022C4.5332 18.7845 4.87179 18.446 5.28945 18.446H14.8686C15.2863 18.446 15.6249 18.7845 15.6249 19.2022C15.6249 19.6199 15.2863 19.9585 14.8686 19.9585H5.28945C4.87179 19.9585 4.5332 19.6199 4.5332 19.2022Z" fill="white"/>
</svg>
