<svg width="21" height="21" viewBox="0 0 21 21" fill="none" xmlns="http://www.w3.org/2000/svg">
<path fill-rule="evenodd" clip-rule="evenodd" d="M5.56055 6.27427C5.56055 5.00862 6.58656 3.9826 7.85221 3.9826H13.2689C14.5345 3.9826 15.5605 5.00862 15.5605 6.27427V16.6909C15.5605 16.935 15.4185 17.1568 15.1967 17.2588C14.975 17.3607 14.7141 17.3243 14.5288 17.1655L10.5605 13.7641L6.59229 17.1655C6.40697 17.3243 6.14614 17.3607 5.92439 17.2588C5.70264 17.1568 5.56055 16.935 5.56055 16.6909V6.27427ZM7.85221 5.2326C7.27692 5.2326 6.81055 5.69898 6.81055 6.27427V15.3321L10.1538 12.4664C10.3879 12.2658 10.7332 12.2658 10.9673 12.4664L14.3105 15.3321V6.27427C14.3105 5.69897 13.8442 5.2326 13.2689 5.2326H7.85221Z" fill="#0F172A"/>
</svg>
