<svg width="57" height="56" viewBox="0 0 57 56" fill="none" xmlns="http://www.w3.org/2000/svg">
<path fill-rule="evenodd" clip-rule="evenodd" d="M4.80021 54H51.1971H51.2012C51.7547 53.9991 52.2955 53.8322 52.7554 53.5202C53.2153 53.2082 53.5738 52.7652 53.7854 52.2471C53.9971 51.729 54.0526 51.159 53.9449 50.6089C53.8371 50.0589 53.571 49.5535 53.1801 49.1566C52.921 48.892 52.6127 48.6821 52.273 48.5391C51.9333 48.396 51.569 48.3225 51.2012 48.323H48.8522V21.7842C49.5822 21.38 50.1916 20.7845 50.6168 20.0601C51.042 19.3357 51.2673 18.5089 51.2693 17.6661V12.5288C51.2701 12.3354 51.2095 12.147 51.0965 11.9911L45.0158 2.41475C44.9115 2.24906 44.756 2.12302 44.5735 2.05628V2.00001H11.5081C11.3524 1.99921 11.1994 2.04002 11.0643 2.11833C10.9292 2.19664 10.8169 2.30967 10.7387 2.44601L4.67858 11.9932C4.56383 12.1474 4.50238 12.3357 4.50373 12.5288V17.6661C4.50296 18.282 4.62273 18.8921 4.85613 19.4608C5.08952 20.0296 5.4319 20.5459 5.86346 20.9798C6.23712 21.3593 6.6719 21.6715 7.14913 21.903V48.323H4.80021C4.05715 48.323 3.34451 48.622 2.81908 49.1543C2.29366 49.6867 1.99847 50.4087 1.99847 51.1615C1.99847 51.9143 2.29366 52.6363 2.81908 53.1686C3.34451 53.7009 4.05715 54 4.80021 54ZM4.16841 50.4786C4.33071 50.2891 4.55504 50.1652 4.80021 50.1299H51.1971C51.4422 50.1652 51.6666 50.2891 51.8289 50.4786C51.9911 50.6681 52.0805 50.9106 52.0805 51.1615C52.0805 51.4124 51.9911 51.6549 51.8289 51.8444C51.6666 52.0339 51.4422 52.1577 51.1971 52.1931H4.80021C4.55504 52.1577 4.33071 52.0339 4.16841 51.8444C4.00612 51.6549 3.91677 51.4124 3.91677 51.1615C3.91677 50.9106 4.00612 50.6681 4.16841 50.4786ZM47.0646 48.323H43.689V25.7586C43.6884 25.5185 43.5939 25.2884 43.4262 25.1189C43.2584 24.9493 43.0311 24.8541 42.7942 24.8541H28.0099C27.7733 24.8546 27.5466 24.9501 27.3793 25.1196C27.212 25.2891 27.1177 25.5189 27.1172 25.7586V48.323H8.93056V22.3532C9.57143 22.381 10.211 22.2732 10.8085 22.0368C11.406 21.8003 11.9483 21.4403 12.4009 20.9798C12.5701 20.8079 12.7262 20.6233 12.8678 20.4275C13.0088 20.6238 13.1649 20.8085 13.3348 20.9798C13.7633 21.4163 14.2728 21.7626 14.834 21.999C15.3951 22.2353 15.9968 22.357 16.6045 22.357C17.2122 22.357 17.8139 22.2353 18.375 21.999C18.9361 21.7626 19.4456 21.4163 19.8742 20.9798C20.0434 20.8079 20.1995 20.6233 20.3412 20.4275C20.4828 20.6233 20.6389 20.8079 20.8081 20.9798C21.2367 21.4163 21.7462 21.7626 22.3073 21.999C22.8684 22.2353 23.4702 22.357 24.0778 22.357C24.6855 22.357 25.2872 22.2353 25.8484 21.999C26.4095 21.7626 26.919 21.4163 27.3476 20.9798C27.5174 20.8085 27.6735 20.6238 27.8145 20.4275C27.9561 20.6233 28.1122 20.8079 28.2815 20.9798C28.7101 21.4163 29.2195 21.7626 29.7807 21.999C30.3418 22.2353 30.9435 22.357 31.5512 22.357C32.1589 22.357 32.7606 22.2353 33.3217 21.999C33.8829 21.7626 34.3924 21.4163 34.8209 20.9798C35.0015 20.7969 35.1672 20.5997 35.3167 20.39C35.9132 21.0631 37.3264 22.3365 39.0194 22.3573H39.1634C39.7714 22.3581 40.3735 22.2368 40.9349 22.0003C41.4963 21.7639 42.0059 21.417 42.4342 20.9798C42.6034 20.8079 42.7595 20.6233 42.9011 20.4275C43.0414 20.6237 43.1969 20.8084 43.366 20.9798C43.7944 21.4168 44.304 21.7636 44.8654 22C45.4268 22.2364 46.0288 22.3579 46.6368 22.3573C46.7797 22.3577 46.9225 22.3507 47.0646 22.3365V48.323ZM41.8993 48.323H28.9027V26.6631H41.8993V48.323ZM43.7918 17.7307V13.4312H49.4776V17.664C49.4778 18.0426 49.404 18.4175 49.2603 18.767C49.1166 19.1165 48.9059 19.4337 48.6404 19.7001C48.5482 19.7936 48.4499 19.8806 48.3462 19.9606C48.0347 20.2021 47.6766 20.3747 47.295 20.4671C47.0776 20.5213 46.8545 20.5486 46.6306 20.5484C45.889 20.5438 45.1782 20.2472 44.6485 19.7214C44.1188 19.1956 43.8116 18.4817 43.7918 17.7307ZM36.3185 17.7265V13.4291L42.0084 13.4312V17.7265C42.0084 18.4909 41.7086 19.2241 41.1751 19.7646C40.6416 20.3051 39.9179 20.6088 39.1634 20.6088C38.4089 20.6088 37.6853 20.3051 37.1517 19.7646C36.6182 19.2241 36.3185 18.4909 36.3185 17.7265ZM28.7073 17.7286V13.4291L34.3972 13.4312V17.7286C34.3811 18.4709 34.0809 19.1779 33.5599 19.7001C33.167 20.1011 32.6662 20.3759 32.12 20.4902C31.5739 20.6045 31.0066 20.5534 30.4889 20.3431C29.9713 20.1328 29.5263 19.7727 29.2095 19.3077C28.8926 18.8427 28.7179 18.2935 28.7073 17.7286ZM21.2339 17.7286V13.4291L26.9259 13.4312V17.7286C26.9059 18.4799 26.5973 19.1936 26.0658 19.7179C25.5342 20.2421 24.8217 20.5354 24.0799 20.5354C23.3381 20.5354 22.6256 20.2421 22.094 19.7179C21.5625 19.1936 21.2539 18.4799 21.2339 17.7286ZM13.7523 17.7286V13.4291L19.4443 13.4312V17.7286C19.4243 18.4799 19.1158 19.1936 18.5842 19.7179C18.0527 20.2421 17.3401 20.5354 16.5983 20.5354C15.8565 20.5354 15.144 20.2421 14.6124 19.7179C14.0809 19.1936 13.7723 18.4799 13.7523 17.7286ZM6.28722 17.664V13.4291L11.9771 13.4312V17.739C11.9578 18.4915 11.65 19.2068 11.1189 19.7333C10.5878 20.2597 9.87516 20.5558 9.13216 20.5588C8.9785 20.5587 8.8251 20.5462 8.67343 20.5213C8.29892 20.4554 7.94139 20.3136 7.62226 20.1045C7.44216 19.9886 7.27522 19.853 7.12445 19.7001C6.85859 19.434 6.64766 19.1168 6.50392 18.7673C6.36018 18.4177 6.28652 18.0427 6.28722 17.664ZM48.7494 11.6222H43.7013L40.6795 3.80274H43.7857L48.7494 11.6222ZM41.5373 11.6222H36.1889L36.1807 3.80274H38.9207L41.5373 11.6222ZM34.4054 11.6222H28.9295L30.5998 3.80483H34.4054V11.6222ZM27.0575 11.6222H21.5754L24.373 3.80483H28.734L27.0575 11.6222ZM19.7302 11.6222H14.3139L18.1236 3.80274H22.532L19.7302 11.6222ZM12.3289 11.6222H7.036L11.9935 3.80274H16.1468L12.3289 11.6222ZM39.5457 37.6466C39.7127 37.8158 39.9393 37.9109 40.1755 37.9109C40.4112 37.9109 40.6374 37.8164 40.8046 37.6482C40.9719 37.4799 41.0666 37.2514 41.0683 37.0126V34.1137C41.0741 33.9914 41.0553 33.8692 41.0131 33.7544C40.9709 33.6397 40.9061 33.5348 40.8228 33.4462C40.7394 33.3576 40.6391 33.287 40.528 33.2388C40.417 33.1906 40.2974 33.1658 40.1765 33.1658C40.0557 33.1658 39.9361 33.1906 39.825 33.2388C39.7139 33.287 39.6137 33.3576 39.5303 33.4462C39.4469 33.5348 39.3821 33.6397 39.3399 33.7544C39.2977 33.8692 39.279 33.9914 39.2848 34.1137V37.0085C39.2848 37.2478 39.3786 37.4773 39.5457 37.6466ZM13.112 33.7676C13.2636 33.8767 13.445 33.935 13.631 33.9344C13.8284 33.9343 14.0202 33.8676 14.1761 33.7448L17.7245 30.95C17.9111 30.803 18.0324 30.5869 18.0617 30.3493C18.0759 30.2342 18.068 30.1187 18.0396 30.0087C18.1395 30.0652 18.2497 30.102 18.3643 30.1163H18.4774C18.675 30.1169 18.867 30.0501 19.0226 29.9267L20.1149 29.0889C20.3014 28.9411 20.4227 28.7246 20.4522 28.4866C20.4771 28.3074 20.4483 28.1248 20.3697 27.9624C20.291 27.8 20.1661 27.6652 20.0111 27.5754C19.856 27.4857 19.678 27.4451 19.4999 27.4589C19.3219 27.4727 19.152 27.5403 19.0123 27.653L17.9282 28.5074C17.7888 28.6169 17.6845 28.7658 17.6287 28.9354C17.5741 29.1014 17.5683 29.2798 17.612 29.4489C17.5127 29.3928 17.4029 29.3558 17.2879 29.3413C17.0534 29.3116 16.8168 29.3775 16.6302 29.5245L13.0817 32.3193C12.9349 32.4348 12.8274 32.594 12.7743 32.7745C12.7213 32.955 12.7253 33.1479 12.7859 33.3259C12.8464 33.504 12.9605 33.6585 13.112 33.7676ZM11.2982 40.0472H24.805C24.9222 40.0469 25.0383 40.0232 25.1465 39.9775C25.2547 39.9318 25.353 39.865 25.4357 39.7808C25.5184 39.6966 25.5839 39.5967 25.6285 39.4869C25.6732 39.377 25.696 39.2594 25.6957 39.1406V25.7587C25.6957 25.5192 25.6019 25.2894 25.435 25.1198C25.268 24.9503 25.0414 24.8547 24.805 24.8542H11.2982C11.0618 24.8547 10.8353 24.9503 10.6683 25.1198C10.5013 25.2894 10.4075 25.5192 10.4075 25.7587V39.1427C10.4075 39.3822 10.5013 39.6119 10.6683 39.7815C10.8353 39.9511 11.0618 40.0466 11.2982 40.0472ZM23.9122 38.2403H12.1869V26.6632H23.9122V38.2403ZM15.9282 37.7231C16.0798 37.8322 16.2612 37.8906 16.4471 37.8899C16.6446 37.8898 16.8364 37.8231 16.9923 37.7003L18.0764 36.8458C18.1687 36.773 18.2461 36.6825 18.3039 36.5794C18.3618 36.4763 18.399 36.3627 18.4135 36.2451C18.4275 36.1323 18.4202 36.0178 18.3923 35.9078C18.4923 35.9644 18.6023 36.0005 18.7161 36.0142C18.7537 36.0173 18.7916 36.0173 18.8292 36.0142C19.0266 36.0138 19.2183 35.9471 19.3744 35.8246L22.9228 33.0194C23.0152 32.9466 23.0925 32.8561 23.1504 32.753C23.2082 32.6499 23.2455 32.5363 23.26 32.4186C23.2745 32.301 23.266 32.1816 23.235 32.0672C23.204 31.9529 23.151 31.8459 23.0791 31.7523C23.0073 31.6587 22.9179 31.5803 22.8162 31.5217C22.7145 31.4631 22.6023 31.4254 22.4862 31.4107C22.37 31.396 22.2522 31.4046 22.1393 31.436C22.0265 31.4674 21.9208 31.5211 21.8284 31.5939L18.28 34.4053C18.1875 34.4781 18.1102 34.5686 18.0523 34.6717C17.9944 34.7747 17.9571 34.8884 17.9426 35.0061C17.9286 35.1195 17.936 35.2345 17.9644 35.3451C17.864 35.2882 17.7538 35.2515 17.6397 35.2371C17.5236 35.2224 17.4057 35.231 17.2929 35.2624C17.18 35.2939 17.0744 35.3475 16.982 35.4203L15.8979 36.2748C15.7511 36.3903 15.6436 36.5495 15.5905 36.73C15.5375 36.9106 15.5415 37.1034 15.6021 37.2815C15.6626 37.4596 15.7767 37.614 15.9282 37.7231ZM13.5313 36.6881C13.6533 36.7484 13.7873 36.7796 13.9231 36.7792C14.1257 36.7845 14.324 36.719 14.4846 36.5937L22.7129 30.1038C22.8055 30.0312 22.883 29.9408 22.941 29.8377C22.999 29.7347 23.0365 29.6212 23.0512 29.5035C23.0659 29.3858 23.0576 29.2664 23.0267 29.152C22.9959 29.0376 22.9431 28.9304 22.8713 28.8367C22.7996 28.743 22.7104 28.6645 22.6087 28.6057C22.507 28.5469 22.3949 28.5089 22.2788 28.494C22.1627 28.4791 22.0448 28.4876 21.9318 28.5188C21.8189 28.5501 21.7132 28.6036 21.6206 28.6762L13.3759 35.164C13.2834 35.2368 13.206 35.3273 13.1482 35.4303C13.0903 35.5334 13.053 35.647 13.0385 35.7647C13.0239 35.8824 13.0325 36.0018 13.0635 36.1162C13.0946 36.2305 13.1476 36.3376 13.2195 36.4311C13.3027 36.5398 13.4094 36.6277 13.5313 36.6881Z" fill="#475569"/>
</svg>
