<svg width="65" height="64" viewBox="0 0 65 64" fill="none" xmlns="http://www.w3.org/2000/svg">
<path fill-rule="evenodd" clip-rule="evenodd" d="M21.8333 10.6666C22.9379 10.6666 23.8333 11.5621 23.8333 12.6666V16H41.1666V12.6666C41.1666 11.5621 42.0621 10.6666 43.1666 10.6666C44.2712 10.6666 45.1666 11.5621 45.1666 12.6666V16H46.5C50.55 16 53.8333 19.2832 53.8333 23.3333V30C53.8333 31.1045 52.9379 32 51.8333 32C50.7287 32 49.8333 31.1045 49.8333 30V23.3333C49.8333 21.4923 48.3409 20 46.5 20H45.1666V22C45.1666 23.1045 44.2712 24 43.1666 24C42.0621 24 41.1666 23.1045 41.1666 22V20H23.8333V22C23.8333 23.1045 22.9379 24 21.8333 24C20.7287 24 19.8333 23.1045 19.8333 22V20H18.5C16.659 20 15.1666 21.4923 15.1666 23.3333V46C15.1666 47.8409 16.659 49.3333 18.5 49.3333H30.5C31.6045 49.3333 32.5 50.2287 32.5 51.3333C32.5 52.4379 31.6045 53.3333 30.5 53.3333H18.5C14.4499 53.3333 11.1666 50.05 11.1666 46V23.3333C11.1666 19.2832 14.4499 16 18.5 16H19.8333V12.6666C19.8333 11.5621 20.7287 10.6666 21.8333 10.6666ZM19.1666 28.6666C19.1666 27.5621 20.0621 26.6666 21.1666 26.6666H43.8333C44.9379 26.6666 45.8333 27.5621 45.8333 28.6666C45.8333 29.7712 44.9379 30.6666 43.8333 30.6666H21.1666C20.0621 30.6666 19.1666 29.7712 19.1666 28.6666ZM45.8333 37.3333C46.9379 37.3333 47.8333 38.2287 47.8333 39.3333V43.3333H51.8333C52.9379 43.3333 53.8333 44.2287 53.8333 45.3333C53.8333 46.4379 52.9379 47.3333 51.8333 47.3333H47.8333V51.3333C47.8333 52.4379 46.9379 53.3333 45.8333 53.3333C44.7287 53.3333 43.8333 52.4379 43.8333 51.3333V47.3333H39.8333C38.7287 47.3333 37.8333 46.4379 37.8333 45.3333C37.8333 44.2287 38.7287 43.3333 39.8333 43.3333H43.8333V39.3333C43.8333 38.2287 44.7287 37.3333 45.8333 37.3333Z" fill="#232838"/>
</svg>
