<svg width="32" height="32" viewBox="0 0 32 32" fill="none" xmlns="http://www.w3.org/2000/svg">
<path fill-rule="evenodd" clip-rule="evenodd" d="M12.6667 7.3335C11.1939 7.3335 10 8.5274 10 10.0002C10 11.4729 11.1939 12.6668 12.6667 12.6668C14.1394 12.6668 15.3334 11.4729 15.3334 10.0002C15.3334 8.5274 14.1394 7.3335 12.6667 7.3335ZM8.00002 10.0002C8.00002 7.42283 10.0894 5.3335 12.6667 5.3335C15.244 5.3335 17.3334 7.42283 17.3334 10.0002C17.3334 12.5775 15.244 14.6668 12.6667 14.6668C10.0894 14.6668 8.00002 12.5775 8.00002 10.0002ZM18.6667 6.3335C18.6667 5.78121 19.1144 5.3335 19.6667 5.3335C22.3659 5.3335 24 7.55311 24 10.0002C24 12.4472 22.3659 14.6668 19.6667 14.6668C19.1144 14.6668 18.6667 14.2191 18.6667 13.6668C18.6667 13.1145 19.1144 12.6668 19.6667 12.6668C21.0176 12.6668 22 11.6032 22 10.0002C22 8.39713 21.0176 7.3335 19.6667 7.3335C19.1144 7.3335 18.6667 6.88578 18.6667 6.3335ZM8.87699 21.3527C8.08311 22.33 7.68572 23.561 7.49395 24.5041C7.48818 24.5325 7.49125 24.5475 7.49338 24.555C7.49599 24.5642 7.50202 24.5776 7.51638 24.5936C7.54617 24.6267 7.61017 24.6668 7.70893 24.6668H17.6244C17.7232 24.6668 17.7872 24.6267 17.817 24.5936C17.8314 24.5776 17.8374 24.5642 17.84 24.555C17.8421 24.5475 17.8452 24.5325 17.8394 24.5041C17.6477 23.561 17.2503 22.33 16.4564 21.3527C15.6955 20.4159 14.5391 19.6668 12.6667 19.6668C10.7942 19.6668 9.63787 20.4159 8.87699 21.3527ZM7.32458 20.0917C8.43996 18.7185 10.1529 17.6668 12.6667 17.6668C15.1805 17.6668 16.8934 18.7185 18.0088 20.0917C19.0912 21.4243 19.577 23.0123 19.7993 24.1056C20.0949 25.5591 18.9074 26.6668 17.6244 26.6668H7.70893C6.42601 26.6668 5.2385 25.5591 5.53406 24.1056C5.75636 23.0123 6.24219 21.4243 7.32458 20.0917ZM20 18.6668C20 18.1145 20.4477 17.6668 21 17.6668C22.7963 17.6668 24.0476 18.6191 24.8671 19.7801C25.6657 20.9113 26.1004 22.2921 26.3414 23.378C26.7508 25.2219 25.2391 26.6668 23.5692 26.6668H22.3334C21.7811 26.6668 21.3334 26.2191 21.3334 25.6668C21.3334 25.1145 21.7811 24.6668 22.3334 24.6668H23.5692C23.8601 24.6668 24.0974 24.5455 24.2414 24.3838C24.378 24.2304 24.4389 24.0365 24.389 23.8115C24.1718 22.8333 23.8097 21.7501 23.2332 20.9335C22.6776 20.1464 21.9755 19.6668 21 19.6668C20.4477 19.6668 20 19.2191 20 18.6668Z" fill="#0F172A"/>
</svg>
