<svg width="24" height="25" viewBox="0 0 24 25" fill="none" xmlns="http://www.w3.org/2000/svg">
<path fill-rule="evenodd" clip-rule="evenodd" d="M4 12.7798C4 8.36151 7.58172 4.77979 12 4.77979C16.4183 4.77979 20 8.36151 20 12.7798C20 17.1981 16.4183 20.7798 12 20.7798C7.58172 20.7798 4 17.1981 4 12.7798ZM12 6.27979C8.41015 6.27979 5.5 9.18993 5.5 12.7798C5.5 16.3696 8.41015 19.2798 12 19.2798C15.5899 19.2798 18.5 16.3696 18.5 12.7798C18.5 9.18993 15.5899 6.27979 12 6.27979ZM14.6233 9.87927C14.9825 10.0854 15.1067 10.5438 14.9005 10.903L12.6069 14.9003C11.9021 16.1286 10.1063 16.0548 9.50475 14.7727L9.07103 13.8484C8.89508 13.4734 9.05643 13.0268 9.43142 12.8508C9.80641 12.6749 10.253 12.8362 10.429 13.2112L10.8627 14.1356C10.9486 14.3187 11.2052 14.3293 11.3059 14.1538L13.5995 10.1565C13.8056 9.79725 14.264 9.67312 14.6233 9.87927Z" fill="white"/>
</svg>
