<svg width="63" height="56" viewBox="0 0 63 56" fill="none" xmlns="http://www.w3.org/2000/svg">
<circle cx="20.1004" cy="19.2" r="19.2" fill="#00CEE0"/>
<path fill-rule="evenodd" clip-rule="evenodd" d="M19.4336 30.4C19.4336 20.9743 27.0746 13.3333 36.5003 13.3333C45.9259 13.3333 53.5669 20.9743 53.5669 30.4C53.5669 39.8256 45.9259 47.4666 36.5003 47.4666C27.0746 47.4666 19.4336 39.8256 19.4336 30.4ZM36.5003 16.5333C28.8419 16.5333 22.6336 22.7416 22.6336 30.4C22.6336 38.0583 28.8419 44.2666 36.5003 44.2666C44.1586 44.2666 50.3669 38.0583 50.3669 30.4C50.3669 22.7416 44.1586 16.5333 36.5003 16.5333ZM42.0966 24.2122C42.863 24.652 43.1278 25.6298 42.688 26.3963L37.795 34.9238C36.2914 37.5442 32.4603 37.3866 31.1771 34.6516L30.2518 32.6796C29.8764 31.8796 30.2206 30.9269 31.0206 30.5515C31.8206 30.1761 32.7734 30.5204 33.1487 31.3203L34.074 33.2923C34.2573 33.6831 34.8046 33.7056 35.0194 33.3312L39.9125 24.8037C40.3523 24.0372 41.3301 23.7724 42.0966 24.2122Z" fill="#0F172A"/>
</svg>
