<svg width="24" height="24" viewBox="0 0 24 24" fill="none" xmlns="http://www.w3.org/2000/svg">
<path fill-rule="evenodd" clip-rule="evenodd" d="M10 5.5C9.86193 5.5 9.75 5.61193 9.75 5.75V7.25C9.75 7.38807 9.86193 7.5 10 7.5H14C14.1381 7.5 14.25 7.38807 14.25 7.25V5.75C14.25 5.61193 14.1381 5.5 14 5.5H10ZM15.75 6V5.75C15.75 4.7835 14.9665 4 14 4H10C9.0335 4 8.25 4.7835 8.25 5.75V6H7.75C6.23122 6 5 7.23122 5 8.75V17.25C5 18.7688 6.23122 20 7.75 20H16.25C17.7688 20 19 18.7688 19 17.25V8.75C19 7.23122 17.7688 6 16.25 6H15.75ZM15.7323 7.5C15.611 8.34807 14.8816 9 14 9H10C9.11838 9 8.38903 8.34807 8.26772 7.5H7.75C7.05964 7.5 6.5 8.05964 6.5 8.75V17.25C6.5 17.9404 7.05964 18.5 7.75 18.5H16.25C16.9404 18.5 17.5 17.9404 17.5 17.25V8.75C17.5 8.05964 16.9404 7.5 16.25 7.5H15.7323ZM9 12.25C9 11.8358 9.33579 11.5 9.75 11.5H14.25C14.6642 11.5 15 11.8358 15 12.25C15 12.6642 14.6642 13 14.25 13H9.75C9.33579 13 9 12.6642 9 12.25ZM9 15.25C9 14.8358 9.33579 14.5 9.75 14.5H14.25C14.6642 14.5 15 14.8358 15 15.25C15 15.6642 14.6642 16 14.25 16H9.75C9.33579 16 9 15.6642 9 15.25Z" fill="#232838"/>
</svg>
