<svg width="63" height="56" viewBox="0 0 63 56" fill="none" xmlns="http://www.w3.org/2000/svg">
<circle cx="20.1" cy="19.2" r="19.2" fill="#FFB13C"/>
<path fill-rule="evenodd" clip-rule="evenodd" d="M30.1 14.933C30.1 14.0494 30.8163 13.333 31.7 13.333H41.3C42.1836 13.333 42.9 14.0494 42.9 14.933C42.9 15.8167 42.1836 16.533 41.3 16.533H38.1V17.6844C41.0242 17.9959 43.6962 19.1514 45.8677 20.9026L46.5686 20.2016C47.1935 19.5768 48.2065 19.5768 48.8314 20.2016C49.4562 20.8265 49.4562 21.8395 48.8314 22.4644L48.1304 23.1653C50.1964 25.7272 51.4333 28.9856 51.4333 32.533C51.4333 40.7805 44.7474 47.4663 36.5 47.4663C28.2525 47.4663 21.5667 40.7805 21.5667 32.533C21.5667 24.8261 27.4049 18.4827 34.9 17.6844V16.533H31.7C30.8163 16.533 30.1 15.8167 30.1 14.933ZM36.5 20.7997C30.0198 20.7997 24.7667 26.0529 24.7667 32.533C24.7667 39.0132 30.0198 44.2663 36.5 44.2663C42.9801 44.2663 48.2333 39.0132 48.2333 32.533C48.2333 26.0529 42.9801 20.7997 36.5 20.7997ZM36.5 23.9997C37.3836 23.9997 38.1 24.716 38.1 25.5997V33.0663C38.1 33.95 37.3836 34.6663 36.5 34.6663C35.6163 34.6663 34.9 33.95 34.9 33.0663V25.5997C34.9 24.716 35.6163 23.9997 36.5 23.9997Z" fill="#0F172A"/>
</svg>
