<svg width="24" height="24" viewBox="0 0 24 24" fill="none" xmlns="http://www.w3.org/2000/svg">
<path fill-rule="evenodd" clip-rule="evenodd" d="M12 5.5C8.41015 5.5 5.5 8.41015 5.5 12C5.5 15.5899 8.41015 18.5 12 18.5C15.5899 18.5 18.5 15.5899 18.5 12C18.5 8.41015 15.5899 5.5 12 5.5ZM4 12C4 7.58172 7.58172 4 12 4C16.4183 4 20 7.58172 20 12C20 16.4183 16.4183 20 12 20C7.58172 20 4 16.4183 4 12ZM12 7.25C12.4142 7.25 12.75 7.58579 12.75 8V11.6893L14.5303 13.4697C14.8232 13.7626 14.8232 14.2374 14.5303 14.5303C14.2374 14.8232 13.7626 14.8232 13.4697 14.5303L11.25 12.3107V8C11.25 7.58579 11.5858 7.25 12 7.25Z" fill="#64748B"/>
</svg>
