<svg width="63" height="56" viewBox="0 0 63 56" fill="none" xmlns="http://www.w3.org/2000/svg">
<circle cx="20.1" cy="19.2" r="19.2" fill="#FFB13C"/>
<path fill-rule="evenodd" clip-rule="evenodd" d="M24.1686 18.0687C24.7935 17.4439 25.8065 17.4439 26.4314 18.0687L36.5 28.1374L46.5686 18.0687C47.1935 17.4439 48.2065 17.4439 48.8314 18.0687C49.4562 18.6936 49.4562 19.7066 48.8314 20.3315L38.7628 30.4001L48.8314 40.4687C49.4562 41.0936 49.4562 42.1066 48.8314 42.7315C48.2065 43.3563 47.1935 43.3563 46.5686 42.7315L36.5 32.6628L26.4314 42.7315C25.8065 43.3563 24.7935 43.3563 24.1686 42.7315C23.5438 42.1066 23.5438 41.0936 24.1686 40.4687L34.2373 30.4001L24.1686 20.3315C23.5438 19.7066 23.5438 18.6936 24.1686 18.0687Z" fill="#0F172A"/>
</svg>
