<svg width="25" height="24" viewBox="0 0 25 24" fill="none" xmlns="http://www.w3.org/2000/svg">
<path fill-rule="evenodd" clip-rule="evenodd" d="M4.56006 12C4.56006 7.58172 8.14178 4 12.5601 4C16.9783 4 20.5601 7.58172 20.5601 12C20.5601 16.4183 16.9783 20 12.5601 20C8.14178 20 4.56006 16.4183 4.56006 12ZM12.5601 5.5C8.97021 5.5 6.06006 8.41015 6.06006 12C6.06006 15.5899 8.97021 18.5 12.5601 18.5C16.1499 18.5 19.0601 15.5899 19.0601 12C19.0601 8.41015 16.1499 5.5 12.5601 5.5ZM9.77973 9.21967C10.0726 8.92678 10.5475 8.92678 10.8404 9.21967L12.5601 10.9393L14.2797 9.21967C14.5726 8.92678 15.0475 8.92678 15.3404 9.21967C15.6333 9.51256 15.6333 9.98744 15.3404 10.2803L13.6207 12L15.3404 13.7197C15.6333 14.0126 15.6333 14.4874 15.3404 14.7803C15.0475 15.0732 14.5726 15.0732 14.2797 14.7803L12.5601 13.0607L10.8404 14.7803C10.5475 15.0732 10.0726 15.0732 9.77973 14.7803C9.48684 14.4874 9.48684 14.0126 9.77973 13.7197L11.4994 12L9.77973 10.2803C9.48684 9.98744 9.48684 9.51256 9.77973 9.21967Z" fill="#CBD5E1"/>
</svg>
