<svg width="56" height="56" viewBox="0 0 56 56" fill="none" xmlns="http://www.w3.org/2000/svg">
    <path
        d="M56 28C56 12.536 43.464 4.44259e-07 28 2.86197e-07C12.536 1.28135e-07 6.04686e-07 12.536 3.89546e-07 28C1.74406e-07 43.464 12.536 56 28 56C43.464 56 56 43.464 56 28Z"
        fill="#00CEE0" />
    <path fill-rule="evenodd" clip-rule="evenodd"
        d="M28.0001 21.5C26.6193 21.5 25.5001 22.6193 25.5001 24C25.5001 25.3807 26.6193 26.5 28.0001 26.5C29.3808 26.5 30.5001 25.3807 30.5001 24C30.5001 22.6193 29.3808 21.5 28.0001 21.5ZM24.0001 24C24.0001 21.7909 25.7909 20 28.0001 20C30.2092 20 32.0001 21.7909 32.0001 24C32.0001 26.2091 30.2092 28 28.0001 28C25.7909 28 24.0001 26.2091 24.0001 24ZM28.2501 30.75C24.504 30.75 22.8726 32.3339 22.1362 33.5775C21.9981 33.8108 22.0333 33.9954 22.1509 34.151C22.289 34.3337 22.5733 34.5 22.9496 34.5H28.2501C28.6643 34.5 29.0001 34.8358 29.0001 35.25C29.0001 35.6642 28.6643 36 28.2501 36H22.9496C22.1464 36 21.4009 35.6464 20.9543 35.0555C20.4872 34.4376 20.3827 33.5949 20.8456 32.8133C21.8524 31.1129 23.9748 29.25 28.2501 29.25C28.6643 29.25 29.0001 29.5858 29.0001 30C29.0001 30.4142 28.6643 30.75 28.2501 30.75Z"
        fill="white" />
    <path fill-rule="evenodd" clip-rule="evenodd"
        d="M35.6235 30.0996C35.9828 30.3058 36.1069 30.7641 35.9007 31.1234L33.6071 35.1207C32.9023 36.349 31.1065 36.2751 30.505 34.9931L30.0713 34.0687C29.8953 33.6937 30.0567 33.2471 30.4316 33.0712C30.8066 32.8952 31.2533 33.0566 31.4292 33.4315L31.8629 34.3559C31.9489 34.5391 32.2054 34.5496 32.3061 34.3742L34.5997 30.3769C34.8059 30.0176 35.2642 29.8935 35.6235 30.0996Z"
        fill="white" />
    />
</svg>
