<svg width="24" height="24" viewBox="0 0 24 24" fill="none" xmlns="http://www.w3.org/2000/svg">
<path fill-rule="evenodd" clip-rule="evenodd" d="M11.4696 5.46963C13.4194 3.51989 16.5805 3.51989 18.5303 5.46963C20.48 7.41938 20.48 10.5805 18.5303 12.5303L17.2803 13.7803C16.9874 14.0732 16.5125 14.0732 16.2196 13.7803C15.9267 13.4874 15.9267 13.0125 16.2196 12.7196L17.4696 11.4696C18.8336 10.1057 18.8336 7.89426 17.4696 6.53029C16.1057 5.16633 13.8943 5.16633 12.5303 6.53029L11.2803 7.78029C10.9874 8.07319 10.5125 8.07319 10.2196 7.7803C9.92674 7.4874 9.92674 7.01253 10.2196 6.71964L11.4696 5.46963ZM14.7803 9.21963C15.0732 9.51253 15.0732 9.9874 14.7803 10.2803L10.2803 14.7803C9.9874 15.0732 9.51253 15.0732 9.21963 14.7803C8.92674 14.4874 8.92674 14.0125 9.21963 13.7196L13.7196 9.21963C14.0125 8.92674 14.4874 8.92674 14.7803 9.21963ZM7.78029 10.2196C8.07319 10.5125 8.07319 10.9874 7.7803 11.2803L6.53029 12.5303C5.16633 13.8943 5.16633 16.1057 6.53029 17.4696C7.89426 18.8336 10.1057 18.8336 11.4696 17.4696L12.7196 16.2196C13.0125 15.9267 13.4874 15.9267 13.7803 16.2196C14.0732 16.5125 14.0732 16.9874 13.7803 17.2803L12.5303 18.5303C10.5805 20.48 7.41938 20.48 5.46963 18.5303C3.51989 16.5805 3.51989 13.4194 5.46963 11.4696L6.71963 10.2196C7.01253 9.92674 7.4874 9.92674 7.78029 10.2196Z" fill="#0F172A"/>
</svg>
