<svg width="63" height="56" viewBox="0 0 63 56" fill="none" xmlns="http://www.w3.org/2000/svg">
<circle cx="20.1" cy="19.2" r="19.2" fill="#FFB13C"/>
<path fill-rule="evenodd" clip-rule="evenodd" d="M36.5006 16.533C33.5551 16.533 31.1673 18.9208 31.1673 21.8663C31.1673 24.8119 33.5551 27.1997 36.5006 27.1997C39.4461 27.1997 41.834 24.8119 41.834 21.8663C41.834 18.9208 39.4461 16.533 36.5006 16.533ZM27.9673 21.8663C27.9673 17.1535 31.7878 13.333 36.5006 13.333C41.2135 13.333 45.034 17.1535 45.034 21.8663C45.034 26.5792 41.2135 30.3997 36.5006 30.3997C31.7878 30.3997 27.9673 26.5792 27.9673 21.8663ZM37.034 36.2663C29.0424 36.2663 25.5622 39.6454 23.9912 42.2984C23.6966 42.796 23.7715 43.19 24.0224 43.5219C24.3169 43.9116 24.9236 44.2663 25.7263 44.2663H37.034C37.9176 44.2663 38.634 44.9827 38.634 45.8663C38.634 46.75 37.9176 47.4663 37.034 47.4663H25.7263C24.0127 47.4663 22.4224 46.7121 21.4696 45.4515C20.4731 44.1331 20.2503 42.3356 21.2377 40.668C23.3856 37.0406 27.9134 33.0663 37.034 33.0663C37.9176 33.0663 38.634 33.7827 38.634 34.6663C38.634 35.55 37.9176 36.2663 37.034 36.2663ZM43.3693 37.2683C43.9941 36.6435 45.0072 36.6435 45.632 37.2683L48.234 39.8703L50.8359 37.2683C51.4608 36.6435 52.4738 36.6435 53.0987 37.2683C53.7235 37.8931 53.7235 38.9062 53.0987 39.531L50.4967 42.133L53.0987 44.735C53.7235 45.3598 53.7235 46.3729 53.0987 46.9977C52.4738 47.6226 51.4608 47.6226 50.8359 46.9977L48.234 44.3958L45.632 46.9977C45.0072 47.6226 43.9941 47.6226 43.3693 46.9977C42.7444 46.3729 42.7444 45.3598 43.3693 44.735L45.9712 42.133L43.3693 39.531C42.7444 38.9062 42.7444 37.8931 43.3693 37.2683Z" fill="#0F172A"/>
</svg>
