<svg width="63" height="56" viewBox="0 0 63 56" fill="none" xmlns="http://www.w3.org/2000/svg">
<circle cx="20.0999" cy="19.2" r="19.2" fill="#FF6868"/>
<path fill-rule="evenodd" clip-rule="evenodd" d="M33.8331 16.5334C32.3603 16.5334 31.1664 17.7273 31.1664 19.2V19.7334H39.6998V19.2C39.6998 17.7273 38.5059 16.5334 37.0331 16.5334H33.8331ZM42.8998 19.7334V19.2C42.8998 15.96 40.2732 13.3334 37.0331 13.3334H33.8331C30.593 13.3334 27.9664 15.96 27.9664 19.2V19.7334H21.0331C20.1494 19.7334 19.4331 20.4497 19.4331 21.3334C19.4331 22.217 20.1494 22.9334 21.0331 22.9334H21.6995L23.3669 42.1083C23.6305 45.1399 26.1684 47.4667 29.2115 47.4667H41.6547C44.6978 47.4667 47.2357 45.1399 47.4993 42.1083L49.1667 22.9334H49.8331C50.7168 22.9334 51.4331 22.217 51.4331 21.3334C51.4331 20.4497 50.7168 19.7334 49.8331 19.7334H42.8998ZM24.9116 22.9334L26.5549 41.8311C26.6747 43.2091 27.8283 44.2667 29.2115 44.2667H41.6547C43.0379 44.2667 44.1915 43.2091 44.3113 41.8311L45.9546 22.9334H24.9116ZM31.6998 26.1334C32.5834 26.1334 33.2998 26.8497 33.2998 27.7334V39.4667C33.2998 40.3504 32.5834 41.0667 31.6998 41.0667C30.8161 41.0667 30.0998 40.3504 30.0998 39.4667V27.7334C30.0998 26.8497 30.8161 26.1334 31.6998 26.1334ZM39.1664 26.1334C40.0501 26.1334 40.7664 26.8497 40.7664 27.7334V39.4667C40.7664 40.3504 40.0501 41.0667 39.1664 41.0667C38.2828 41.0667 37.5664 40.3504 37.5664 39.4667V27.7334C37.5664 26.8497 38.2828 26.1334 39.1664 26.1334Z" fill="#0F172A"/>
</svg>
