<svg width="25" height="24" viewBox="0 0 25 24" fill="none" xmlns="http://www.w3.org/2000/svg">
<path fill-rule="evenodd" clip-rule="evenodd" d="M9.25 5.5C8.55964 5.5 8 6.05964 8 6.75V17.25C8 17.9404 8.55964 18.5 9.25 18.5H15.7502C16.4406 18.5 17.0002 17.9404 17.0002 17.25V6.75C17.0002 6.05964 16.4406 5.5 15.7502 5.5H9.25ZM6.5 6.75C6.5 5.23122 7.73121 4 9.25 4H15.7502C17.269 4 18.5002 5.23122 18.5002 6.75V17.25C18.5002 18.7688 17.269 20 15.7502 20H9.25C7.73122 20 6.5 18.7688 6.5 17.25V6.75ZM11.5 16.75C11.5 16.3358 11.8358 16 12.25 16H12.75C13.1642 16 13.5 16.3358 13.5 16.75C13.5 17.1642 13.1642 17.5 12.75 17.5H12.25C11.8358 17.5 11.5 17.1642 11.5 16.75Z" fill="#0F172A"/>
</svg>
