<svg width="63" height="56" viewBox="0 0 63 56" fill="none" xmlns="http://www.w3.org/2000/svg">
<circle cx="20.0999" cy="19.2" r="19.2" fill="#00CEE0"/>
<path fill-rule="evenodd" clip-rule="evenodd" d="M36.4998 16.533C28.8414 16.533 22.6331 22.7413 22.6331 30.3997C22.6331 38.058 28.8414 44.2663 36.4998 44.2663C44.1581 44.2663 50.3664 38.058 50.3664 30.3997C50.3664 22.7413 44.1581 16.533 36.4998 16.533ZM19.4331 30.3997C19.4331 20.974 27.0741 13.333 36.4998 13.333C45.9254 13.333 53.5664 20.974 53.5664 30.3997C53.5664 39.8253 45.9254 47.4663 36.4998 47.4663C27.0741 47.4663 19.4331 39.8253 19.4331 30.3997ZM36.4998 19.733C37.3834 19.733 38.0998 20.4494 38.0998 21.333V21.8663H41.2998C42.1834 21.8663 42.8998 22.5827 42.8998 23.4663C42.8998 24.35 42.1834 25.0663 41.2998 25.0663H35.1664C34.1355 25.0663 33.2998 25.9021 33.2998 26.933C33.2998 27.9639 34.1355 28.7997 35.1664 28.7997H37.8331C40.6313 28.7997 42.8998 31.0681 42.8998 33.8663C42.8998 36.5751 40.7741 38.7874 38.0998 38.9261V39.4663C38.0998 40.35 37.3834 41.0663 36.4998 41.0663C35.6161 41.0663 34.8998 40.35 34.8998 39.4663V38.933H31.6998C30.8161 38.933 30.0998 38.2167 30.0998 37.333C30.0998 36.4494 30.8161 35.733 31.6998 35.733H37.8331C38.864 35.733 39.6998 34.8973 39.6998 33.8663C39.6998 32.8354 38.864 31.9997 37.8331 31.9997H35.1664C32.3682 31.9997 30.0998 29.7313 30.0998 26.933C30.0998 24.2242 32.2255 22.0119 34.8998 21.8732V21.333C34.8998 20.4494 35.6161 19.733 36.4998 19.733Z" fill="#0F172A"/>
</svg>
