<svg width="63" height="56" viewBox="0 0 63 56" fill="none" xmlns="http://www.w3.org/2000/svg">
<circle cx="20.0999" cy="19.2" r="19.2" fill="#FFB13C"/>
<path fill-rule="evenodd" clip-rule="evenodd" d="M36.4998 16.5333C28.8414 16.5333 22.6331 22.7416 22.6331 30.4C22.6331 38.0583 28.8414 44.2666 36.4998 44.2666C44.1581 44.2666 50.3664 38.0583 50.3664 30.4C50.3664 22.7416 44.1581 16.5333 36.4998 16.5333ZM19.4331 30.4C19.4331 20.9743 27.0741 13.3333 36.4998 13.3333C45.9254 13.3333 53.5664 20.9743 53.5664 30.4C53.5664 39.8256 45.9254 47.4666 36.4998 47.4666C27.0741 47.4666 19.4331 39.8256 19.4331 30.4ZM36.4998 19.7333C37.3834 19.7333 38.0998 20.4497 38.0998 21.3333V21.8666H41.2998C42.1834 21.8666 42.8998 22.583 42.8998 23.4666C42.8998 24.3503 42.1834 25.0666 41.2998 25.0666H35.1664C34.1355 25.0666 33.2998 25.9024 33.2998 26.9333C33.2998 27.9642 34.1355 28.8 35.1664 28.8H37.8331C40.6313 28.8 42.8998 31.0684 42.8998 33.8666C42.8998 36.5754 40.7741 38.7877 38.0998 38.9264V39.4666C38.0998 40.3503 37.3834 41.0666 36.4998 41.0666C35.6161 41.0666 34.8998 40.3503 34.8998 39.4666V38.9333H31.6998C30.8161 38.9333 30.0998 38.217 30.0998 37.3333C30.0998 36.4497 30.8161 35.7333 31.6998 35.7333H37.8331C38.864 35.7333 39.6998 34.8976 39.6998 33.8666C39.6998 32.8357 38.864 32 37.8331 32H35.1664C32.3682 32 30.0998 29.7316 30.0998 26.9333C30.0998 24.2245 32.2255 22.0122 34.8998 21.8735V21.3333C34.8998 20.4497 35.6161 19.7333 36.4998 19.7333Z" fill="#0F172A"/>
</svg>
