<svg width="32" height="32" viewBox="0 0 32 32" fill="none" xmlns="http://www.w3.org/2000/svg">
<path fill-rule="evenodd" clip-rule="evenodd" d="M12 16.6666C12 17.7712 11.1046 18.6666 10 18.6666C8.89543 18.6666 8 17.7712 8 16.6666C8 15.5621 8.89543 14.6666 10 14.6666C11.1046 14.6666 12 15.5621 12 16.6666ZM18.6667 16.6666C18.6667 17.7712 17.7712 18.6666 16.6667 18.6666C15.5621 18.6666 14.6667 17.7712 14.6667 16.6666C14.6667 15.5621 15.5621 14.6666 16.6667 14.6666C17.7712 14.6666 18.6667 15.5621 18.6667 16.6666ZM23.3333 18.6666C24.4379 18.6666 25.3333 17.7712 25.3333 16.6666C25.3333 15.5621 24.4379 14.6666 23.3333 14.6666C22.2288 14.6666 21.3333 15.5621 21.3333 16.6666C21.3333 17.7712 22.2288 18.6666 23.3333 18.6666Z" fill="white"/>
</svg>
