<svg version="1.1" id="Layer_1" xmlns="http://www.w3.org/2000/svg" xmlns:xlink="http://www.w3.org/1999/xlink" x="0px" y="0px"
	 width="100%" viewBox="0 0 420 648" enable-background="new 0 0 420 648" xml:space="preserve">
<path fill="#FEFEFE" opacity="1.000000" stroke="none" 
	d="
M1.000000,246.000000 
	C1.000000,164.000000 1.000000,82.500000 1.000000,1.000000 
	C141.000000,1.000000 281.000000,1.000000 421.000000,1.000000 
	C421.000000,217.000000 421.000000,433.000000 421.000000,649.000000 
	C281.000000,649.000000 141.000000,649.000000 1.000000,649.000000 
	C1.000000,514.833313 1.000000,380.666656 1.000000,246.000000 
M72.160980,400.599426 
	C75.594978,401.089386 79.028572,402.003967 82.463028,402.007172 
	C167.443176,402.086609 252.423401,402.075928 337.403625,402.040192 
	C340.043518,402.039093 342.785461,401.980896 345.306305,401.303528 
	C360.600342,397.194061 367.668671,384.511475 364.796509,367.667175 
	C360.696625,343.622711 356.933990,319.520691 353.044220,295.440491 
	C348.360443,266.444550 343.824829,237.423767 338.953705,208.459366 
	C337.119659,197.553909 330.357880,189.788895 319.571625,188.195267 
	C308.476471,186.556046 297.029572,187.280167 285.735016,187.050034 
	C285.029968,187.035645 283.952118,187.529861 283.653351,188.103119 
	C280.481781,194.188400 277.432983,200.337692 274.065613,207.035797 
	C281.047089,207.035797 287.036621,206.978867 293.024658,207.047989 
	C304.466248,207.180054 313.013062,214.439255 315.005676,225.652191 
	C315.586212,228.918823 316.137665,232.191162 316.656189,235.468201 
	C318.124695,244.749924 319.569275,254.035431 321.084656,263.711456 
	C296.011047,265.220703 273.466797,259.408325 252.799576,245.688934 
	C249.378967,251.631821 246.260544,257.049652 243.125504,262.496399 
	C244.914108,263.905334 246.322632,265.014893 248.261612,266.542267 
	C234.101822,282.851593 220.111008,298.966248 205.712830,315.550140 
	C204.336441,313.578430 203.275787,312.152771 202.312424,310.664154 
	C194.721939,298.934998 184.844131,289.736389 170.963715,286.803925 
	C162.458740,285.007111 153.478699,285.408722 144.705109,284.957184 
	C141.027328,284.767883 137.331680,284.925690 132.164444,284.925690 
	C134.960312,282.556549 136.430817,281.236816 137.976807,280.012421 
	C148.149078,271.956024 158.382309,263.975250 168.458664,255.800964 
	C169.591721,254.881775 170.838379,252.423965 170.379684,251.500870 
	C167.886536,246.483597 164.874634,241.724091 161.884872,236.608154 
	C160.609314,237.427429 159.615219,237.955322 158.745407,238.640869 
	C140.061142,253.366928 121.420532,268.148773 102.665916,282.784515 
	C101.016945,284.071320 98.639130,284.424194 96.082588,285.410370 
	C96.082588,282.693726 95.903580,281.343536 96.109627,280.054932 
	C98.886940,262.686157 101.459053,245.278839 104.613388,227.977936 
	C107.379486,212.806412 114.777939,207.041031 130.090820,207.031860 
	C135.139297,207.028839 140.187790,207.031387 145.911407,207.031387 
	C142.908112,200.966812 140.177155,195.838120 137.821381,190.542526 
	C136.521423,187.620346 134.635605,186.827393 131.601501,186.898331 
	C123.607704,187.085220 115.606316,186.915115 107.608650,186.976807 
	C93.740051,187.083786 83.540840,194.857361 81.023453,208.602966 
	C76.958946,230.796356 73.632607,253.125290 70.025536,275.402008 
	C65.092224,305.869324 60.315872,336.362762 55.219803,366.802734 
	C52.483807,383.145447 57.834991,394.682159 72.160980,400.599426 
M154.887070,200.612274 
	C156.865494,204.272385 158.751648,207.986008 160.837967,211.583557 
	C171.104706,229.286987 181.105988,247.155624 191.827957,264.580170 
	C200.181885,278.156311 217.574829,278.756104 227.095795,266.336975 
	C228.909470,263.971191 230.333649,261.301208 231.880096,258.736938 
	C251.056549,226.939362 269.917877,194.926285 283.990814,160.480347 
	C289.423950,147.181839 294.680634,133.264771 296.532166,119.171562 
	C299.678192,95.225655 291.222687,73.759842 275.123718,55.898388 
	C244.544296,21.971127 194.377869,17.278397 157.513702,44.254723 
	C130.856918,63.761505 115.601952,101.209984 126.356285,135.038040 
	C133.553757,157.677963 143.845612,178.883087 154.887070,200.612274 
M149.145599,515.991272 
	C152.250275,515.960144 155.494125,515.767639 156.361359,512.076599 
	C158.124924,504.570709 157.301285,498.714966 147.819702,499.070221 
	C138.551376,499.417450 129.259842,499.145782 119.927254,499.145782 
	C119.927254,495.790314 119.927254,492.915955 119.927254,489.690552 
	C126.538589,489.690552 132.846329,489.872070 139.138519,489.637268 
	C144.922623,489.421417 146.831955,486.982666 146.687103,480.865967 
	C146.548172,474.999939 144.681122,473.032104 138.904617,472.960114 
	C132.612289,472.881683 126.318245,472.942291 119.848465,472.942291 
	C119.848465,469.586212 119.848465,466.667969 119.848465,463.896942 
	C120.226250,463.662903 120.367004,463.499756 120.509445,463.498260 
	C129.982437,463.398254 139.456558,463.368591 148.928345,463.203491 
	C155.434021,463.090118 157.064255,461.288269 157.023590,454.697632 
	C156.985321,448.494659 155.308823,446.680023 148.974274,446.630768 
	C136.653931,446.535034 124.331741,446.521576 112.011551,446.623230 
	C104.394226,446.686096 102.921089,448.164856 102.888329,455.722565 
	C102.813995,472.871857 102.831291,490.021759 102.881111,507.171204 
	C102.901924,514.335022 104.520004,515.944580 111.753288,515.984741 
	C123.907494,516.052063 136.062332,516.003723 149.145599,515.991272 
M344.377167,610.160645 
	C351.753937,616.618347 359.670135,617.020203 368.042694,611.994019 
	C368.138824,621.934814 361.980255,625.829895 353.373566,621.527710 
	C352.337128,621.009644 351.365082,620.359131 350.378479,619.745483 
	C346.364868,617.249268 344.192413,620.095398 342.144653,622.743469 
	C340.027222,625.481628 338.180908,628.845886 341.466309,631.614075 
	C349.067993,638.018799 357.934692,640.241943 367.536835,637.121643 
	C376.743713,634.129944 383.471252,628.054260 384.053833,618.017395 
	C384.862274,604.090820 384.594879,590.099487 384.689148,576.135254 
	C384.713623,572.511230 385.080658,568.190735 380.257782,567.318298 
	C375.802490,566.512268 370.870331,565.707458 368.448364,571.361511 
	C359.263885,565.136963 351.172821,565.860168 343.216766,573.501404 
	C332.605530,583.692749 332.859467,598.611023 344.377167,610.160645 
M72.770073,570.605408 
	C65.706787,566.020264 58.596233,565.914795 51.272259,571.118652 
	C51.272259,563.902100 51.391037,557.420349 51.236420,550.945129 
	C51.101444,545.292419 49.191093,543.811707 42.816483,543.872070 
	C36.802502,543.929016 34.931175,545.434143 34.909199,550.922180 
	C34.830502,570.572388 34.916294,590.223206 34.857437,609.873535 
	C34.843796,614.428162 37.056183,617.037598 41.424999,616.750427 
	C44.931404,616.519836 48.361065,615.122070 52.973900,613.950317 
	C58.901890,618.326111 67.055893,618.132751 74.411125,612.337891 
	C88.400040,601.316528 88.123222,581.556702 72.770073,570.605408 
M245.458038,580.702332 
	C246.610229,575.548340 243.321213,572.163574 239.695236,570.279114 
	C237.726028,569.255615 233.701675,570.642700 231.399338,572.153748 
	C227.628967,574.628296 224.506897,578.090576 220.296677,581.867004 
	C220.296677,579.209106 220.300232,577.617493 220.296127,576.025879 
	C220.273758,567.364258 220.388031,558.699219 220.172546,550.042419 
	C220.048492,545.059875 217.823578,543.612366 211.559677,543.693054 
	C206.052353,543.764038 203.978241,545.239929 203.950790,550.006592 
	C203.834793,570.161743 203.834106,590.318298 203.948578,610.473511 
	C203.976669,615.421021 206.145630,616.955322 211.943405,616.988464 
	C217.841858,617.022156 219.868332,615.562927 220.197449,610.727600 
	C220.383728,607.990845 220.231079,605.231079 220.231079,601.761414 
	C221.740463,602.865723 222.447906,603.291504 223.047073,603.836426 
	C227.106201,607.528076 230.928513,611.519409 235.242264,614.881470 
	C240.215668,618.757690 242.944412,618.163330 246.537445,613.363037 
	C250.326218,608.301147 250.112427,606.089050 245.315781,602.025574 
	C241.424393,598.729004 237.475937,595.499695 233.411591,592.123230 
	C237.548508,588.287659 241.302536,584.807068 245.458038,580.702332 
M173.001495,470.408630 
	C171.038025,472.432892 168.839035,474.279266 167.152115,476.512390 
	C160.087219,485.864960 161.027679,499.102112 169.229935,508.098724 
	C177.083450,516.712891 185.888550,517.914734 196.295181,511.793091 
	C199.126587,515.627502 203.678055,516.891968 208.565964,515.386536 
	C213.083176,513.995300 212.706635,510.245331 212.736130,506.825409 
	C212.828003,496.177063 212.818863,485.527100 212.752228,474.878387 
	C212.706741,467.611725 210.508301,465.372681 203.376877,466.204803 
	C200.576797,466.531555 197.958481,468.416016 194.766510,469.804626 
	C188.532745,464.839722 182.334259,464.708099 173.001495,470.408630 
M279.713776,501.823914 
	C284.091400,506.807495 284.208405,511.837708 280.560516,517.435364 
	C278.596375,520.449341 277.472351,524.037476 276.150726,527.437073 
	C274.273560,532.265747 275.508423,534.661011 280.821381,536.981567 
	C286.196045,539.328979 288.859406,538.633057 291.028351,533.836670 
	C299.643982,514.784546 308.206848,495.708008 316.663910,476.585083 
	C318.834747,471.676422 317.566284,469.171967 312.405182,466.807953 
	C306.767609,464.225769 304.204071,464.895752 301.828766,469.894470 
	C298.644318,476.596100 295.627289,483.377228 292.192596,490.879578 
	C287.769318,483.455078 283.668274,476.492859 279.487030,469.579102 
	C276.381683,464.444305 273.695435,463.880127 268.352631,467.072052 
	C263.176239,470.164551 262.403473,472.572021 265.329834,477.630585 
	C269.905396,485.539978 274.624756,493.366180 279.713776,501.823914 
M132.788651,611.323669 
	C133.596741,610.486755 134.457932,609.694458 135.204681,608.805969 
	C142.610367,599.994751 143.487106,587.051025 137.331085,577.741760 
	C130.908249,568.029053 118.628822,563.689026 107.553398,567.217102 
	C96.654137,570.689148 89.076500,581.047485 89.373291,592.518372 
	C89.638840,602.781311 94.926910,610.296631 103.755638,614.825806 
	C113.644928,619.899048 123.356178,618.498535 132.788651,611.323669 
M180.433243,616.067749 
	C195.328445,610.324646 201.872391,593.841797 194.709274,580.109314 
	C188.443100,568.096375 173.729599,562.736572 161.478882,568.004272 
	C148.562119,573.558228 142.265106,587.649048 146.883102,600.516602 
	C150.980865,611.934570 165.169342,621.480347 180.433243,616.067749 
M289.118195,616.861328 
	C293.679138,616.460938 295.370148,613.759521 295.309753,609.425781 
	C295.230835,603.761414 295.109222,598.083984 295.394989,592.431885 
	C295.694977,586.498291 298.810150,583.674316 304.160431,583.848083 
	C309.213348,584.012207 311.809265,586.903931 311.939178,592.834717 
	C312.063202,598.498230 311.881866,604.169006 312.032501,609.831238 
	C312.172577,615.096924 314.281036,616.838928 320.112823,616.932129 
	C326.012787,617.026489 328.448639,615.387939 328.573822,610.256714 
	C328.752319,602.940186 328.900513,595.558594 328.159607,588.296814 
	C326.305725,570.126404 310.536896,562.473816 295.329071,572.052063 
	C293.254822,567.481689 289.617249,566.053894 283.797821,567.274658 
	C279.264801,568.225647 278.823944,571.463440 278.843567,575.222473 
	C278.900146,586.054382 278.843597,596.886902 278.868988,607.719055 
	C278.887390,615.567322 280.147858,616.770813 289.118195,616.861328 
M221.384460,512.171875 
	C229.341400,517.126831 237.982697,517.727295 246.877930,515.870605 
	C255.533844,514.063965 259.561890,509.387878 259.928101,501.303192 
	C260.302490,493.036865 256.992676,488.408875 248.389236,485.600494 
	C245.725525,484.730988 242.833984,484.566284 240.158264,483.724457 
	C238.222321,483.115387 236.470505,481.921051 233.615631,480.468140 
	C239.646149,476.909821 244.004013,478.555023 248.357651,480.082336 
	C252.601822,481.571289 254.830368,480.272888 256.954437,475.380310 
	C258.749084,471.246643 256.869141,469.268555 253.198273,467.822418 
	C247.022354,465.389496 240.770218,464.408966 234.171127,465.661102 
	C225.288040,467.346680 221.014496,471.054871 220.161438,478.123505 
	C219.178268,486.270050 222.695679,492.615051 230.495209,496.033173 
	C233.502182,497.351013 236.826263,497.931732 239.972870,498.950226 
	C241.535538,499.456085 243.023590,500.192383 244.545395,500.824463 
	C244.493484,501.312988 244.441589,501.801514 244.389679,502.290070 
	C242.581818,502.648926 240.647629,503.597412 238.992599,503.242828 
	C235.641418,502.524811 232.394928,501.216980 229.192795,499.933929 
	C226.168274,498.722046 223.315048,498.090271 221.329758,501.416016 
	C219.349213,504.733856 216.184753,508.119385 221.384460,512.171875 
M260.943604,616.925049 
	C269.098175,617.038635 271.126007,615.895935 271.203461,610.260681 
	C271.370209,598.128723 271.346283,585.991455 271.197784,573.858887 
	C271.137146,568.901611 268.691223,567.139954 262.830383,567.130127 
	C257.185577,567.120667 254.994156,568.764893 254.938965,573.742981 
	C254.804428,585.876160 254.912399,598.011841 254.872513,610.146362 
	C254.860474,613.811157 256.321259,616.199463 260.943604,616.925049 
M270.247498,557.782532 
	C270.566315,556.682373 271.058960,555.600403 271.176483,554.479187 
	C272.111908,545.553833 268.155304,542.080872 259.464661,544.082397 
	C256.150208,544.845764 254.853073,547.067261 254.907349,550.244934 
	C254.968109,553.800354 253.868027,558.515869 258.408386,559.534973 
	C261.963776,560.333008 266.014252,558.925110 270.247498,557.782532 
z"/>
<path fill="#83DEE4" opacity="1.000000" stroke="none" 
	d="
M71.795929,400.440063 
	C57.834991,394.682159 52.483807,383.145447 55.219803,366.802734 
	C60.315872,336.362762 65.092224,305.869324 70.025536,275.402008 
	C73.632607,253.125290 76.958946,230.796356 81.023453,208.602966 
	C83.540840,194.857361 93.740051,187.083786 107.608650,186.976807 
	C115.606316,186.915115 123.607704,187.085220 131.601501,186.898331 
	C134.635605,186.827393 136.521423,187.620346 137.821381,190.542526 
	C140.177155,195.838120 142.908112,200.966812 145.911407,207.031387 
	C140.187790,207.031387 135.139297,207.028839 130.090820,207.031860 
	C114.777939,207.041031 107.379486,212.806412 104.613388,227.977936 
	C101.459053,245.278839 98.886940,262.686157 96.109627,280.054932 
	C95.903580,281.343536 96.082588,282.693726 96.082588,285.410370 
	C98.639130,284.424194 101.016945,284.071320 102.665916,282.784515 
	C121.420532,268.148773 140.061142,253.366928 158.745407,238.640869 
	C159.615219,237.955322 160.609314,237.427429 161.884872,236.608154 
	C164.874634,241.724091 167.886536,246.483597 170.379684,251.500870 
	C170.838379,252.423965 169.591721,254.881775 168.458664,255.800964 
	C158.382309,263.975250 148.149078,271.956024 137.976807,280.012421 
	C136.430817,281.236816 134.960312,282.556549 132.164444,284.925690 
	C137.331680,284.925690 141.027328,284.767883 144.705109,284.957184 
	C153.478699,285.408722 162.458740,285.007111 170.963715,286.803925 
	C184.844131,289.736389 194.721939,298.934998 202.312424,310.664154 
	C203.275787,312.152771 204.336441,313.578430 205.712830,315.550140 
	C220.111008,298.966248 234.101822,282.851593 248.261612,266.542267 
	C246.322632,265.014893 244.914108,263.905334 243.125504,262.496399 
	C246.260544,257.049652 249.378967,251.631821 252.799576,245.688934 
	C273.466797,259.408325 296.011047,265.220703 321.084656,263.711456 
	C319.569275,254.035431 318.124695,244.749924 316.656189,235.468201 
	C316.137665,232.191162 315.586212,228.918823 315.005676,225.652191 
	C313.013062,214.439255 304.466248,207.180054 293.024658,207.047989 
	C287.036621,206.978867 281.047089,207.035797 274.065613,207.035797 
	C277.432983,200.337692 280.481781,194.188400 283.653351,188.103119 
	C283.952118,187.529861 285.029968,187.035645 285.735016,187.050034 
	C297.029572,187.280167 308.476471,186.556046 319.571625,188.195267 
	C330.357880,189.788895 337.119659,197.553909 338.953705,208.459366 
	C343.824829,237.423767 348.360443,266.444550 353.044220,295.440491 
	C356.933990,319.520691 360.696625,343.622711 364.796509,367.667175 
	C367.668671,384.511475 360.600342,397.194061 345.306305,401.303528 
	C342.785461,401.980896 340.043518,402.039093 337.403625,402.040192 
	C252.423401,402.075928 167.443176,402.086609 82.463028,402.007172 
	C79.028572,402.003967 75.594978,401.089386 71.795929,400.440063 
M160.717316,304.683411 
	C159.238464,304.493622 157.759888,304.141205 156.280701,304.138580 
	C135.963928,304.102478 115.647064,304.108551 95.330254,304.133759 
	C94.375267,304.134949 93.420624,304.411591 92.261421,304.591705 
	C89.493393,321.760437 86.296104,338.720459 84.136406,355.811554 
	C82.063477,372.216003 91.483070,381.991089 108.173157,381.995392 
	C145.309677,382.004883 182.446198,382.001343 219.582718,381.988617 
	C221.281433,381.988037 222.980118,381.846008 225.543716,381.731049 
	C210.459290,358.965790 196.223312,336.892914 181.288208,315.303650 
	C176.873672,308.922302 169.658905,305.492920 160.717316,304.683411 
M286.500000,382.000427 
	C295.990723,381.995728 305.483826,382.122345 314.971527,381.951111 
	C325.436310,381.762238 335.514801,373.476471 335.847229,364.108276 
	C336.090240,357.260590 334.939880,350.363464 334.418518,343.591309 
	C297.030609,343.591309 260.749207,343.591309 223.932053,343.591309 
	C232.033661,355.996704 239.663605,367.885773 247.602402,379.564880 
	C248.551758,380.961548 251.168182,381.857391 253.033691,381.894684 
	C263.852203,382.110901 274.677185,382.000397 286.500000,382.000427 
M322.820679,283.278229 
	C310.911011,282.509491 298.943420,282.219940 287.113678,280.790100 
	C280.155426,279.949097 273.416077,277.296936 266.508087,275.440521 
	C252.692612,291.382660 238.959976,307.229187 224.821625,323.543915 
	C260.779236,323.543915 295.601868,323.543915 330.622864,323.543915 
	C329.654083,316.913330 328.895905,310.667664 327.796906,304.482544 
	C326.558411,297.512360 325.012970,290.596710 322.820679,283.278229 
z"/>
<path fill="#83DEE4" opacity="1.000000" stroke="none" 
	d="
M154.715210,200.283905 
	C143.845612,178.883087 133.553757,157.677963 126.356285,135.038040 
	C115.601952,101.209984 130.856918,63.761505 157.513702,44.254723 
	C194.377869,17.278397 244.544296,21.971127 275.123718,55.898388 
	C291.222687,73.759842 299.678192,95.225655 296.532166,119.171562 
	C294.680634,133.264771 289.423950,147.181839 283.990814,160.480347 
	C269.917877,194.926285 251.056549,226.939362 231.880096,258.736938 
	C230.333649,261.301208 228.909470,263.971191 227.095795,266.336975 
	C217.574829,278.756104 200.181885,278.156311 191.827957,264.580170 
	C181.105988,247.155624 171.104706,229.286987 160.837967,211.583557 
	C158.751648,207.986008 156.865494,204.272385 154.715210,200.283905 
M250.638504,147.128494 
	C269.721558,125.293159 263.479614,87.637520 238.205307,72.122711 
	C220.088364,61.001503 196.760849,61.145924 180.693436,72.890915 
	C162.439850,86.233955 154.510010,104.428520 159.372940,126.511543 
	C163.939240,147.247528 177.565765,160.880081 198.438980,165.505493 
	C218.919327,170.043839 236.505737,163.965729 250.638504,147.128494 
z"/>
<path fill="#030303" opacity="1.000000" stroke="none" 
	d="
M148.681244,515.997681 
	C136.062332,516.003723 123.907494,516.052063 111.753288,515.984741 
	C104.520004,515.944580 102.901924,514.335022 102.881111,507.171204 
	C102.831291,490.021759 102.813995,472.871857 102.888329,455.722565 
	C102.921089,448.164856 104.394226,446.686096 112.011551,446.623230 
	C124.331741,446.521576 136.653931,446.535034 148.974274,446.630768 
	C155.308823,446.680023 156.985321,448.494659 157.023590,454.697632 
	C157.064255,461.288269 155.434021,463.090118 148.928345,463.203491 
	C139.456558,463.368591 129.982437,463.398254 120.509445,463.498260 
	C120.367004,463.499756 120.226250,463.662903 119.848465,463.896942 
	C119.848465,466.667969 119.848465,469.586212 119.848465,472.942291 
	C126.318245,472.942291 132.612289,472.881683 138.904617,472.960114 
	C144.681122,473.032104 146.548172,474.999939 146.687103,480.865967 
	C146.831955,486.982666 144.922623,489.421417 139.138519,489.637268 
	C132.846329,489.872070 126.538589,489.690552 119.927254,489.690552 
	C119.927254,492.915955 119.927254,495.790314 119.927254,499.145782 
	C129.259842,499.145782 138.551376,499.417450 147.819702,499.070221 
	C157.301285,498.714966 158.124924,504.570709 156.361359,512.076599 
	C155.494125,515.767639 152.250275,515.960144 148.681244,515.997681 
z"/>
<path fill="#050505" opacity="1.000000" stroke="none" 
	d="
M344.105042,609.926636 
	C332.859467,598.611023 332.605530,583.692749 343.216766,573.501404 
	C351.172821,565.860168 359.263885,565.136963 368.448364,571.361511 
	C370.870331,565.707458 375.802490,566.512268 380.257782,567.318298 
	C385.080658,568.190735 384.713623,572.511230 384.689148,576.135254 
	C384.594879,590.099487 384.862274,604.090820 384.053833,618.017395 
	C383.471252,628.054260 376.743713,634.129944 367.536835,637.121643 
	C357.934692,640.241943 349.067993,638.018799 341.466309,631.614075 
	C338.180908,628.845886 340.027222,625.481628 342.144653,622.743469 
	C344.192413,620.095398 346.364868,617.249268 350.378479,619.745483 
	C351.365082,620.359131 352.337128,621.009644 353.373566,621.527710 
	C361.980255,625.829895 368.138824,621.934814 368.042694,611.994019 
	C359.670135,617.020203 351.753937,616.618347 344.105042,609.926636 
M357.351349,583.725525 
	C351.796417,586.686096 350.079010,591.479004 353.138916,595.682922 
	C355.724182,599.234741 359.297668,600.224731 363.169617,598.443726 
	C366.602631,596.864502 368.331451,593.821411 367.610504,589.912964 
	C366.778015,585.399597 363.537170,583.306030 357.351349,583.725525 
z"/>
<path fill="#030303" opacity="1.000000" stroke="none" 
	d="
M73.083511,570.794556 
	C88.123222,581.556702 88.400040,601.316528 74.411125,612.337891 
	C67.055893,618.132751 58.901890,618.326111 52.973900,613.950317 
	C48.361065,615.122070 44.931404,616.519836 41.424999,616.750427 
	C37.056183,617.037598 34.843796,614.428162 34.857437,609.873535 
	C34.916294,590.223206 34.830502,570.572388 34.909199,550.922180 
	C34.931175,545.434143 36.802502,543.929016 42.816483,543.872070 
	C49.191093,543.811707 51.101444,545.292419 51.236420,550.945129 
	C51.391037,557.420349 51.272259,563.902100 51.272259,571.118652 
	C58.596233,565.914795 65.706787,566.020264 73.083511,570.794556 
M61.145386,600.027954 
	C66.882484,597.865845 69.303246,593.764587 67.536659,589.199768 
	C66.020920,585.283081 62.062580,583.052063 57.932899,584.097900 
	C53.675724,585.176086 51.693188,588.237000 51.763981,592.517700 
	C51.838360,597.015076 54.858372,599.595520 61.145386,600.027954 
z"/>
<path fill="#020202" opacity="1.000000" stroke="none" 
	d="
M245.257309,581.014404 
	C241.302536,584.807068 237.548508,588.287659 233.411591,592.123230 
	C237.475937,595.499695 241.424393,598.729004 245.315781,602.025574 
	C250.112427,606.089050 250.326218,608.301147 246.537445,613.363037 
	C242.944412,618.163330 240.215668,618.757690 235.242264,614.881470 
	C230.928513,611.519409 227.106201,607.528076 223.047073,603.836426 
	C222.447906,603.291504 221.740463,602.865723 220.231079,601.761414 
	C220.231079,605.231079 220.383728,607.990845 220.197449,610.727600 
	C219.868332,615.562927 217.841858,617.022156 211.943405,616.988464 
	C206.145630,616.955322 203.976669,615.421021 203.948578,610.473511 
	C203.834106,590.318298 203.834793,570.161743 203.950790,550.006592 
	C203.978241,545.239929 206.052353,543.764038 211.559677,543.693054 
	C217.823578,543.612366 220.048492,545.059875 220.172546,550.042419 
	C220.388031,558.699219 220.273758,567.364258 220.296127,576.025879 
	C220.300232,577.617493 220.296677,579.209106 220.296677,581.867004 
	C224.506897,578.090576 227.628967,574.628296 231.399338,572.153748 
	C233.701675,570.642700 237.726028,569.255615 239.695236,570.279114 
	C243.321213,572.163574 246.610229,575.548340 245.257309,581.014404 
z"/>
<path fill="#050505" opacity="1.000000" stroke="none" 
	d="
M173.306305,470.201080 
	C182.334259,464.708099 188.532745,464.839722 194.766510,469.804626 
	C197.958481,468.416016 200.576797,466.531555 203.376877,466.204803 
	C210.508301,465.372681 212.706741,467.611725 212.752228,474.878387 
	C212.818863,485.527100 212.828003,496.177063 212.736130,506.825409 
	C212.706635,510.245331 213.083176,513.995300 208.565964,515.386536 
	C203.678055,516.891968 199.126587,515.627502 196.295181,511.793091 
	C185.888550,517.914734 177.083450,516.712891 169.229935,508.098724 
	C161.027679,499.102112 160.087219,485.864960 167.152115,476.512390 
	C168.839035,474.279266 171.038025,472.432892 173.306305,470.201080 
M185.063721,483.061981 
	C179.705475,485.935394 177.812057,489.853058 179.736740,494.084106 
	C181.458527,497.869171 185.669250,499.914764 189.548279,498.850555 
	C193.371780,497.801575 195.849106,493.736664 195.184174,489.602814 
	C194.463608,485.123047 191.460007,482.984863 185.063721,483.061981 
z"/>
<path fill="#040404" opacity="1.000000" stroke="none" 
	d="
M279.498474,501.525757 
	C274.624756,493.366180 269.905396,485.539978 265.329834,477.630585 
	C262.403473,472.572021 263.176239,470.164551 268.352631,467.072052 
	C273.695435,463.880127 276.381683,464.444305 279.487030,469.579102 
	C283.668274,476.492859 287.769318,483.455078 292.192596,490.879578 
	C295.627289,483.377228 298.644318,476.596100 301.828766,469.894470 
	C304.204071,464.895752 306.767609,464.225769 312.405182,466.807953 
	C317.566284,469.171967 318.834747,471.676422 316.663910,476.585083 
	C308.206848,495.708008 299.643982,514.784546 291.028351,533.836670 
	C288.859406,538.633057 286.196045,539.328979 280.821381,536.981567 
	C275.508423,534.661011 274.273560,532.265747 276.150726,527.437073 
	C277.472351,524.037476 278.596375,520.449341 280.560516,517.435364 
	C284.208405,511.837708 284.091400,506.807495 279.498474,501.525757 
z"/>
<path fill="#040404" opacity="1.000000" stroke="none" 
	d="
M132.521759,611.563599 
	C123.356178,618.498535 113.644928,619.899048 103.755638,614.825806 
	C94.926910,610.296631 89.638840,602.781311 89.373291,592.518372 
	C89.076500,581.047485 96.654137,570.689148 107.553398,567.217102 
	C118.628822,563.689026 130.908249,568.029053 137.331085,577.741760 
	C143.487106,587.051025 142.610367,599.994751 135.204681,608.805969 
	C134.457932,609.694458 133.596741,610.486755 132.521759,611.563599 
M106.261017,590.830078 
	C107.410202,593.608093 107.892326,597.059875 109.861534,599.009705 
	C112.982651,602.100098 117.132751,601.807007 120.809319,599.188293 
	C124.555756,596.519714 125.305473,592.775146 124.035149,588.635498 
	C122.813675,584.655029 119.682373,582.860107 115.709747,582.821960 
	C110.815071,582.774841 107.545990,585.120667 106.261017,590.830078 
z"/>
<path fill="#040404" opacity="1.000000" stroke="none" 
	d="
M180.053619,616.190308 
	C165.169342,621.480347 150.980865,611.934570 146.883102,600.516602 
	C142.265106,587.649048 148.562119,573.558228 161.478882,568.004272 
	C173.729599,562.736572 188.443100,568.096375 194.709274,580.109314 
	C201.872391,593.841797 195.328445,610.324646 180.053619,616.190308 
M173.930466,583.028076 
	C169.002350,582.248535 164.907761,583.476685 162.939957,588.412598 
	C161.316513,592.484680 162.134720,596.307312 165.695694,599.121887 
	C169.981995,602.509766 176.242584,601.346008 179.191452,596.766541 
	C182.247955,592.019958 180.448944,586.558350 173.930466,583.028076 
z"/>
<path fill="#040404" opacity="1.000000" stroke="none" 
	d="
M288.699097,616.883240 
	C280.147858,616.770813 278.887390,615.567322 278.868988,607.719055 
	C278.843597,596.886902 278.900146,586.054382 278.843567,575.222473 
	C278.823944,571.463440 279.264801,568.225647 283.797821,567.274658 
	C289.617249,566.053894 293.254822,567.481689 295.329071,572.052063 
	C310.536896,562.473816 326.305725,570.126404 328.159607,588.296814 
	C328.900513,595.558594 328.752319,602.940186 328.573822,610.256714 
	C328.448639,615.387939 326.012787,617.026489 320.112823,616.932129 
	C314.281036,616.838928 312.172577,615.096924 312.032501,609.831238 
	C311.881866,604.169006 312.063202,598.498230 311.939178,592.834717 
	C311.809265,586.903931 309.213348,584.012207 304.160431,583.848083 
	C298.810150,583.674316 295.694977,586.498291 295.394989,592.431885 
	C295.109222,598.083984 295.230835,603.761414 295.309753,609.425781 
	C295.370148,613.759521 293.679138,616.460938 288.699097,616.883240 
z"/>
<path fill="#050505" opacity="1.000000" stroke="none" 
	d="
M221.045959,512.025879 
	C216.184753,508.119385 219.349213,504.733856 221.329758,501.416016 
	C223.315048,498.090271 226.168274,498.722046 229.192795,499.933929 
	C232.394928,501.216980 235.641418,502.524811 238.992599,503.242828 
	C240.647629,503.597412 242.581818,502.648926 244.389679,502.290070 
	C244.441589,501.801514 244.493484,501.312988 244.545395,500.824463 
	C243.023590,500.192383 241.535538,499.456085 239.972870,498.950226 
	C236.826263,497.931732 233.502182,497.351013 230.495209,496.033173 
	C222.695679,492.615051 219.178268,486.270050 220.161438,478.123505 
	C221.014496,471.054871 225.288040,467.346680 234.171127,465.661102 
	C240.770218,464.408966 247.022354,465.389496 253.198273,467.822418 
	C256.869141,469.268555 258.749084,471.246643 256.954437,475.380310 
	C254.830368,480.272888 252.601822,481.571289 248.357651,480.082336 
	C244.004013,478.555023 239.646149,476.909821 233.615631,480.468140 
	C236.470505,481.921051 238.222321,483.115387 240.158264,483.724457 
	C242.833984,484.566284 245.725525,484.730988 248.389236,485.600494 
	C256.992676,488.408875 260.302490,493.036865 259.928101,501.303192 
	C259.561890,509.387878 255.533844,514.063965 246.877930,515.870605 
	C237.982697,517.727295 229.341400,517.126831 221.045959,512.025879 
z"/>
<path fill="#020202" opacity="1.000000" stroke="none" 
	d="
M260.522614,616.882202 
	C256.321259,616.199463 254.860474,613.811157 254.872513,610.146362 
	C254.912399,598.011841 254.804428,585.876160 254.938965,573.742981 
	C254.994156,568.764893 257.185577,567.120667 262.830383,567.130127 
	C268.691223,567.139954 271.137146,568.901611 271.197784,573.858887 
	C271.346283,585.991455 271.370209,598.128723 271.203461,610.260681 
	C271.126007,615.895935 269.098175,617.038635 260.522614,616.882202 
z"/>
<path fill="#040404" opacity="1.000000" stroke="none" 
	d="
M270.046143,558.139893 
	C266.014252,558.925110 261.963776,560.333008 258.408386,559.534973 
	C253.868027,558.515869 254.968109,553.800354 254.907349,550.244934 
	C254.853073,547.067261 256.150208,544.845764 259.464661,544.082397 
	C268.155304,542.080872 272.111908,545.553833 271.176483,554.479187 
	C271.058960,555.600403 270.566315,556.682373 270.046143,558.139893 
z"/>
<path fill="#FEFFFF" opacity="1.000000" stroke="none" 
	d="
M161.148712,304.756531 
	C169.658905,305.492920 176.873672,308.922302 181.288208,315.303650 
	C196.223312,336.892914 210.459290,358.965790 225.543716,381.731049 
	C222.980118,381.846008 221.281433,381.988037 219.582718,381.988617 
	C182.446198,382.001343 145.309677,382.004883 108.173157,381.995392 
	C91.483070,381.991089 82.063477,372.216003 84.136406,355.811554 
	C86.296104,338.720459 89.493393,321.760437 92.261421,304.591705 
	C93.420624,304.411591 94.375267,304.134949 95.330254,304.133759 
	C115.647064,304.108551 135.963928,304.102478 156.280701,304.138580 
	C157.759888,304.141205 159.238464,304.493622 161.148712,304.756531 
z"/>
<path fill="#FDFFFF" opacity="1.000000" stroke="none" 
	d="
M286.000000,382.000427 
	C274.677185,382.000397 263.852203,382.110901 253.033691,381.894684 
	C251.168182,381.857391 248.551758,380.961548 247.602402,379.564880 
	C239.663605,367.885773 232.033661,355.996704 223.932053,343.591309 
	C260.749207,343.591309 297.030609,343.591309 334.418518,343.591309 
	C334.939880,350.363464 336.090240,357.260590 335.847229,364.108276 
	C335.514801,373.476471 325.436310,381.762238 314.971527,381.951111 
	C305.483826,382.122345 295.990723,381.995728 286.000000,382.000427 
z"/>
<path fill="#FDFFFF" opacity="1.000000" stroke="none" 
	d="
M323.210876,283.467773 
	C325.012970,290.596710 326.558411,297.512360 327.796906,304.482544 
	C328.895905,310.667664 329.654083,316.913330 330.622864,323.543915 
	C295.601868,323.543915 260.779236,323.543915 224.821625,323.543915 
	C238.959976,307.229187 252.692612,291.382660 266.508087,275.440521 
	C273.416077,277.296936 280.155426,279.949097 287.113678,280.790100 
	C298.943420,282.219940 310.911011,282.509491 323.210876,283.467773 
z"/>
<path fill="#FEFFFF" opacity="1.000000" stroke="none" 
	d="
M250.426147,147.416107 
	C236.505737,163.965729 218.919327,170.043839 198.438980,165.505493 
	C177.565765,160.880081 163.939240,147.247528 159.372940,126.511543 
	C154.510010,104.428520 162.439850,86.233955 180.693436,72.890915 
	C196.760849,61.145924 220.088364,61.001503 238.205307,72.122711 
	C263.479614,87.637520 269.721558,125.293159 250.426147,147.416107 
M215.591354,87.661835 
	C197.803787,84.049042 180.263199,98.602905 181.107483,116.273933 
	C181.806778,130.910294 193.953903,143.258362 208.323593,143.940292 
	C223.652802,144.667755 236.535583,134.012680 238.627701,118.009552 
	C240.378693,104.615860 230.158646,90.472397 215.591354,87.661835 
z"/>
<path fill="#F8F8F8" opacity="1.000000" stroke="none" 
	d="
M357.720581,583.615723 
	C363.537170,583.306030 366.778015,585.399597 367.610504,589.912964 
	C368.331451,593.821411 366.602631,596.864502 363.169617,598.443726 
	C359.297668,600.224731 355.724182,599.234741 353.138916,595.682922 
	C350.079010,591.479004 351.796417,586.686096 357.720581,583.615723 
z"/>
<path fill="#F8F8F8" opacity="1.000000" stroke="none" 
	d="
M60.739754,600.073975 
	C54.858372,599.595520 51.838360,597.015076 51.763981,592.517700 
	C51.693188,588.237000 53.675724,585.176086 57.932899,584.097900 
	C62.062580,583.052063 66.020920,585.283081 67.536659,589.199768 
	C69.303246,593.764587 66.882484,597.865845 60.739754,600.073975 
z"/>
<path fill="#F9F9F9" opacity="1.000000" stroke="none" 
	d="
M185.464020,483.015137 
	C191.460007,482.984863 194.463608,485.123047 195.184174,489.602814 
	C195.849106,493.736664 193.371780,497.801575 189.548279,498.850555 
	C185.669250,499.914764 181.458527,497.869171 179.736740,494.084106 
	C177.812057,489.853058 179.705475,485.935394 185.464020,483.015137 
z"/>
<path fill="#F9F9F9" opacity="1.000000" stroke="none" 
	d="
M106.355774,590.454834 
	C107.545990,585.120667 110.815071,582.774841 115.709747,582.821960 
	C119.682373,582.860107 122.813675,584.655029 124.035149,588.635498 
	C125.305473,592.775146 124.555756,596.519714 120.809319,599.188293 
	C117.132751,601.807007 112.982651,602.100098 109.861534,599.009705 
	C107.892326,597.059875 107.410202,593.608093 106.355774,590.454834 
z"/>
<path fill="#F9F9F9" opacity="1.000000" stroke="none" 
	d="
M174.326691,583.114258 
	C180.448944,586.558350 182.247955,592.019958 179.191452,596.766541 
	C176.242584,601.346008 169.981995,602.509766 165.695694,599.121887 
	C162.134720,596.307312 161.316513,592.484680 162.939957,588.412598 
	C164.907761,583.476685 169.002350,582.248535 174.326691,583.114258 
z"/>
<path fill="#83DEE4" opacity="1.000000" stroke="none" 
	d="
M216.001923,87.754257 
	C230.158646,90.472397 240.378693,104.615860 238.627701,118.009552 
	C236.535583,134.012680 223.652802,144.667755 208.323593,143.940292 
	C193.953903,143.258362 181.806778,130.910294 181.107483,116.273933 
	C180.263199,98.602905 197.803787,84.049042 216.001923,87.754257 
z"/>
</svg>