<svg width="63" height="56" viewBox="0 0 63 56" fill="none" xmlns="http://www.w3.org/2000/svg">
<circle cx="20.1" cy="19.2" r="19.2" fill="#00CEE0"/>
<path fill-rule="evenodd" clip-rule="evenodd" d="M19.4333 21.3333C19.4333 18.0933 22.0599 15.4667 25.3 15.4667H47.7C50.9401 15.4667 53.5667 18.0933 53.5667 21.3333V39.4667C53.5667 42.7067 50.9401 45.3333 47.7 45.3333H25.3C22.0599 45.3333 19.4333 42.7067 19.4333 39.4667V21.3333ZM22.6784 20.8427C22.6488 21.0017 22.6333 21.1657 22.6333 21.3333V39.4667C22.6333 40.9394 23.8273 42.1333 25.3 42.1333H47.7C49.1728 42.1333 50.3667 40.9394 50.3667 39.4667V21.3333C50.3667 21.1657 50.3512 21.0017 50.3216 20.8427L37.5601 32.1317C36.9548 32.6672 36.0452 32.6672 35.4399 32.1317L22.6784 20.8427ZM25.0602 18.6773L36.5 28.7972L47.9398 18.6773C47.8608 18.6703 47.7808 18.6667 47.7 18.6667H25.3C25.2192 18.6667 25.1392 18.6703 25.0602 18.6773Z" fill="#0F172A"/>
</svg>
