<svg width="63" height="56" viewBox="0 0 63 56" fill="none" xmlns="http://www.w3.org/2000/svg">
<circle cx="20.1" cy="19.2" r="19.2" fill="#FF6868"/>
<path fill-rule="evenodd" clip-rule="evenodd" d="M38.8905 18.0119C37.9073 16.0492 35.1063 16.0487 34.1224 18.0111L22.8946 40.4047C22.0055 42.1779 23.2948 44.2666 25.2784 44.2666H47.7237C49.7069 44.2666 50.9961 42.1788 50.1079 40.4056L38.8905 18.0119ZM31.2618 16.5768C33.4263 12.2596 39.5886 12.2608 41.7516 16.5787L52.969 38.9724C54.9231 42.8734 52.0867 47.4666 47.7237 47.4666H25.2784C20.9144 47.4666 18.0781 42.8716 20.034 38.9705L31.2618 16.5768Z" fill="#0F172A"/>
<path fill-rule="evenodd" clip-rule="evenodd" d="M36.4996 23.9999C37.6778 23.9999 38.633 24.955 38.633 26.1332V30.3999C38.633 31.5781 37.6778 32.5332 36.4996 32.5332C35.3214 32.5332 34.3663 31.5781 34.3663 30.3999V26.1332C34.3663 24.955 35.3214 23.9999 36.4996 23.9999Z" fill="#0F172A"/>
<path fill-rule="evenodd" clip-rule="evenodd" d="M34.3663 38.9332C34.3663 37.755 35.3214 36.7999 36.4996 36.7999C37.6778 36.7999 38.633 37.755 38.633 38.9332C38.633 40.1115 37.6778 41.0666 36.4996 41.0666C35.3214 41.0666 34.3663 40.1115 34.3663 38.9332Z" fill="#0F172A"/>
</svg>
