<svg width="24" height="24" viewBox="0 0 24 24" fill="none" xmlns="http://www.w3.org/2000/svg">
<path fill-rule="evenodd" clip-rule="evenodd" d="M19.7803 4.21967C20.0732 4.51256 20.0732 4.98744 19.7803 5.28033L14.1228 10.9379C14.1223 10.9384 14.1218 10.9389 14.1213 10.9393C14.1208 10.9398 14.1203 10.9403 14.1199 10.9408L10.9408 14.1199C10.9403 14.1203 10.9398 14.1208 10.9393 14.1213C10.9389 14.1218 10.9384 14.1223 10.9379 14.1228L5.28033 19.7803C4.98744 20.0732 4.51256 20.0732 4.21967 19.7803C3.92678 19.4874 3.92678 19.0126 4.21967 18.7197L6.30553 16.6338C5.49848 15.7981 4.93971 14.8688 4.57709 14.0647C4.20196 13.2328 4 12.4514 4 12C4 11.6099 4.14929 10.9906 4.41184 10.326C4.68428 9.63636 5.10865 8.82132 5.72187 8.03777C6.95822 6.45799 8.97359 5 12 5C13.8816 5 15.3844 5.56526 16.5528 6.38657L18.7197 4.21967C19.0126 3.92678 19.4874 3.92678 19.7803 4.21967ZM15.472 7.4673C14.5764 6.89385 13.4395 6.5 12 6.5C9.52641 6.5 7.91678 7.66701 6.90313 8.96223C6.39135 9.61618 6.03447 10.3011 5.80691 10.8771C5.56946 11.4782 5.5 11.8901 5.5 12C5.5 12.14 5.60409 12.6932 5.94448 13.448C6.24853 14.1223 6.71193 14.89 7.36639 15.5729L9.41518 13.5242C8.73573 12.3737 8.89023 10.8671 9.87868 9.87868C10.8671 8.89023 12.3737 8.73573 13.5242 9.41518L15.472 7.4673ZM12.3884 10.5509C11.888 10.4173 11.3319 10.5468 10.9393 10.9393C10.5467 11.3319 10.4173 11.888 10.5509 12.3884L12.3884 10.5509ZM18.2949 9.32639C18.6669 9.14426 19.1161 9.29821 19.2983 9.67023C19.5368 10.1575 19.7087 10.6161 19.8222 11.0046C19.931 11.3771 20 11.7321 20 12C20 12.3901 19.8507 13.0094 19.5882 13.674C19.3157 14.3636 18.8913 15.1787 18.2781 15.9622C17.0418 17.542 15.0264 19 12 19C11.2044 19 10.4733 18.8989 9.80404 18.7178C9.40422 18.6095 9.16783 18.1977 9.27605 17.7978C9.38428 17.398 9.79613 17.1616 10.196 17.2699C10.7337 17.4154 11.3328 17.5 12 17.5C14.4736 17.5 16.0832 16.333 17.0969 15.0378C17.6087 14.3838 17.9655 13.6989 18.1931 13.1229C18.4305 12.5218 18.5 12.1099 18.5 12C18.5 11.9424 18.4763 11.7467 18.3824 11.4252C18.2932 11.1197 18.1524 10.7411 17.951 10.3298C17.7689 9.95774 17.9229 9.50851 18.2949 9.32639Z" fill="#111827"/>
</svg>
