<svg width="24" height="24" viewBox="0 0 24 24" fill="none" xmlns="http://www.w3.org/2000/svg">
<path d="M22 12C22 6.47698 17.5226 2 12 2C6.47737 2 2 6.47698 2 12C2 16.9911 5.65703 21.1284 10.4374 21.8785V14.8907H7.89828V12H10.4374V9.79703C10.4374 7.29061 11.9306 5.9064 14.2144 5.9064C15.3086 5.9064 16.4529 6.1037 16.4529 6.1037V8.56434H15.1922C13.9497 8.56434 13.5626 9.33536 13.5626 10.1261V12.002H16.3357L15.8926 14.8927H13.5614V21.8785C18.343 21.1284 22 16.9911 22 12Z" fill="#1877F2"/>
<path d="M15.8928 14.8906L16.3359 11.9998H13.5615V10.124C13.5615 9.33481 13.9486 8.56221 15.1912 8.56221H16.4519V6.10354C16.4519 6.10354 15.3076 5.90625 14.2134 5.90625C11.9295 5.90625 10.4364 7.29046 10.4364 9.79687V11.9998H7.89844V14.8906H10.4376V21.8783C11.473 22.0404 12.5273 22.0404 13.5627 21.8783V14.8906H15.8928Z" fill="white"/>
</svg>
