<svg width="25" height="25" viewBox="0 0 25 25" fill="none" xmlns="http://www.w3.org/2000/svg">
<path fill-rule="evenodd" clip-rule="evenodd" d="M12.0947 6.44356C10.3766 5.00794 7.85063 4.72194 5.8858 6.32999C3.74068 8.08558 3.41921 11.0645 5.1265 13.1689C5.14908 13.1967 5.17362 13.2229 5.19992 13.2473L11.5811 19.1569C11.8711 19.4255 12.3189 19.4255 12.6089 19.1569L18.9901 13.2473C19.0164 13.2229 19.0409 13.1967 19.0635 13.1689C20.7637 11.0733 20.4914 8.07115 18.2963 6.32357C16.3099 4.74222 13.8109 5.00744 12.0947 6.44356ZM11.5309 7.9972C10.2952 6.61344 8.31305 6.29796 6.84373 7.50046C5.34027 8.73092 5.13578 10.7376 6.26902 12.1759L12.095 17.5714L17.921 12.1759C19.0616 10.729 18.8706 8.71409 17.3542 7.50688C15.8455 6.30575 13.8893 6.61963 12.6591 7.9972C12.5156 8.15787 12.3104 8.24973 12.095 8.24973C11.8796 8.24973 11.6744 8.15787 11.5309 7.9972Z" fill="white"/>
</svg>
