<svg width="44" height="44" viewBox="0 0 44 44" fill="none" xmlns="http://www.w3.org/2000/svg">
<path fill-rule="evenodd" clip-rule="evenodd" d="M21.9929 14.2559C19.7211 12.3575 16.3809 11.9793 13.7828 14.1057C10.9463 16.4271 10.5212 20.3662 12.7788 23.1488C12.8086 23.1856 12.8411 23.2203 12.8759 23.2525L21.3138 31.0669C21.6972 31.422 22.2894 31.422 22.6728 31.0669L31.1108 23.2525C31.1456 23.2203 31.178 23.1856 31.2079 23.1488C33.4561 20.3778 33.096 16.408 30.1933 14.0972C27.5668 12.0061 24.2622 12.3569 21.9929 14.2559ZM21.2474 16.3102C19.6134 14.4805 16.9924 14.0633 15.0495 15.6534C13.0614 17.2805 12.791 19.934 14.2895 21.8358L21.9933 28.9703L29.6971 21.8358C31.2053 19.9225 30.9528 17.2582 28.9477 15.6619C26.9526 14.0736 24.3659 14.4887 22.7392 16.3102C22.5495 16.5227 22.2782 16.6442 21.9933 16.6442C21.7085 16.6442 21.4372 16.5227 21.2474 16.3102Z" fill="#232838"/>
</svg>
