<svg width="20" height="20" viewBox="0 0 20 20" fill="none" xmlns="http://www.w3.org/2000/svg">
<path fill-rule="evenodd" clip-rule="evenodd" d="M8.33325 5.4165C7.6429 5.4165 7.08325 5.97615 7.08325 6.6665C7.08325 7.35686 7.6429 7.9165 8.33325 7.9165C9.02361 7.9165 9.58325 7.35686 9.58325 6.6665C9.58325 5.97615 9.02361 5.4165 8.33325 5.4165ZM5.91201 6.0415C6.18954 4.96324 7.16835 4.1665 8.33325 4.1665C9.49815 4.1665 10.477 4.96324 10.7545 6.0415H16.0416C16.3868 6.0415 16.6666 6.32133 16.6666 6.6665C16.6666 7.01168 16.3868 7.2915 16.0416 7.2915H10.7545C10.477 8.36977 9.49815 9.1665 8.33325 9.1665C7.16835 9.1665 6.18954 8.36977 5.91201 7.2915H3.95825C3.61307 7.2915 3.33325 7.01168 3.33325 6.6665C3.33325 6.32133 3.61307 6.0415 3.95825 6.0415H5.91201ZM12.4999 12.0832C11.8096 12.0832 11.2499 12.6428 11.2499 13.3332C11.2499 14.0235 11.8096 14.5832 12.4999 14.5832C13.1903 14.5832 13.7499 14.0235 13.7499 13.3332C13.7499 12.6428 13.1903 12.0832 12.4999 12.0832ZM10.0787 12.7082C10.3562 11.6299 11.335 10.8332 12.4999 10.8332C13.6648 10.8332 14.6436 11.6299 14.9212 12.7082H16.0416C16.3868 12.7082 16.6666 12.988 16.6666 13.3332C16.6666 13.6783 16.3868 13.9582 16.0416 13.9582H14.9212C14.6436 15.0364 13.6648 15.8332 12.4999 15.8332C11.335 15.8332 10.3562 15.0364 10.0787 13.9582H3.95825C3.61307 13.9582 3.33325 13.6783 3.33325 13.3332C3.33325 12.988 3.61307 12.7082 3.95825 12.7082H10.0787Z" fill="#0F172A"/>
</svg>
