<svg width="63" height="56" viewBox="0 0 63 56" fill="none" xmlns="http://www.w3.org/2000/svg">
<circle cx="20.0999" cy="19.2" r="19.2" fill="#FFB13C"/>
<path fill-rule="evenodd" clip-rule="evenodd" d="M19.4334 19.1997C19.4334 15.9596 22.06 13.333 25.3001 13.333H47.7001C50.9402 13.333 53.5668 15.9596 53.5668 19.1997V26.6663C53.5668 27.55 52.8504 28.2663 51.9668 28.2663C51.0831 28.2663 50.3668 27.55 50.3668 26.6663V19.1997C50.3668 17.7269 49.1728 16.533 47.7001 16.533H25.3001C23.8273 16.533 22.6334 17.7269 22.6334 19.1997V34.3088L25.6341 30.4918C26.933 28.8395 28.9778 28.4534 30.7071 28.6738C31.8269 28.8164 32.9685 29.2245 33.9511 29.8608C35.9825 27.2625 38.2445 24.337 38.4158 24.1154L38.4208 24.1088L38.4209 24.1088L38.4422 24.0816L38.4491 24.0728C40.7375 21.1857 45.0931 21.0971 47.4963 23.8946C48.0721 24.5649 47.9956 25.5751 47.3253 26.1509C46.655 26.7267 45.6448 26.6501 45.069 25.9798C43.9778 24.7096 42.0008 24.7484 40.9599 26.0567L40.9475 26.0725C40.9467 26.0736 40.9457 26.0748 40.9448 26.076C40.7208 26.3658 37.651 30.3359 35.4434 33.1442C35.1476 33.5205 34.6988 33.7446 34.2203 33.755C33.7418 33.7654 33.2837 33.561 32.9719 33.198C32.3872 32.5174 31.3599 31.9828 30.3026 31.8481C29.2383 31.7125 28.5121 32.0085 28.1498 32.4694L22.6334 39.4866V41.5997C22.6334 43.0724 23.8273 44.2663 25.3001 44.2663H30.6334C31.5171 44.2663 32.2334 44.9827 32.2334 45.8663C32.2334 46.75 31.5171 47.4663 30.6334 47.4663H25.3001C22.06 47.4663 19.4334 44.8397 19.4334 41.5997V38.9467C19.4333 38.9369 19.4333 38.927 19.4334 38.9172V19.1997ZM40.3037 36.466C39.9181 37.2038 39.7001 38.0429 39.7001 38.933C39.7001 41.8785 42.0879 44.2663 45.0334 44.2663C45.9235 44.2663 46.7627 44.0483 47.5004 43.6627L40.3037 36.466ZM42.5665 34.2033L49.7631 41.4C50.1487 40.6622 50.3668 39.8231 50.3668 38.933C50.3668 35.9875 47.9789 33.5997 45.0334 33.5997C44.1433 33.5997 43.3042 33.8177 42.5665 34.2033ZM36.5001 38.933C36.5001 34.2202 40.3206 30.3997 45.0334 30.3997C49.7463 30.3997 53.5668 34.2202 53.5668 38.933C53.5668 43.6458 49.7463 47.4663 45.0334 47.4663C40.3206 47.4663 36.5001 43.6458 36.5001 38.933Z" fill="#0F172A"/>
</svg>
