<svg width="24" height="24" viewBox="0 0 24 24" fill="none" xmlns="http://www.w3.org/2000/svg">
<path fill-rule="evenodd" clip-rule="evenodd" d="M8.21967 4.21967C8.51256 3.92678 8.98744 3.92678 9.28033 4.21967L12 6.93934L14.7197 4.21967C15.0126 3.92678 15.4874 3.92678 15.7803 4.21967C16.0732 4.51256 16.0732 4.98744 15.7803 5.28033L14.0607 7H19.25C19.6642 7 20 7.33579 20 7.75V11.25C20 11.6642 19.6642 12 19.25 12H19V17.25C19 18.7688 17.7688 20 16.25 20H7.75C6.23122 20 5 18.7688 5 17.25V12H4.75C4.33579 12 4 11.6642 4 11.25V7.75C4 7.33579 4.33579 7 4.75 7H9.93934L8.21967 5.28033C7.92678 4.98744 7.92678 4.51256 8.21967 4.21967ZM6.5 12V17.25C6.5 17.9404 7.05964 18.5 7.75 18.5H11.25V12H6.5ZM12.75 12V18.5H16.25C16.9404 18.5 17.5 17.9404 17.5 17.25V12H12.75ZM18.5 10.5V8.5H5.5V10.5H18.5Z" fill="#0F172A"/>
</svg>
