<svg width="24" height="24" viewBox="0 0 24 24" fill="none" xmlns="http://www.w3.org/2000/svg">
<path fill-rule="evenodd" clip-rule="evenodd" d="M21.6 12.2222C21.6 11.3999 21.5333 10.7999 21.3889 10.1777H12V13.8888H17.5111C17.4 14.8111 16.8 16.1999 15.4666 17.1332L15.448 17.2575L18.4165 19.5572L18.6222 19.5778C20.5111 17.8333 21.6 15.2666 21.6 12.2222Z" fill="#4285F4"/>
<path fill-rule="evenodd" clip-rule="evenodd" d="M11.9998 22.0002C14.6998 22.0002 16.9664 21.1113 18.622 19.578L15.4664 17.1335C14.622 17.7224 13.4887 18.1335 11.9998 18.1335C9.35537 18.1335 7.11095 16.3891 6.31085 13.978L6.19361 13.988L3.10679 16.3769L3.06641 16.4891C4.71083 19.7557 8.08865 22.0002 11.9998 22.0002Z" fill="#34A853"/>
<path fill-rule="evenodd" clip-rule="evenodd" d="M6.311 13.9778C6.09992 13.3556 5.9777 12.6889 5.9777 12C5.9777 11.3111 6.09986 10.6444 6.2999 10.0222L6.29432 9.8897L3.16886 7.4624L3.06662 7.51106C2.38886 8.86664 2 10.3888 2 12C2 13.6111 2.38892 15.1332 3.06662 16.4888L6.31106 13.9777" fill="#FBBC04"/>
<path fill-rule="evenodd" clip-rule="evenodd" d="M11.9998 5.86658C13.8776 5.86658 15.1442 6.67772 15.8665 7.35555L18.6887 4.59998C16.9554 2.98886 14.6998 2 11.9998 2C8.08865 2 4.71089 4.24442 3.06641 7.51107L6.29975 10.0222C7.11095 7.61115 9.35537 5.86664 11.9998 5.86664" fill="#EA4335"/>
</svg>
