<svg width="25" height="24" viewBox="0 0 25 24" fill="none" xmlns="http://www.w3.org/2000/svg">
<path fill-rule="evenodd" clip-rule="evenodd" d="M12.4999 5.5C11.1192 5.5 9.99988 6.61929 9.99988 8C9.99988 9.38071 11.1192 10.5 12.4999 10.5C13.8806 10.5 14.9999 9.38071 14.9999 8C14.9999 6.61929 13.8806 5.5 12.4999 5.5ZM8.49988 8C8.49988 5.79086 10.2907 4 12.4999 4C14.709 4 16.4999 5.79086 16.4999 8C16.4999 10.2091 14.709 12 12.4999 12C10.2907 12 8.49988 10.2091 8.49988 8ZM8.33257 15.7162C7.4148 16.264 6.86069 16.9679 6.52231 17.6086C6.40279 17.8349 6.44052 18.0134 6.56175 18.1656C6.70289 18.3429 6.98391 18.5 7.34738 18.5H17.6524C18.0158 18.5 18.2969 18.3429 18.438 18.1656C18.5592 18.0134 18.597 17.8349 18.4774 17.6086C18.1391 16.9679 17.585 16.264 16.6672 15.7162C15.7488 15.168 14.4226 14.75 12.4999 14.75C10.5772 14.75 9.25093 15.168 8.33257 15.7162ZM7.56375 14.4282C8.75267 13.7185 10.3546 13.25 12.4999 13.25C14.6452 13.25 16.2471 13.7185 17.436 14.4282C18.6255 15.1382 19.3578 16.0635 19.8038 16.9081C20.2176 17.6916 20.0821 18.5089 19.6114 19.1001C19.1606 19.6662 18.4308 20 17.6524 20H7.34738C6.56893 20 5.83918 19.6662 5.38835 19.1001C4.91761 18.5089 4.78216 17.6916 5.19592 16.9081C5.64197 16.0635 6.37425 15.1382 7.56375 14.4282Z" fill="#64748B"/>
</svg>
