<svg width="20" height="21" viewBox="0 0 20 21" fill="none" xmlns="http://www.w3.org/2000/svg">
<path fill-rule="evenodd" clip-rule="evenodd" d="M9.99571 5.93975C8.57578 4.75329 6.4882 4.51693 4.86437 5.84589C3.09155 7.29679 2.82587 9.75874 4.23685 11.4979C4.25552 11.5209 4.27579 11.5425 4.29753 11.5627L9.57127 16.4467C9.8109 16.6686 10.181 16.6686 10.4206 16.4467L15.6944 11.5627C15.7161 11.5425 15.7364 11.5209 15.755 11.4979C17.1602 9.76596 16.9351 7.28487 15.121 5.84059C13.4794 4.53369 11.414 4.75288 9.99571 5.93975ZM9.52977 7.22375C8.50853 6.08015 6.87036 5.81942 5.65605 6.81323C4.41352 7.83013 4.24452 9.48859 5.18109 10.6772L9.99595 15.1363L14.8108 10.6772C15.7534 9.48142 15.5956 7.81622 14.3424 6.81853C13.0955 5.82586 11.4788 6.08526 10.4621 7.22375C10.3435 7.35654 10.174 7.43245 9.99595 7.43245C9.81792 7.43245 9.64835 7.35654 9.52977 7.22375Z" fill="#64748B"/>
</svg>
