<svg width="32" height="32" viewBox="0 0 32 32" fill="none" xmlns="http://www.w3.org/2000/svg">
<path fill-rule="evenodd" clip-rule="evenodd" d="M15.1988 7.47277C17.1674 7.07656 19.2123 7.37339 20.987 8.31292C22.7616 9.25246 24.1567 10.7769 24.9356 12.6276C25.7145 14.4784 25.8293 16.5416 25.2605 18.4674C24.6918 20.3932 23.4745 22.0629 21.8151 23.1936C20.1556 24.3242 18.1562 24.8461 16.1559 24.6708C14.1555 24.4954 12.2774 23.6336 10.84 22.2315C10.4572 21.8581 9.84422 21.8657 9.47083 22.2485C9.09745 22.6313 9.10507 23.2443 9.48785 23.6177C11.2452 25.3318 13.5413 26.3854 15.9868 26.5998C18.4323 26.8142 20.8767 26.1761 22.9054 24.7939C24.9342 23.4116 26.4223 21.3702 27.1177 19.0159C27.813 16.6615 27.6727 14.1392 26.7204 11.8765C25.7681 9.61382 24.0626 7.75015 21.893 6.60152C19.7234 5.45288 17.2234 5.09 14.8167 5.57439C12.4101 6.05878 10.2451 7.36063 8.68884 9.25918C7.22901 11.0401 6.38913 13.2442 6.28839 15.5367L5.68472 14.933C5.3066 14.5549 4.69355 14.5549 4.31544 14.933C3.93733 15.3112 3.93734 15.9242 4.31546 16.3023L6.54889 18.5357C6.73891 18.7257 6.98831 18.8203 7.23742 18.8193L7.24636 18.8193C7.56056 18.8193 7.83979 18.6696 8.01669 18.4377L10.1625 16.3043C10.5417 15.9273 10.5434 15.3142 10.1664 14.935C9.78938 14.5558 9.17633 14.554 8.79713 14.9311L8.22938 15.4956C8.33622 13.6655 9.01895 11.9111 10.1864 10.4868C11.4594 8.93385 13.2303 7.86899 15.1988 7.47277ZM16.8384 11.6177C17.3731 11.6177 17.8066 12.0512 17.8066 12.586V16.7816C17.8066 17.069 17.679 17.3415 17.4582 17.5254L15.5218 19.1392C15.111 19.4815 14.5004 19.426 14.1581 19.0152C13.8158 18.6044 13.8713 17.9939 14.2821 17.6515L15.8701 16.3281V12.586C15.8701 12.0512 16.3036 11.6177 16.8384 11.6177Z" fill="#0F172A"/>
</svg>
