<svg width="63" height="56" viewBox="0 0 63 56" fill="none" xmlns="http://www.w3.org/2000/svg">
<circle cx="20.1" cy="19.2" r="19.2" fill="#00CEE0"/>
<path fill-rule="evenodd" clip-rule="evenodd" d="M19.4333 19.2C19.4333 15.96 22.0599 13.3334 25.3 13.3334H47.7C50.9401 13.3334 53.5667 15.96 53.5667 19.2V30.9334C53.5667 31.5883 53.1676 32.1771 52.5592 32.4196C51.9509 32.6622 51.2561 32.5094 50.8055 32.0342L45.1214 26.0384C45.1035 26.0194 45.086 26 45.0689 25.9802C43.9777 24.71 42.0007 24.7488 40.9598 26.057L40.9474 26.0729C40.9466 26.0739 40.9457 26.0751 40.9448 26.0763C40.7494 26.3291 38.3753 29.3995 36.3059 32.0445L38.2113 34.1172C38.8093 34.7677 38.7667 35.7799 38.1162 36.3779C37.4657 36.976 36.4535 36.9334 35.8554 36.2829L33.2637 33.4636C33.241 33.4476 33.2186 33.4309 33.1966 33.4136C33.0336 33.2854 32.9022 33.1319 32.8036 32.9631L32.3047 32.4204C32.2926 32.4072 32.2806 32.3938 32.2689 32.3802C31.1742 31.1058 29.188 31.149 28.1497 32.4698L22.6333 39.487V41.6C22.6333 43.0728 23.8273 44.2667 25.3 44.2667H34.9C35.7837 44.2667 36.5 44.9831 36.5 45.8667C36.5 46.7504 35.7837 47.4667 34.9 47.4667H25.3C22.0599 47.4667 19.4333 44.8401 19.4333 41.6V19.2ZM22.6333 34.3092L25.634 30.4921C27.7375 27.8164 31.6093 27.524 34.0896 29.6838C36.0841 27.1315 38.2483 24.3323 38.4157 24.1158L38.4208 24.1092L38.4421 24.082L38.449 24.0732C40.7287 21.1971 45.0599 21.0982 47.4687 23.8631L50.3667 26.92V19.2C50.3667 17.7273 49.1728 16.5334 47.7 16.5334H25.3C23.8273 16.5334 22.6333 17.7273 22.6333 19.2V34.3092ZM47.1667 34.6667C48.0503 34.6667 48.7667 35.3831 48.7667 36.2667V39.4667H51.9667C52.8503 39.4667 53.5667 40.1831 53.5667 41.0667C53.5667 41.9504 52.8503 42.6667 51.9667 42.6667H48.7667V45.8667C48.7667 46.7504 48.0503 47.4667 47.1667 47.4667C46.283 47.4667 45.5667 46.7504 45.5667 45.8667V42.6667H42.3667C41.483 42.6667 40.7667 41.9504 40.7667 41.0667C40.7667 40.1831 41.483 39.4667 42.3667 39.4667H45.5667V36.2667C45.5667 35.3831 46.283 34.6667 47.1667 34.6667Z" fill="#0F172A"/>
</svg>
