<svg width="63" height="56" viewBox="0 0 63 56" fill="none" xmlns="http://www.w3.org/2000/svg">
<circle cx="20.1" cy="19.2" r="19.2" fill="#00CEE0"/>
<path fill-rule="evenodd" clip-rule="evenodd" d="M29.5667 16.5334C28.094 16.5334 26.9001 17.7273 26.9001 19.2V41.6C26.9001 43.0728 28.094 44.2667 29.5667 44.2667H43.4339C44.9067 44.2667 46.1006 43.0728 46.1006 41.6V19.2C46.1006 17.7273 44.9067 16.5334 43.4339 16.5334H29.5667ZM23.7001 19.2C23.7001 15.96 26.3267 13.3334 29.5667 13.3334H43.4339C46.674 13.3334 49.3006 15.96 49.3006 19.2V41.6C49.3006 44.8401 46.674 47.4667 43.4339 47.4667H29.5667C26.3267 47.4667 23.7001 44.8401 23.7001 41.6V19.2ZM34.3667 40.5334C34.3667 39.6497 35.0831 38.9334 35.9667 38.9334H37.0334C37.9171 38.9334 38.6334 39.6497 38.6334 40.5334C38.6334 41.417 37.9171 42.1334 37.0334 42.1334H35.9667C35.0831 42.1334 34.3667 41.417 34.3667 40.5334Z" fill="#0F172A"/>
</svg>
