<svg width="16" height="16" viewBox="0 0 16 16" fill="none" xmlns="http://www.w3.org/2000/svg">
<path fill-rule="evenodd" clip-rule="evenodd" d="M8.00002 8.00008C8.36821 8.00008 8.66669 8.29856 8.66669 8.66675V10.0001C8.66669 10.3683 8.36821 10.6667 8.00002 10.6667C7.63183 10.6667 7.33335 10.3683 7.33335 10.0001V8.66675C7.33335 8.29856 7.63183 8.00008 8.00002 8.00008Z" fill="#64748B"/>
<path fill-rule="evenodd" clip-rule="evenodd" d="M7.33335 6.00008C7.33335 5.63189 7.63183 5.33341 8.00002 5.33341C8.36821 5.33341 8.66669 5.63189 8.66669 6.00008C8.66669 6.36827 8.36821 6.66675 8.00002 6.66675C7.63183 6.66675 7.33335 6.36827 7.33335 6.00008Z" fill="#64748B"/>
<path fill-rule="evenodd" clip-rule="evenodd" d="M8.00002 3.66675C5.60679 3.66675 3.66669 5.60685 3.66669 8.00008C3.66669 10.3933 5.60679 12.3334 8.00002 12.3334C10.3933 12.3334 12.3334 10.3933 12.3334 8.00008C12.3334 5.60685 10.3933 3.66675 8.00002 3.66675ZM2.66669 8.00008C2.66669 5.05456 5.0545 2.66675 8.00002 2.66675C10.9455 2.66675 13.3334 5.05456 13.3334 8.00008C13.3334 10.9456 10.9455 13.3334 8.00002 13.3334C5.0545 13.3334 2.66669 10.9456 2.66669 8.00008Z" fill="#64748B"/>
</svg>
