<svg width="62" height="57" viewBox="0 0 62 57" fill="none" xmlns="http://www.w3.org/2000/svg">
<circle cx="19.6696" cy="19.7237" r="19.2" fill="#00CEE0"/>
<path fill-rule="evenodd" clip-rule="evenodd" d="M36.0696 30.9238C37.2478 30.9238 38.2029 31.879 38.2029 33.0572V37.3238C38.2029 38.5021 37.2478 39.4572 36.0696 39.4572C34.8914 39.4572 33.9363 38.5021 33.9363 37.3238V33.0572C33.9363 31.879 34.8914 30.9238 36.0696 30.9238Z" fill="#0F172A"/>
<path fill-rule="evenodd" clip-rule="evenodd" d="M33.9363 24.5238C33.9363 23.3456 34.8914 22.3905 36.0696 22.3905C37.2478 22.3905 38.2029 23.3456 38.2029 24.5238C38.2029 25.7021 37.2478 26.6572 36.0696 26.6572C34.8914 26.6572 33.9363 25.7021 33.9363 24.5238Z" fill="#0F172A"/>
<path fill-rule="evenodd" clip-rule="evenodd" d="M36.0696 17.0572C28.4112 17.0572 22.2029 23.2655 22.2029 30.9238C22.2029 38.5822 28.4112 44.7905 36.0696 44.7905C43.7279 44.7905 49.9363 38.5822 49.9363 30.9238C49.9363 23.2655 43.7279 17.0572 36.0696 17.0572ZM19.0029 30.9238C19.0029 21.4982 26.6439 13.8572 36.0696 13.8572C45.4953 13.8572 53.1363 21.4982 53.1363 30.9238C53.1363 40.3495 45.4953 47.9905 36.0696 47.9905C26.6439 47.9905 19.0029 40.3495 19.0029 30.9238Z" fill="#0F172A"/>
</svg>
