<svg width="24" height="24" viewBox="0 0 24 24" fill="none" xmlns="http://www.w3.org/2000/svg">
<path fill-rule="evenodd" clip-rule="evenodd" d="M19 4H5C4.45 4 4 4.45 4 5V19C4 19.55 4.45 20 5 20H19C19.55 20 20 19.55 20 19V5C20 4.45 19.55 4 19 4ZM9 18.6H5.4V15H9V18.6ZM9 13.6H5.4V10.3H9V13.6ZM9 8.9H5.4V5.4H9V8.9ZM14 18.6H10.4V15H14V18.6ZM14 13.6H10.4V10.3H14V13.6ZM14 8.9H10.4V5.4H14V8.9ZM18.6 18.6H15.4V15H18.6V18.6ZM18.6 13.6H15.4V10.3H18.6V13.6ZM18.6 8.9H15.4V5.4H18.6V8.9Z" fill="#0F172A"/>
</svg>
