<svg width="63" height="56" viewBox="0 0 63 56" fill="none" xmlns="http://www.w3.org/2000/svg">
<circle cx="20.0999" cy="19.2" r="19.2" fill="#FF6868"/>
<path fill-rule="evenodd" clip-rule="evenodd" d="M19.4331 21.333C19.4331 16.9147 23.0148 13.333 27.4331 13.333H45.5664C49.9847 13.333 53.5664 16.9147 53.5664 21.333V39.4663C53.5664 43.8846 49.9847 47.4663 45.5664 47.4663H27.4331C23.0148 47.4663 19.4331 43.8846 19.4331 39.4663V21.333ZM27.4331 16.533C24.7821 16.533 22.6331 18.682 22.6331 21.333V39.4663C22.6331 42.1173 24.7821 44.2663 27.4331 44.2663H45.5664C48.2174 44.2663 50.3664 42.1173 50.3664 39.4663V21.333C50.3664 18.682 48.2174 16.533 45.5664 16.533H27.4331Z" fill="#0F172A"/>
<path fill-rule="evenodd" clip-rule="evenodd" d="M42.8998 21.8663C42.8998 20.6881 43.8549 19.733 45.0331 19.733C46.2113 19.733 47.1664 20.6881 47.1664 21.8663C47.1664 23.0445 46.2113 23.9997 45.0331 23.9997C43.8549 23.9997 42.8998 23.0445 42.8998 21.8663Z" fill="#0F172A"/>
<path fill-rule="evenodd" clip-rule="evenodd" d="M36.4998 27.1997C33.5543 27.1997 31.1664 29.5875 31.1664 32.533C31.1664 35.4785 33.5543 37.8663 36.4998 37.8663C39.4453 37.8663 41.8331 35.4785 41.8331 32.533C41.8331 29.5875 39.4453 27.1997 36.4998 27.1997ZM27.9664 32.533C27.9664 27.8202 31.7869 23.9997 36.4998 23.9997C41.2126 23.9997 45.0331 27.8202 45.0331 32.533C45.0331 37.2458 41.2126 41.0663 36.4998 41.0663C31.7869 41.0663 27.9664 37.2458 27.9664 32.533Z" fill="#0F172A"/>
</svg>
