<svg width="24" height="24" viewBox="0 0 24 24" fill="none" xmlns="http://www.w3.org/2000/svg">
<path d="M4.73739 13.0418H4.7665C4.96055 13.0418 5.1449 12.9449 5.28074 12.8092C5.41657 12.6638 5.48449 12.47 5.47479 12.2762C5.47479 12.189 5.47479 12.1018 5.47479 12.0145C5.47479 11.2683 5.60092 10.5318 5.85319 9.82435C5.9114 9.64022 5.892 9.4464 5.81438 9.27196C5.72705 9.09752 5.58152 8.97153 5.39717 8.90369C5.21282 8.83586 5.01877 8.84555 4.84412 8.93277C4.66948 9.0103 4.53364 9.15566 4.46572 9.33979C4.15524 10.1926 4 11.0842 4 12.0048V12.3343C4.0097 12.5282 4.09703 12.7026 4.23286 12.8383C4.3687 12.974 4.55305 13.0418 4.73739 13.0418Z" fill="#0F172A"/>
<path d="M5.74646 8.2447C5.82408 8.30285 5.9114 8.34161 6.00843 8.37068C6.06664 8.39007 6.13456 8.39007 6.19278 8.39007C6.23159 8.39007 6.2607 8.39007 6.29951 8.39007C6.39653 8.38038 6.49356 8.34161 6.57118 8.29316C6.6585 8.2447 6.72642 8.17686 6.78463 8.09933C7.0272 7.76984 7.30857 7.46941 7.59965 7.19806C7.66757 7.13022 7.72578 7.0527 7.77429 6.96548C7.8131 6.87826 7.84221 6.78134 7.84221 6.68443C7.84221 6.58752 7.84221 6.49061 7.8034 6.40339C7.77429 6.31617 7.71608 6.22895 7.65786 6.16111C7.58995 6.08359 7.50262 6.02544 7.4153 5.98667C7.31827 5.94791 7.22125 5.91884 7.11452 5.91884C6.93017 5.91884 6.75553 5.98667 6.61969 6.11266C6.25099 6.45185 5.9114 6.82011 5.62033 7.21744C5.56211 7.29497 5.5233 7.38219 5.49419 7.4791C5.47479 7.57601 5.46509 7.67293 5.47479 7.76984C5.47479 7.82798 5.49419 7.88613 5.5233 7.93459C5.56211 8.02181 5.63973 8.14779 5.76587 8.25439L5.74646 8.2447Z" fill="#0F172A"/>
<path d="M7.90043 17.083L7.83251 17.0248C7.00779 16.3368 6.35772 15.4549 5.95021 14.4664C5.892 14.3307 5.80468 14.2144 5.67854 14.1369C5.47479 14.0012 5.21282 13.9818 4.98966 14.069C4.80531 14.1466 4.66948 14.2823 4.59186 14.4664C4.51424 14.6408 4.51424 14.854 4.59186 15.0285C5.10609 16.2786 5.93081 17.3834 6.97868 18.2265C7.10482 18.3331 7.26976 18.3913 7.4347 18.3913C7.58024 18.401 7.73548 18.3428 7.86162 18.2556C7.98775 18.1684 8.07507 18.0424 8.13329 17.897C8.1818 17.7517 8.1915 17.5966 8.14299 17.4512C8.10418 17.3059 8.01686 17.1799 7.90043 17.083Z" fill="#0F172A"/>
<path d="M19.3106 8.73895C18.68 7.32405 17.6515 6.13204 16.3611 5.28892C15.0609 4.44579 13.557 4 12.0046 4C11.9076 4 11.8106 4.01938 11.7232 4.05815C11.6359 4.09691 11.5486 4.14537 11.4807 4.2132C11.4128 4.28104 11.3545 4.35857 11.3157 4.45548C11.2769 4.5427 11.2575 4.63961 11.2575 4.73652C11.2575 4.83343 11.2769 4.93035 11.3157 5.01757C11.3545 5.10478 11.4031 5.192 11.471 5.25984C11.5389 5.32768 11.6165 5.38583 11.7135 5.42459C11.8009 5.46336 11.8979 5.48274 11.9949 5.48274C13.2562 5.48274 14.4885 5.851 15.546 6.52938C16.6036 7.21744 17.438 8.18655 17.9523 9.33979C18.4665 10.493 18.6412 11.7626 18.4471 13.0127C18.2531 14.2629 17.7 15.4161 16.8559 16.3658C16.7298 16.5112 16.6715 16.6953 16.6909 16.8892C16.7006 17.083 16.788 17.2574 16.9335 17.3834C17.0693 17.5094 17.244 17.5675 17.4186 17.5675H17.4477C17.6418 17.5675 17.8164 17.4803 17.962 17.3349C18.9904 16.1817 19.6696 14.7668 19.9025 13.2356C20.1451 11.7044 19.9316 10.1538 19.3009 8.73895H19.3106Z" fill="#0F172A"/>
<path d="M15.8856 17.8195C15.6625 17.6451 15.3326 17.616 15.09 17.7517C14.2944 18.1781 13.4309 18.43 12.5285 18.4979C11.6262 18.5657 10.7336 18.4591 9.88945 18.1684C9.81183 18.1393 9.73421 18.1296 9.64689 18.1296C9.52075 18.1296 9.39462 18.1587 9.28789 18.2265C9.18116 18.2847 9.08414 18.3719 9.01622 18.4785C8.9483 18.5851 8.90949 18.7014 8.90949 18.8274C8.90949 18.9534 8.9289 19.0793 8.98711 19.1859C9.02592 19.2732 9.08414 19.3507 9.16176 19.4185C9.22968 19.4864 9.317 19.5348 9.41403 19.5639C10.2581 19.8546 11.1314 20 12.0143 20C12.2278 20 12.4509 20 12.6644 19.9709C13.7705 19.8837 14.8281 19.5736 15.808 19.0503C15.9535 18.9727 16.07 18.8468 16.1282 18.7014C16.1864 18.556 16.2058 18.3816 16.167 18.2265C16.1282 18.0618 16.0312 17.9261 15.905 17.8292L15.8856 17.8195Z" fill="#0F172A"/>
<path d="M11.2769 12.7414V14.9606C11.2769 15.0575 11.2866 15.1545 11.3254 15.2514C11.3642 15.3483 11.4128 15.4258 11.4807 15.5033C11.5486 15.5712 11.6262 15.6293 11.7232 15.6681C11.8203 15.7068 11.9173 15.7262 12.0143 15.7262C12.1113 15.7262 12.2084 15.7068 12.3054 15.6681C12.3927 15.6293 12.48 15.5712 12.548 15.5033C12.6159 15.4355 12.6741 15.3483 12.7032 15.2514C12.742 15.1545 12.7517 15.0575 12.7517 14.9703V12.7317H14.993C15.187 12.7317 15.3811 12.6541 15.5169 12.5185C15.6528 12.3828 15.7304 12.189 15.7304 11.9952C15.7304 11.8013 15.6528 11.6075 15.5169 11.4718C15.3811 11.3362 15.187 11.2586 14.993 11.2586H12.7517V9.08783C12.7517 8.99091 12.742 8.894 12.7032 8.79709C12.6644 8.70018 12.6159 8.62265 12.548 8.55482C12.48 8.48698 12.4024 8.42883 12.3054 8.39007C12.121 8.31254 11.9173 8.31254 11.7232 8.39007C11.6359 8.42883 11.5486 8.48698 11.4807 8.55482C11.4128 8.62265 11.3545 8.70987 11.3254 8.80678C11.2866 8.894 11.2769 9.00061 11.2769 9.08783V11.2683H9.09384C8.89979 11.2683 8.71544 11.3459 8.5699 11.4815C8.43407 11.6172 8.35645 11.811 8.35645 12.0048C8.35645 12.1987 8.43407 12.3925 8.5699 12.5282C8.70574 12.6638 8.89009 12.7414 9.09384 12.7414H11.2769Z" fill="#0F172A"/>
</svg>
