<svg width="63" height="56" viewBox="0 0 63 56" fill="none" xmlns="http://www.w3.org/2000/svg">
<circle cx="20.0999" cy="19.2" r="19.2" fill="#FFB13C"/>
<path fill-rule="evenodd" clip-rule="evenodd" d="M19.4331 21.3335C19.4331 16.9152 23.0148 13.3335 27.4331 13.3335H45.5664C49.9847 13.3335 53.5664 16.9152 53.5664 21.3335V39.4668C53.5664 43.8851 49.9847 47.4668 45.5664 47.4668H27.4331C23.0148 47.4668 19.4331 43.8851 19.4331 39.4668V21.3335ZM27.4331 16.5335C24.7821 16.5335 22.6331 18.6825 22.6331 21.3335V39.4668C22.6331 42.1178 24.7821 44.2668 27.4331 44.2668H45.5664C48.2174 44.2668 50.3664 42.1178 50.3664 39.4668V21.3335C50.3664 18.6825 48.2174 16.5335 45.5664 16.5335H27.4331Z" fill="#0F172A"/>
<path fill-rule="evenodd" clip-rule="evenodd" d="M42.8998 21.8668C42.8998 20.6886 43.8549 19.7335 45.0331 19.7335C46.2113 19.7335 47.1664 20.6886 47.1664 21.8668C47.1664 23.045 46.2113 24.0002 45.0331 24.0002C43.8549 24.0002 42.8998 23.045 42.8998 21.8668Z" fill="#0F172A"/>
<path fill-rule="evenodd" clip-rule="evenodd" d="M36.4998 27.2002C33.5543 27.2002 31.1664 29.588 31.1664 32.5335C31.1664 35.479 33.5543 37.8668 36.4998 37.8668C39.4453 37.8668 41.8331 35.479 41.8331 32.5335C41.8331 29.588 39.4453 27.2002 36.4998 27.2002ZM27.9664 32.5335C27.9664 27.8207 31.7869 24.0002 36.4998 24.0002C41.2126 24.0002 45.0331 27.8207 45.0331 32.5335C45.0331 37.2463 41.2126 41.0668 36.4998 41.0668C31.7869 41.0668 27.9664 37.2463 27.9664 32.5335Z" fill="#0F172A"/>
</svg>
