<svg width="24" height="24" viewBox="0 0 24 24" fill="none" xmlns="http://www.w3.org/2000/svg">
    <defs>
        <radialGradient id="paint0_radial_1472_25241" cx="0" cy="0" r="1" gradientUnits="userSpaceOnUse" gradientTransform="translate(6.92307 24.5002) rotate(-90) scale(21.4715 19.9756)">
            <stop stop-color="#FFDD55"/>
            <stop offset="0.1" stop-color="#FFDD55"/>
            <stop offset="0.5" stop-color="#FF543E"/>
            <stop offset="1" stop-color="#C837AB"/>
        </radialGradient>
        <radialGradient id="paint1_radial_1472_25241" cx="0" cy="0" r="1" gradientUnits="userSpaceOnUse" gradientTransform="translate(-2.46322 2.72745) rotate(78.6776) scale(9.59793 39.573)">
            <stop stop-color="#3771C8"/>
            <stop offset="0.128" stop-color="#3771C8"/>
            <stop offset="1" stop-color="#6600FF" stop-opacity="0"/>
        </radialGradient>
    </defs>

    <path d="M12.0057 1.16675C7.48199 1.16675 6.15899 1.17141 5.90182 1.19275C4.97349 1.26991 4.39582 1.41608 3.76649 1.72941C3.28149 1.97025 2.89899 2.24941 2.52149 2.64075C1.83399 3.35441 1.41732 4.23241 1.26649 5.27608C1.19316 5.78275 1.17182 5.88608 1.16749 8.47408C1.16582 9.33675 1.16749 10.4721 1.16749 11.9949C1.16749 16.5149 1.17249 17.8366 1.19416 18.0932C1.26916 18.9966 1.41082 19.5649 1.71082 20.1866C2.28416 21.3766 3.37916 22.2699 4.66916 22.6032C5.11582 22.7182 5.60916 22.7816 6.24249 22.8116C6.51082 22.8232 9.24582 22.8316 11.9825 22.8316C14.7192 22.8316 17.4558 22.8283 17.7175 22.8149C18.4508 22.7804 18.8767 22.7232 19.3475 22.6016C20.6458 22.2666 21.7208 21.3866 22.3058 20.1799C22.6 19.5732 22.7492 18.9832 22.8167 18.1271C22.8313 17.9404 22.8375 14.9642 22.8375 11.9921C22.8375 9.01942 22.8308 6.04875 22.8162 5.86208C22.7478 4.99208 22.5987 4.40708 22.295 3.78875C22.0458 3.28258 21.7692 2.90458 21.3675 2.51808C20.6507 1.83341 19.774 1.41675 18.7293 1.26608C18.2232 1.19291 18.1223 1.17125 15.5323 1.16675H12.0057Z" fill="url(#paint0_radial_1472_25241)"/>
<path d="M12.0057 1.16675C7.48199 1.16675 6.15899 1.17141 5.90182 1.19275C4.97349 1.26991 4.39582 1.41608 3.76649 1.72941C3.28149 1.97025 2.89899 2.24941 2.52149 2.64075C1.83399 3.35441 1.41732 4.23241 1.26649 5.27608C1.19316 5.78275 1.17182 5.88608 1.16749 8.47408C1.16582 9.33675 1.16749 10.4721 1.16749 11.9949C1.16749 16.5149 1.17249 17.8366 1.19416 18.0932C1.26916 18.9966 1.41082 19.5649 1.71082 20.1866C2.28416 21.3766 3.37916 22.2699 4.66916 22.6032C5.11582 22.7182 5.60916 22.7816 6.24249 22.8116C6.51082 22.8232 9.24582 22.8316 11.9825 22.8316C14.7192 22.8316 17.4558 22.8283 17.7175 22.8149C18.4508 22.7804 18.8767 22.7232 19.3475 22.6016C20.6458 22.2666 21.7208 21.3866 22.3058 20.1799C22.6 19.5732 22.7492 18.9832 22.8167 18.1271C22.8313 17.9404 22.8375 14.9642 22.8375 11.9921C22.8375 9.01942 22.8308 6.04875 22.8162 5.86208C22.7478 4.99208 22.5987 4.40708 22.295 3.78875C22.0458 3.28258 21.7692 2.90458 21.3675 2.51808C20.6507 1.83341 19.774 1.41675 18.7293 1.26608C18.2232 1.19291 18.1223 1.17125 15.5323 1.16675H12.0057Z" fill="url(#paint1_radial_1472_25241)"/>
<path d="M12.0007 4C9.828 4 9.55533 4.0095 8.702 4.04833C7.85033 4.08733 7.269 4.22217 6.76033 4.42C6.23417 4.62433 5.78783 4.89767 5.34317 5.3425C4.89817 5.78717 4.62483 6.2335 4.41983 6.7595C4.2215 7.26833 4.0865 7.84983 4.04817 8.70117C4.01 9.5545 4 9.82733 4 12C4 14.1727 4.00967 14.4445 4.04833 15.2978C4.0875 16.1495 4.22233 16.7308 4.42 17.2395C4.6245 17.7657 4.89783 18.212 5.34267 18.6567C5.78717 19.1017 6.2335 19.3757 6.75933 19.58C7.26833 19.7778 7.84983 19.9127 8.70133 19.9517C9.55467 19.9905 9.82717 20 11.9997 20C14.1725 20 14.4443 19.9905 15.2977 19.9517C16.1493 19.9127 16.7313 19.7778 17.2403 19.58C17.7663 19.3757 18.212 19.1017 18.6565 18.6567C19.1015 18.212 19.3748 17.7657 19.5798 17.2397C19.7765 16.7308 19.9115 16.1493 19.9515 15.298C19.9898 14.4447 19.9998 14.1727 19.9998 12C19.9998 9.82733 19.9898 9.55467 19.9515 8.70133C19.9115 7.84967 19.7765 7.26833 19.5798 6.75967C19.3748 6.2335 19.1015 5.78717 18.6565 5.3425C18.2115 4.8975 17.7665 4.62417 17.2398 4.42C16.7298 4.22217 16.1482 4.08733 15.2965 4.04833C14.4432 4.0095 14.1715 4 11.9982 4H12.0007ZM11.283 5.44167C11.496 5.44133 11.7337 5.44167 12.0007 5.44167C14.1367 5.44167 14.3898 5.44933 15.2333 5.48767C16.0133 5.52333 16.4367 5.65367 16.7187 5.76317C17.092 5.90817 17.3582 6.0815 17.638 6.3615C17.918 6.6415 18.0913 6.90817 18.2367 7.2815C18.3462 7.56317 18.4767 7.9865 18.5122 8.7665C18.5505 9.60983 18.5588 9.86317 18.5588 11.9982C18.5588 14.1332 18.5505 14.3865 18.5122 15.2298C18.4765 16.0098 18.3462 16.4332 18.2367 16.7148C18.0917 17.0882 17.918 17.354 17.638 17.6338C17.358 17.9138 17.0922 18.0872 16.7187 18.2322C16.437 18.3422 16.0133 18.4722 15.2333 18.5078C14.39 18.5462 14.1367 18.5545 12.0007 18.5545C9.8645 18.5545 9.61133 18.5462 8.768 18.5078C7.988 18.4718 7.56467 18.3415 7.2825 18.232C6.90917 18.087 6.6425 17.9137 6.3625 17.6337C6.0825 17.3537 5.90917 17.0877 5.76383 16.7142C5.65433 16.4325 5.52383 16.0092 5.48833 15.2292C5.45 14.3858 5.44233 14.1325 5.44233 11.9962C5.44233 9.85983 5.45 9.60783 5.48833 8.7645C5.524 7.9845 5.65433 7.56117 5.76383 7.27917C5.90883 6.90583 6.0825 6.63917 6.3625 6.35917C6.6425 6.07917 6.90917 5.90583 7.2825 5.7605C7.5645 5.6505 7.988 5.5205 8.768 5.48467C9.506 5.45133 9.792 5.44133 11.283 5.43967V5.44167ZM16.271 6.77C15.741 6.77 15.311 7.1995 15.311 7.72967C15.311 8.25967 15.741 8.68967 16.271 8.68967C16.801 8.68967 17.231 8.25967 17.231 7.72967C17.231 7.19967 16.801 6.76967 16.271 6.76967V6.77ZM12.0007 7.89167C9.73183 7.89167 7.89233 9.73117 7.89233 12C7.89233 14.2688 9.73183 16.1075 12.0007 16.1075C14.2695 16.1075 16.1083 14.2688 16.1083 12C16.1083 9.73117 14.2693 7.89167 12.0005 7.89167H12.0007ZM12.0007 9.33333C13.4733 9.33333 14.6673 10.5272 14.6673 12C14.6673 13.4727 13.4733 14.6667 12.0007 14.6667C10.5278 14.6667 9.334 13.4727 9.334 12C9.334 10.5272 10.5278 9.33333 12.0007 9.33333Z" fill="white"/>
</svg>
