<svg width="25" height="25" viewBox="0 0 25 25" fill="none" xmlns="http://www.w3.org/2000/svg">
<path fill-rule="evenodd" clip-rule="evenodd" d="M4.06958 8.27368C4.06958 6.20261 5.74851 4.52368 7.81958 4.52368H16.3196C18.3906 4.52368 20.0696 6.20261 20.0696 8.27368V16.7737C20.0696 18.8447 18.3906 20.5237 16.3196 20.5237H7.81958C5.74851 20.5237 4.06958 18.8447 4.06958 16.7737V8.27368ZM7.81958 6.02368C6.57694 6.02368 5.56958 7.03104 5.56958 8.27368V16.7737C5.56958 18.0163 6.57694 19.0237 7.81958 19.0237H16.3196C17.5622 19.0237 18.5696 18.0163 18.5696 16.7737V8.27368C18.5696 7.03104 17.5622 6.02368 16.3196 6.02368H7.81958Z" fill="#0F172A"/>
<path fill-rule="evenodd" clip-rule="evenodd" d="M15.0696 8.52368C15.0696 7.9714 15.5173 7.52368 16.0696 7.52368C16.6219 7.52368 17.0696 7.9714 17.0696 8.52368C17.0696 9.07597 16.6219 9.52368 16.0696 9.52368C15.5173 9.52368 15.0696 9.07597 15.0696 8.52368Z" fill="#0F172A"/>
<path fill-rule="evenodd" clip-rule="evenodd" d="M12.0696 11.0237C10.6889 11.0237 9.56958 12.143 9.56958 13.5237C9.56958 14.9044 10.6889 16.0237 12.0696 16.0237C13.4503 16.0237 14.5696 14.9044 14.5696 13.5237C14.5696 12.143 13.4503 11.0237 12.0696 11.0237ZM8.06958 13.5237C8.06958 11.3145 9.86044 9.52368 12.0696 9.52368C14.2787 9.52368 16.0696 11.3145 16.0696 13.5237C16.0696 15.7328 14.2787 17.5237 12.0696 17.5237C9.86044 17.5237 8.06958 15.7328 8.06958 13.5237Z" fill="#0F172A"/>
</svg>
