<svg width="24" height="24" viewBox="0 0 24 24" fill="none" xmlns="http://www.w3.org/2000/svg">
<path d="M18.623 5.37697C17.7406 4.49455 16.5576 4 15.3067 4H8.69333C7.44242 4 6.25939 4.49455 5.37697 5.37697C4.49455 6.26909 4 7.44242 4 8.69333V15.297C4 16.5479 4.49455 17.7309 5.37697 18.6133C6.25939 19.4958 7.44242 19.9903 8.69333 19.9903H15.297C16.5479 19.9903 17.7309 19.4958 18.623 18.6133C19.5055 17.7309 20 16.5479 20 15.297V8.69333C20 7.44242 19.5055 6.25939 18.623 5.37697ZM18.3903 7.56849H15.7624L14.4727 5.44485C17.7697 5.21212 18.3903 7.56849 18.3903 7.56849ZM12.6012 5.37697L13.9006 7.57818H11.0497L9.76 5.37697H12.6012ZM6.51152 6.21091C6.93818 5.83273 7.46182 5.57091 8.02424 5.45455L9.27515 7.57818H5.58061C5.77455 7.05455 6.09455 6.57939 6.51152 6.21091ZM18.623 15.297C18.623 16.1697 18.2642 17.0327 17.6436 17.6436C17.0133 18.2739 16.1794 18.623 15.297 18.623H8.70303C7.82061 18.623 6.98667 18.2739 6.35636 17.6533C5.72606 17.023 5.38667 16.1891 5.37697 15.3067V9.1103H18.623V15.297Z" fill="#0F172A"/>
<path d="M10.1091 15.7333C10.177 15.84 10.2642 15.9273 10.3903 16.0048C10.497 16.063 10.623 16.1018 10.7491 16.1018C10.8752 16.1018 10.9818 16.0824 11.0885 16.0339C12.1455 15.6267 13.6097 14.7442 14.2691 14.2012C14.3661 14.1236 14.4533 14.0267 14.5115 13.9103C14.5697 13.7939 14.5988 13.6776 14.6085 13.5224C14.6085 13.3964 14.5697 13.28 14.5115 13.1733C14.4533 13.0667 14.3661 12.9697 14.2788 12.9018C13.6 12.3782 12.0679 11.4279 11.0982 11.0594C10.9915 11.0206 10.8848 10.9915 10.7588 11.0012C10.6327 11.0012 10.5067 11.0303 10.3903 11.0982C10.2836 11.1661 10.1867 11.2533 10.1188 11.36C10.0509 11.4667 10.0024 11.583 9.98303 11.6994C9.89576 12.1261 9.84727 12.7952 9.84727 13.5127C9.84727 14.2303 9.89576 14.9091 9.98303 15.3648C10.0024 15.4909 10.0412 15.6073 10.1091 15.7139V15.7333Z" fill="#0F172A"/>
</svg>
