<svg width="16" height="16" viewBox="0 0 16 16" fill="none" xmlns="http://www.w3.org/2000/svg">
<path fill-rule="evenodd" clip-rule="evenodd" d="M11.56 3.64001C11.2364 3.64001 10.9447 3.83492 10.8208 4.13386C10.697 4.4328 10.7655 4.7769 10.9943 5.0057C11.2231 5.2345 11.5672 5.30294 11.8661 5.17912C12.165 5.05529 12.36 4.76358 12.36 4.44001C12.36 3.99818 12.0018 3.64001 11.56 3.64001ZM14.6266 5.25334C14.6137 4.70021 14.5101 4.15294 14.32 3.63334C14.1504 3.18876 13.8866 2.7862 13.5466 2.45334C13.2165 2.11163 12.813 1.84946 12.3666 1.68668C11.8484 1.49078 11.3005 1.38482 10.7466 1.37334C10.04 1.33334 9.81331 1.33334 7.99998 1.33334C6.18665 1.33334 5.95998 1.33334 5.25331 1.37334C4.69941 1.38482 4.15154 1.49078 3.63331 1.68668C3.18777 1.85111 2.7846 2.11305 2.45331 2.45334C2.1116 2.78346 1.84943 3.18697 1.68665 3.63334C1.49075 4.15157 1.38479 4.69944 1.37331 5.25334C1.33331 5.96001 1.33331 6.18668 1.33331 8.00001C1.33331 9.81334 1.33331 10.04 1.37331 10.7467C1.38479 11.3005 1.49075 11.8485 1.68665 12.3667C1.84943 12.8131 2.1116 13.2165 2.45331 13.5467C2.7846 13.8869 3.18777 14.1489 3.63331 14.3133C4.15154 14.5092 4.69941 14.6152 5.25331 14.6267C5.95998 14.6667 6.18665 14.6667 7.99998 14.6667C9.81331 14.6667 10.04 14.6667 10.7466 14.6267C11.3005 14.6152 11.8484 14.5092 12.3666 14.3133C12.813 14.1505 13.2165 13.8884 13.5466 13.5467C13.8881 13.2151 14.1522 12.8121 14.32 12.3667C14.5101 11.8471 14.6137 11.2998 14.6266 10.7467C14.6266 10.04 14.6666 9.81334 14.6666 8.00001C14.6666 6.18668 14.6666 5.96001 14.6266 5.25334ZM13.4266 10.6667C13.4218 11.0899 13.3452 11.5091 13.2 11.9067C13.0935 12.1968 12.9226 12.4589 12.7 12.6733C12.4837 12.8937 12.2221 13.0643 11.9333 13.1733C11.5358 13.3185 11.1165 13.3951 10.6933 13.4C10.0266 13.4333 9.77998 13.44 8.02665 13.44C6.27331 13.44 6.02665 13.44 5.35998 13.4C4.92057 13.4082 4.48304 13.3406 4.06665 13.2C3.7905 13.0854 3.54089 12.9152 3.33331 12.7C3.11204 12.4858 2.94321 12.2235 2.83998 11.9333C2.67722 11.5301 2.58694 11.1013 2.57331 10.6667C2.57331 10 2.53331 9.75334 2.53331 8.00001C2.53331 6.24668 2.53331 6.00001 2.57331 5.33334C2.5763 4.90072 2.65528 4.47198 2.80665 4.06668C2.92401 3.78528 3.10416 3.53445 3.33331 3.33334C3.53585 3.10412 3.78617 2.92208 4.06665 2.80001C4.47301 2.65337 4.90131 2.57673 5.33331 2.57334C5.99998 2.57334 6.24665 2.53334 7.99998 2.53334C9.75331 2.53334 9.99998 2.53334 10.6666 2.57334C11.0898 2.5782 11.5091 2.65484 11.9066 2.80001C12.2096 2.91244 12.4815 3.09524 12.7 3.33334C12.9184 3.53813 13.0892 3.7885 13.2 4.06668C13.3482 4.47263 13.4248 4.9012 13.4266 5.33334C13.46 6.00001 13.4666 6.24668 13.4666 8.00001C13.4666 9.75334 13.46 10 13.4266 10.6667ZM7.99998 4.58001C6.11204 4.58369 4.5842 6.1165 4.58665 8.00448C4.5891 9.89241 6.12092 11.4212 8.00885 11.42C9.89678 11.4188 11.4266 9.88794 11.4266 8.00001C11.4284 7.09128 11.0678 6.21933 10.4246 5.57738C9.78138 4.93542 8.90871 4.57646 7.99998 4.58001ZM7.99998 10.22C6.77391 10.22 5.77998 9.22608 5.77998 8.00001C5.77998 6.77394 6.77391 5.78001 7.99998 5.78001C9.22605 5.78001 10.22 6.77394 10.22 8.00001C10.22 8.58881 9.98611 9.15348 9.56978 9.56981C9.15345 9.98614 8.58878 10.22 7.99998 10.22Z" fill="#64748B"/>
</svg>
