<svg width="25" height="25" viewBox="0 0 25 25" fill="none" xmlns="http://www.w3.org/2000/svg">
<path fill-rule="evenodd" clip-rule="evenodd" d="M12.5948 7.04339C10.8767 5.60777 8.35069 5.32176 6.38586 6.92981C4.24074 8.6854 3.91927 11.6644 5.62656 13.7687C5.64914 13.7965 5.67368 13.8227 5.69998 13.8471L12.0812 19.7568C12.3712 20.0253 12.819 20.0253 13.1089 19.7568L19.4901 13.8471C19.5164 13.8227 19.541 13.7965 19.5636 13.7687C21.2638 11.6731 20.9914 8.67098 18.7963 6.9234C16.81 5.34204 14.3109 5.60727 12.5948 7.04339ZM12.031 8.59702C10.7953 7.21326 8.81311 6.89778 7.34379 8.10029C5.84033 9.33074 5.63584 11.3375 6.76908 12.7757L12.5951 18.1712L18.4211 12.7757C19.5616 11.3288 19.3707 9.31391 17.8543 8.1067C16.3456 6.90557 14.3893 7.21945 13.1591 8.59702C13.0157 8.75769 12.8105 8.84955 12.5951 8.84955C12.3797 8.84955 12.1745 8.75769 12.031 8.59702Z" fill="white"/>
</svg>
