<svg width="26" height="25" viewBox="0 0 26 25" fill="none" xmlns="http://www.w3.org/2000/svg">
<path fill-rule="evenodd" clip-rule="evenodd" d="M13.06 6.23027C11.6058 6.23027 10.7926 6.70221 10.3206 7.18589C9.92394 7.59234 9.71403 8.13733 9.61292 8.82732C9.52472 9.42918 9.52722 10.068 9.52989 10.7523C9.52991 10.7574 9.52993 10.7626 9.52996 10.7678H16.59C16.5901 10.7626 16.5901 10.7574 16.5901 10.7523C16.5928 10.068 16.5953 9.42918 16.5071 8.82732C16.406 8.13733 16.1961 7.59234 15.7994 7.18589C15.3274 6.70221 14.5142 6.23027 13.06 6.23027ZM18.1028 10.7678C18.1061 10.0924 18.1091 9.32815 18.0036 8.60803C17.8772 7.74543 17.5847 6.84973 16.8819 6.12953C16.0999 5.32818 14.8839 4.71777 13.06 4.71777C11.2361 4.71777 10.0201 5.32818 9.23811 6.12953C8.53528 6.84973 8.2428 7.74543 8.1164 8.60803C8.01087 9.32815 8.01394 10.0924 8.01719 10.7678H7.76625C6.79169 10.7678 6.00166 11.5578 6.00166 12.5324V18.0782C6.00166 19.6096 7.24314 20.8511 8.77458 20.8511H17.3454C18.8769 20.8511 20.1183 19.6096 20.1183 18.0782V12.5324C20.1183 11.5578 19.3283 10.7678 18.3537 10.7678H18.1028ZM7.76625 12.2803C7.62702 12.2803 7.51416 12.3931 7.51416 12.5324V18.0782C7.51416 18.7743 8.07847 19.3386 8.77458 19.3386H17.3454C18.0415 19.3386 18.6058 18.7743 18.6058 18.0782V12.5324C18.6058 12.3931 18.493 12.2803 18.3537 12.2803H7.76625Z" fill="white"/>
</svg>
