<svg width="24" height="24" viewBox="0 0 24 24" fill="none" xmlns="http://www.w3.org/2000/svg">
<path fill-rule="evenodd" clip-rule="evenodd" d="M12 5.5C10.5578 5.5 9.75133 5.96804 9.28323 6.44772C8.88986 6.85081 8.68169 7.3913 8.58141 8.07559C8.49394 8.67247 8.49642 9.30604 8.49907 9.98462C8.49909 9.98975 8.49911 9.99487 8.49913 10H15.5009C15.5009 9.99487 15.5009 9.98975 15.5009 9.98462C15.5036 9.30603 15.5061 8.67247 15.4186 8.07559C15.3183 7.3913 15.1101 6.85081 14.7168 6.44772C14.2487 5.96804 13.4422 5.5 12 5.5ZM17.0011 10C17.0044 9.33021 17.0074 8.57228 16.9027 7.8581C16.7774 7.00264 16.4873 6.11434 15.7903 5.40009C15.0148 4.60536 13.8088 4 12 4C10.1912 4 8.98525 4.60536 8.2097 5.40009C7.51268 6.11434 7.22262 7.00264 7.09726 7.8581C6.99261 8.57227 6.99564 9.33021 6.99887 10H6.75C5.7835 10 5 10.7835 5 11.75V17.25C5 18.7688 6.23122 20 7.75 20H16.25C17.7688 20 19 18.7688 19 17.25V11.75C19 10.7835 18.2165 10 17.25 10H17.0011ZM6.75 11.5C6.61193 11.5 6.5 11.6119 6.5 11.75V17.25C6.5 17.9404 7.05964 18.5 7.75 18.5H16.25C16.9404 18.5 17.5 17.9404 17.5 17.25V11.75C17.5 11.6119 17.3881 11.5 17.25 11.5H6.75Z" fill="#0F172A"/>
</svg>
