<svg width="63" height="56" viewBox="0 0 63 56" fill="none" xmlns="http://www.w3.org/2000/svg">
<circle cx="20.1" cy="19.2" r="19.2" fill="#FFB13C"/>
<path fill-rule="evenodd" clip-rule="evenodd" d="M19.4333 19.2C19.4333 15.9599 22.0599 13.3333 25.3 13.3333H43.4333C44.317 13.3333 45.0333 14.0497 45.0333 14.9333C45.0333 15.817 44.317 16.5333 43.4333 16.5333H25.3C23.8272 16.5333 22.6333 17.7272 22.6333 19.2V41.6C22.6333 43.0727 23.8272 44.2666 25.3 44.2666H43.4333C44.317 44.2666 45.0333 44.983 45.0333 45.8666C45.0333 46.7503 44.317 47.4666 43.4333 47.4666H25.3C22.0599 47.4666 19.4333 44.8401 19.4333 41.6V19.2ZM43.3275 22.3779C43.9288 21.7304 44.9412 21.6929 45.5887 22.2942L53.0554 29.2275C53.3814 29.5303 53.5667 29.9551 53.5667 30.4C53.5667 30.8449 53.3814 31.2697 53.0554 31.5724L45.5887 38.5058C44.9412 39.1071 43.9288 39.0696 43.3275 38.422C42.7262 37.7745 42.7637 36.7621 43.4113 36.1608L47.8922 32H33.8333C32.9497 32 32.2333 31.2836 32.2333 30.4C32.2333 29.5163 32.9497 28.8 33.8333 28.8H47.8922L43.4113 24.6391C42.7637 24.0378 42.7262 23.0255 43.3275 22.3779Z" fill="#0F172A"/>
</svg>
