<svg width="144" height="200" viewBox="0 0 144 200" fill="none" xmlns="http://www.w3.org/2000/svg">
<rect width="144" height="200" rx="8" fill="#F1F5F9"/>
<path fill-rule="evenodd" clip-rule="evenodd" d="M64 82.75C64 81.2312 65.2312 80 66.75 80H77.25C78.7688 80 80 81.2312 80 82.75V88.25C80 88.557 79.8129 88.833 79.5277 88.9467C79.2426 89.0604 78.9169 88.9888 78.7057 88.766L76.0413 85.9555C76.0329 85.9466 76.0247 85.9375 76.0167 85.9282C75.5052 85.3328 74.5784 85.351 74.0905 85.9642L74.0847 85.9716C74.0843 85.9721 74.0839 85.9727 74.0835 85.9733C73.9919 86.0917 72.8791 87.531 71.909 88.7709L72.8021 89.7424C73.0825 90.0474 73.0625 90.5218 72.7576 90.8021C72.4526 91.0825 71.9782 91.0625 71.6979 90.7576L70.483 89.436C70.4723 89.4285 70.4619 89.4207 70.4515 89.4126C70.3751 89.3525 70.3135 89.2806 70.2673 89.2014L70.0334 88.9471C70.0278 88.9409 70.0222 88.9346 70.0167 88.9282C69.5035 88.3308 68.5725 88.3511 68.0858 88.9702L65.5 92.2595V93.25C65.5 93.9404 66.0596 94.5 66.75 94.5H71.25C71.6642 94.5 72 94.8358 72 95.25C72 95.6642 71.6642 96 71.25 96H66.75C65.2312 96 64 94.7688 64 93.25V82.75ZM65.5 89.8324L66.9066 88.0432C67.8926 86.7889 69.7075 86.6519 70.8701 87.6643C71.805 86.4679 72.8195 85.1558 72.898 85.0542L72.9004 85.0512L72.9103 85.0384L72.9136 85.0343C73.9822 83.6861 76.0124 83.6398 77.1416 84.9358L78.5 86.3687V82.75C78.5 82.0596 77.9404 81.5 77.25 81.5H66.75C66.0596 81.5 65.5 82.0596 65.5 82.75V89.8324ZM77 90C77.4142 90 77.75 90.3358 77.75 90.75V92.25H79.25C79.6642 92.25 80 92.5858 80 93C80 93.4142 79.6642 93.75 79.25 93.75H77.75V95.25C77.75 95.6642 77.4142 96 77 96C76.5858 96 76.25 95.6642 76.25 95.25V93.75H74.75C74.3358 93.75 74 93.4142 74 93C74 92.5858 74.3358 92.25 74.75 92.25H76.25V90.75C76.25 90.3358 76.5858 90 77 90Z" fill="#0F172A"/>
<path d="M39.416 117.012H35.342L34.642 119H32.976L36.462 109.256H38.31L41.796 119H40.116L39.416 117.012ZM38.968 115.71L37.386 111.188L35.79 115.71H38.968ZM42.7797 115.108C42.7797 114.333 42.9384 113.647 43.2557 113.05C43.5824 112.453 44.0211 111.991 44.5717 111.664C45.1317 111.328 45.7524 111.16 46.4337 111.16C46.9377 111.16 47.4324 111.272 47.9177 111.496C48.4124 111.711 48.8044 112 49.0937 112.364V108.64H50.7037V119H49.0937V117.838C48.8324 118.211 48.4684 118.519 48.0017 118.762C47.5444 119.005 47.0171 119.126 46.4197 119.126C45.7477 119.126 45.1317 118.958 44.5717 118.622C44.0211 118.277 43.5824 117.801 43.2557 117.194C42.9384 116.578 42.7797 115.883 42.7797 115.108ZM49.0937 115.136C49.0937 114.604 48.9817 114.142 48.7577 113.75C48.5431 113.358 48.2584 113.059 47.9037 112.854C47.5491 112.649 47.1664 112.546 46.7557 112.546C46.3451 112.546 45.9624 112.649 45.6077 112.854C45.2531 113.05 44.9637 113.344 44.7397 113.736C44.5251 114.119 44.4177 114.576 44.4177 115.108C44.4177 115.64 44.5251 116.107 44.7397 116.508C44.9637 116.909 45.2531 117.217 45.6077 117.432C45.9717 117.637 46.3544 117.74 46.7557 117.74C47.1664 117.74 47.5491 117.637 47.9037 117.432C48.2584 117.227 48.5431 116.928 48.7577 116.536C48.9817 116.135 49.0937 115.668 49.0937 115.136ZM52.268 115.108C52.268 114.333 52.4267 113.647 52.744 113.05C53.0707 112.453 53.5093 111.991 54.06 111.664C54.62 111.328 55.2407 111.16 55.922 111.16C56.426 111.16 56.9207 111.272 57.406 111.496C57.9007 111.711 58.2927 112 58.582 112.364V108.64H60.192V119H58.582V117.838C58.3207 118.211 57.9567 118.519 57.49 118.762C57.0327 119.005 56.5053 119.126 55.908 119.126C55.236 119.126 54.62 118.958 54.06 118.622C53.5093 118.277 53.0707 117.801 52.744 117.194C52.4267 116.578 52.268 115.883 52.268 115.108ZM58.582 115.136C58.582 114.604 58.47 114.142 58.246 113.75C58.0313 113.358 57.7467 113.059 57.392 112.854C57.0373 112.649 56.6547 112.546 56.244 112.546C55.8333 112.546 55.4507 112.649 55.096 112.854C54.7413 113.05 54.452 113.344 54.228 113.736C54.0133 114.119 53.906 114.576 53.906 115.108C53.906 115.64 54.0133 116.107 54.228 116.508C54.452 116.909 54.7413 117.217 55.096 117.432C55.46 117.637 55.8427 117.74 56.244 117.74C56.6547 117.74 57.0373 117.637 57.392 117.432C57.7467 117.227 58.0313 116.928 58.246 116.536C58.47 116.135 58.582 115.668 58.582 115.136ZM66.737 110.264C66.4477 110.264 66.205 110.166 66.009 109.97C65.813 109.774 65.715 109.531 65.715 109.242C65.715 108.953 65.813 108.71 66.009 108.514C66.205 108.318 66.4477 108.22 66.737 108.22C67.017 108.22 67.255 108.318 67.451 108.514C67.647 108.71 67.745 108.953 67.745 109.242C67.745 109.531 67.647 109.774 67.451 109.97C67.255 110.166 67.017 110.264 66.737 110.264ZM67.521 111.286V119H65.925V111.286H67.521ZM78.9544 111.16C79.5611 111.16 80.1024 111.286 80.5784 111.538C81.0637 111.79 81.4417 112.163 81.7124 112.658C81.9924 113.153 82.1324 113.75 82.1324 114.45V119H80.5504V114.688C80.5504 113.997 80.3777 113.47 80.0324 113.106C79.6871 112.733 79.2157 112.546 78.6184 112.546C78.0211 112.546 77.5451 112.733 77.1904 113.106C76.8451 113.47 76.6724 113.997 76.6724 114.688V119H75.0904V114.688C75.0904 113.997 74.9177 113.47 74.5724 113.106C74.2271 112.733 73.7557 112.546 73.1584 112.546C72.5611 112.546 72.0851 112.733 71.7304 113.106C71.3851 113.47 71.2124 113.997 71.2124 114.688V119H69.6164V111.286H71.2124V112.168C71.4737 111.851 71.8051 111.603 72.2064 111.426C72.6077 111.249 73.0371 111.16 73.4944 111.16C74.1104 111.16 74.6611 111.291 75.1464 111.552C75.6317 111.813 76.0051 112.191 76.2664 112.686C76.4997 112.219 76.8637 111.851 77.3584 111.58C77.8531 111.3 78.3851 111.16 78.9544 111.16ZM83.6313 115.108C83.6313 114.333 83.7899 113.647 84.1073 113.05C84.4339 112.453 84.8726 111.991 85.4233 111.664C85.9833 111.328 86.5993 111.16 87.2713 111.16C87.8779 111.16 88.4053 111.281 88.8533 111.524C89.3106 111.757 89.6746 112.051 89.9453 112.406V111.286H91.5553V119H89.9453V117.852C89.6746 118.216 89.3059 118.519 88.8393 118.762C88.3726 119.005 87.8406 119.126 87.2433 119.126C86.5806 119.126 85.9739 118.958 85.4233 118.622C84.8726 118.277 84.4339 117.801 84.1073 117.194C83.7899 116.578 83.6313 115.883 83.6313 115.108ZM89.9453 115.136C89.9453 114.604 89.8333 114.142 89.6093 113.75C89.3946 113.358 89.1099 113.059 88.7553 112.854C88.4006 112.649 88.0179 112.546 87.6073 112.546C87.1966 112.546 86.8139 112.649 86.4593 112.854C86.1046 113.05 85.8153 113.344 85.5913 113.736C85.3766 114.119 85.2693 114.576 85.2693 115.108C85.2693 115.64 85.3766 116.107 85.5913 116.508C85.8153 116.909 86.1046 117.217 86.4593 117.432C86.8233 117.637 87.2059 117.74 87.6073 117.74C88.0179 117.74 88.4006 117.637 88.7553 117.432C89.1099 117.227 89.3946 116.928 89.6093 116.536C89.8333 116.135 89.9453 115.668 89.9453 115.136ZM96.7596 111.16C97.3569 111.16 97.8842 111.281 98.3416 111.524C98.8082 111.757 99.1722 112.051 99.4336 112.406V111.286H101.044V119.126C101.044 119.835 100.894 120.465 100.596 121.016C100.297 121.576 99.8629 122.015 99.2936 122.332C98.7336 122.649 98.0616 122.808 97.2776 122.808C96.2322 122.808 95.3642 122.561 94.6736 122.066C93.9829 121.581 93.5909 120.918 93.4976 120.078H95.0796C95.2009 120.479 95.4576 120.801 95.8496 121.044C96.2509 121.296 96.7269 121.422 97.2776 121.422C97.9216 121.422 98.4396 121.226 98.8316 120.834C99.2329 120.442 99.4336 119.873 99.4336 119.126V117.838C99.1629 118.202 98.7942 118.51 98.3276 118.762C97.8702 119.005 97.3476 119.126 96.7596 119.126C96.0876 119.126 95.4716 118.958 94.9116 118.622C94.3609 118.277 93.9222 117.801 93.5956 117.194C93.2782 116.578 93.1196 115.883 93.1196 115.108C93.1196 114.333 93.2782 113.647 93.5956 113.05C93.9222 112.453 94.3609 111.991 94.9116 111.664C95.4716 111.328 96.0876 111.16 96.7596 111.16ZM99.4336 115.136C99.4336 114.604 99.3216 114.142 99.0976 113.75C98.8829 113.358 98.5982 113.059 98.2436 112.854C97.8889 112.649 97.5062 112.546 97.0956 112.546C96.6849 112.546 96.3022 112.649 95.9476 112.854C95.5929 113.05 95.3036 113.344 95.0796 113.736C94.8649 114.119 94.7576 114.576 94.7576 115.108C94.7576 115.64 94.8649 116.107 95.0796 116.508C95.3036 116.909 95.5929 117.217 95.9476 117.432C96.3116 117.637 96.6942 117.74 97.0956 117.74C97.5062 117.74 97.8889 117.637 98.2436 117.432C98.5982 117.227 98.8829 116.928 99.0976 116.536C99.3216 116.135 99.4336 115.668 99.4336 115.136ZM110.21 114.954C110.21 115.243 110.191 115.505 110.154 115.738H104.26C104.307 116.354 104.535 116.849 104.946 117.222C105.357 117.595 105.861 117.782 106.458 117.782C107.317 117.782 107.923 117.423 108.278 116.704H110C109.767 117.413 109.342 117.997 108.726 118.454C108.119 118.902 107.363 119.126 106.458 119.126C105.721 119.126 105.058 118.963 104.47 118.636C103.891 118.3 103.434 117.833 103.098 117.236C102.771 116.629 102.608 115.929 102.608 115.136C102.608 114.343 102.767 113.647 103.084 113.05C103.411 112.443 103.863 111.977 104.442 111.65C105.03 111.323 105.702 111.16 106.458 111.16C107.186 111.16 107.835 111.319 108.404 111.636C108.973 111.953 109.417 112.401 109.734 112.98C110.051 113.549 110.21 114.207 110.21 114.954ZM108.544 114.45C108.535 113.862 108.325 113.391 107.914 113.036C107.503 112.681 106.995 112.504 106.388 112.504C105.837 112.504 105.366 112.681 104.974 113.036C104.582 113.381 104.349 113.853 104.274 114.45H108.544Z" fill="#0F172A"/>
</svg>
