<svg width="122" height="60" viewBox="0 0 122 60" fill="none" xmlns="http://www.w3.org/2000/svg">
<path fill-rule="evenodd" clip-rule="evenodd" d="M1.90743e-06 0L94 8.58307e-06V30H63.4L63.4 60L4.29153e-06 60L0 30L1.90743e-06 0ZM12.8044 23C10.8603 23 9.26389 22.5454 8.01523 21.6362C6.76658 20.7114 6.09484 19.3947 6 17.686H10.9551C11.0025 18.266 11.1764 18.6893 11.4767 18.9557C11.777 19.2222 12.1642 19.3555 12.6384 19.3555C13.0652 19.3555 13.4129 19.2536 13.6816 19.0498C13.9661 18.8303 14.1083 18.5325 14.1083 18.1563C14.1083 17.6704 13.8792 17.2942 13.4208 17.0277C12.9624 16.7612 12.2196 16.4634 11.1922 16.1342C10.1016 15.7736 9.21647 15.4288 8.53682 15.0996C7.87298 14.7547 7.28817 14.261 6.78239 13.6183C6.29241 12.9599 6.04742 12.1056 6.04742 11.0553C6.04742 9.9894 6.31612 9.08023 6.85351 8.32781C7.39091 7.55971 8.13378 6.97972 9.08212 6.58784C10.0305 6.19595 11.1053 6.00001 12.3065 6.00001C14.2506 6.00001 15.7996 6.45459 16.9534 7.36377C18.123 8.25727 18.7473 9.51914 18.8264 11.1494H13.7764C13.7606 10.6478 13.6026 10.2716 13.3022 10.0208C13.0177 9.76995 12.6463 9.64454 12.1879 9.64454C11.8402 9.64454 11.5557 9.74643 11.3344 9.95021C11.1132 10.154 11.0025 10.444 11.0025 10.8202C11.0025 11.1337 11.1211 11.408 11.3581 11.6432C11.611 11.8626 11.9192 12.0586 12.2828 12.231C12.6463 12.3877 13.1837 12.5915 13.895 12.8423C14.9539 13.2029 15.8233 13.5634 16.5029 13.9239C17.1984 14.2688 17.7911 14.7626 18.2811 15.4053C18.7868 16.0323 19.0397 16.8317 19.0397 17.8036C19.0397 18.7912 18.7868 19.6768 18.2811 20.4606C17.7911 21.2444 17.0719 21.8635 16.1236 22.3181C15.191 22.7727 14.0846 23 12.8044 23ZM35.923 6.25865V22.8354H31.2761V16.1812H25.6098V22.8354H20.9629V6.25865H25.6098V12.4896H31.2761V6.25865H35.923ZM42.0437 21.9184C43.3556 22.6395 44.7939 23 46.3587 23C47.9235 23 49.3618 22.6395 50.6737 21.9184C51.9855 21.1817 53.0208 20.1706 53.7795 18.8852C54.5382 17.5841 54.9175 16.1185 54.9175 14.4883C54.9175 12.858 54.5382 11.4002 53.7795 10.1148C53.0208 8.81375 51.9855 7.80268 50.6737 7.08161C49.3776 6.36054 47.9393 6.00001 46.3587 6.00001C44.7939 6.00001 43.3556 6.36054 42.0437 7.08161C40.7319 7.80268 39.6887 8.81375 38.9142 10.1148C38.1555 11.4002 37.7762 12.858 37.7762 14.4883C37.7762 16.1185 38.1555 17.5841 38.9142 18.8852C39.6887 20.1706 40.7319 21.1817 42.0437 21.9184ZM49.1563 17.5685C48.4767 18.3366 47.5441 18.7206 46.3587 18.7206C45.1575 18.7206 44.217 18.3444 43.5374 17.592C42.8577 16.8239 42.5179 15.7893 42.5179 14.4883C42.5179 13.1715 42.8577 12.1369 43.5374 11.3845C44.217 10.6164 45.1575 10.2324 46.3587 10.2324C47.5441 10.2324 48.4767 10.6164 49.1563 11.3845C49.8518 12.1369 50.1995 13.1715 50.1995 14.4883C50.1995 15.7736 49.8518 16.8004 49.1563 17.5685ZM61.3214 6.25865V15.8755C61.3214 16.769 61.5269 17.4587 61.9378 17.9447C62.3646 18.4306 63.0047 18.6736 63.8582 18.6736C64.7117 18.6736 65.3519 18.4306 65.7786 17.9447C66.2212 17.4431 66.4425 16.7533 66.4425 15.8755V6.25865H71.0893V15.8755C71.0893 17.396 70.7653 18.6971 70.1173 19.7787C69.4693 20.8446 68.5841 21.6519 67.4619 22.2006C66.3555 22.7335 65.1227 23 63.7634 23C62.4041 23 61.187 22.7335 60.1123 22.2006C59.0533 21.6519 58.2156 20.8446 57.5992 19.7787C56.9985 18.7128 56.6982 17.4117 56.6982 15.8755V6.25865H61.3214ZM86 9.9267V6.25865H72.4861V9.9267H76.8959V22.8354H81.5428V9.9267H86ZM115.475 3.8147e-06L100.234 7.16311L101.769 10.4792L117.009 3.31607L115.475 3.8147e-06ZM102.082 13.168H118.882V16.8164H102.082V13.168ZM101.534 19.5298L116.755 26.6835L115.221 29.9996L100 22.8458L101.534 19.5298ZM10.2477 51.9184C11.5535 52.6395 12.9852 53 14.5427 53C16.1002 53 17.5318 52.6395 18.8376 51.9184C20.1434 51.1817 21.1739 50.1706 21.929 48.8852C22.6842 47.5841 23.0618 46.1185 23.0618 44.4882C23.0618 42.858 22.6842 41.4002 21.929 40.1148C21.1739 38.8137 20.1434 37.8027 18.8376 37.0816C17.5476 36.3605 16.1159 36 14.5427 36C12.9852 36 11.5535 36.3605 10.2477 37.0816C8.94195 37.8027 7.90362 38.8137 7.13273 40.1148C6.37758 41.4002 6 42.858 6 44.4882C6 46.1185 6.37758 47.5841 7.13273 48.8852C7.90362 50.1706 8.94195 51.1817 10.2477 51.9184ZM17.3273 47.5685C16.6508 48.3366 15.7226 48.7206 14.5427 48.7206C13.347 48.7206 12.4109 48.3444 11.7344 47.592C11.058 46.8239 10.7197 45.7893 10.7197 44.4882C10.7197 43.1715 11.058 42.1369 11.7344 41.3845C12.4109 40.6164 13.347 40.2324 14.5427 40.2324C15.7226 40.2324 16.6508 40.6164 17.3273 41.3845C18.0195 42.1369 18.3656 43.1715 18.3656 44.4882C18.3656 45.7736 18.0195 46.8004 17.3273 47.5685ZM29.4359 45.8755V36.2586H24.8342V45.8755C24.8342 47.4117 25.1331 48.7128 25.731 49.7787C26.3445 50.8446 27.1783 51.6519 28.2324 52.2006C29.3022 52.7335 30.5136 53 31.8666 53C33.2196 53 34.4467 52.7335 35.548 52.2006C36.665 51.6519 37.546 50.8446 38.191 49.7787C38.836 48.6971 39.1585 47.396 39.1585 45.8755V36.2586H34.5332V45.8755C34.5332 46.7533 34.313 47.4431 33.8725 47.9447C33.4477 48.4306 32.8105 48.6736 31.961 48.6736C31.1114 48.6736 30.4743 48.4306 30.0495 47.9447C29.6405 47.4587 29.4359 46.769 29.4359 45.8755ZM54 36.2586V39.9267H49.5635V52.8354H44.9382V39.9267H40.5488V36.2586H54Z" fill="#0F172A"/>
</svg>
