<svg width="48" height="30" viewBox="0 0 48 30" fill="none" xmlns="http://www.w3.org/2000/svg">
<rect width="48" height="30" rx="4" fill="white"/>
<path d="M27.3533 9.10437H20.6265V20.8956H27.3533V9.10437Z" fill="#FF5A00"/>
<path d="M21.0744 15C21.0744 12.6044 22.2287 10.4782 24 9.10437C22.6964 8.10437 21.052 7.5 19.2584 7.5C15.0093 7.5 11.5713 10.8544 11.5713 15C11.5713 19.1456 15.0093 22.5 19.2584 22.5C21.052 22.5 22.6964 21.8956 24 20.8956C22.2262 19.5413 21.0744 17.3956 21.0744 15Z" fill="#EB001B"/>
<path d="M36.4287 15C36.4287 19.1456 32.9906 22.5 28.7416 22.5C26.948 22.5 25.3036 21.8956 24 20.8956C25.7936 19.5194 26.9256 17.3956 26.9256 15C26.9256 12.6044 25.7713 10.4782 24 9.10437C25.3011 8.10437 26.9455 7.5 28.7391 7.5C32.9906 7.5 36.4287 10.8762 36.4287 15Z" fill="#F79E1B"/>
</svg>
