<svg width="24" height="24" viewBox="0 0 24 24" fill="none" xmlns="http://www.w3.org/2000/svg">
<path fill-rule="evenodd" clip-rule="evenodd" d="M7.50363 7.79405C6.32227 8.65322 5.5 9.99047 5.5 12C5.5 12.9325 5.67734 13.7106 5.97324 14.3573C6.2263 14.9105 6.40222 15.5912 6.26869 16.3034L6.0065 17.7017C5.9741 17.8745 6.12548 18.0259 6.29829 17.9935L9.50567 17.3921C9.85667 17.3263 10.203 17.3345 10.5253 17.3856C11.0119 17.4627 11.5079 17.5 12 17.5C13.6402 17.5 15.284 17.0876 16.4964 16.2059C17.6777 15.3468 18.5 14.0095 18.5 12C18.5 9.99047 17.6777 8.65322 16.4964 7.79405C15.284 6.91235 13.6402 6.5 12 6.5C10.3598 6.5 8.71597 6.91235 7.50363 7.79405ZM6.62137 6.58095C8.15903 5.46265 10.1402 5 12 5C13.8598 5 15.841 5.46265 17.3786 6.58095C18.9473 7.72178 20 9.50953 20 12C20 14.4905 18.9473 16.2782 17.3786 17.4191C15.841 18.5374 13.8598 19 12 19C11.4329 19 10.8582 18.9571 10.2903 18.8671C10.1059 18.8378 9.93533 18.8377 9.7821 18.8664L6.57472 19.4678C5.36506 19.6946 4.30538 18.6349 4.53219 17.4253L4.79438 16.0269C4.85129 15.7234 4.78606 15.3679 4.60921 14.9814C4.21543 14.1206 4 13.1271 4 12C4 9.50953 5.05273 7.72178 6.62137 6.58095Z" fill="#0F172A"/>
<path fill-rule="evenodd" clip-rule="evenodd" d="M8 12C8 11.4477 8.44772 11 9 11C9.55228 11 10 11.4477 10 12C10 12.5523 9.55228 13 9 13C8.44772 13 8 12.5523 8 12Z" fill="#0F172A"/>
<path fill-rule="evenodd" clip-rule="evenodd" d="M11 12C11 11.4477 11.4477 11 12 11C12.5523 11 13 11.4477 13 12C13 12.5523 12.5523 13 12 13C11.4477 13 11 12.5523 11 12Z" fill="#0F172A"/>
<path fill-rule="evenodd" clip-rule="evenodd" d="M14 12C14 11.4477 14.4477 11 15 11C15.5523 11 16 11.4477 16 12C16 12.5523 15.5523 13 15 13C14.4477 13 14 12.5523 14 12Z" fill="#0F172A"/>
</svg>
