<svg width="24" height="24" viewBox="0 0 24 24" fill="none" xmlns="http://www.w3.org/2000/svg">
<path fill-rule="evenodd" clip-rule="evenodd" d="M4.78456 5.6376C5.23081 4.6403 6.20968 4 7.28807 4H16.7124C17.7908 4 18.7697 4.6403 19.2159 5.6376L19.7538 6.83958C19.7933 6.92794 19.8282 7.01814 19.8583 7.10979C19.9475 7.23512 20 7.38908 20 7.5555C20 7.63395 19.9977 7.71279 19.9929 7.79178C19.9978 7.85949 20.0002 7.92747 20.0002 7.99559V17.2064C20.0002 18.7493 18.769 20 17.2502 20H6.75024C5.23146 20 4.00024 18.7493 4.00024 17.2064V7.99559C4.00024 7.92873 4.00261 7.86199 4.00731 7.79552C4.00242 7.71527 4 7.63519 4 7.5555C4 7.38851 4.05288 7.23407 4.14257 7.10851C4.17264 7.01729 4.20739 6.92753 4.24674 6.83958L4.78456 5.6376ZM5.50024 10.4589V17.2064C5.50024 17.9077 6.05989 18.4762 6.75024 18.4762H8.99963V15.6816C8.99963 14.1387 10.2309 12.888 11.7496 12.888H12.2496C13.7684 12.888 14.9996 14.1387 14.9996 15.6816V18.4762H17.2502C17.9406 18.4762 18.5002 17.9077 18.5002 17.2064V10.4586C18.0784 10.7105 17.5747 10.857 17 10.857C15.9352 10.857 15.0694 10.3658 14.5 9.6559C13.9306 10.3658 13.0648 10.857 12 10.857C10.9352 10.857 10.0694 10.3658 9.5 9.6559C8.93059 10.3658 8.06484 10.857 7 10.857C6.42551 10.857 5.922 10.7106 5.50024 10.4589ZM10.25 7.5555C10.25 8.44888 10.9634 9.33325 12 9.33325C13.0366 9.33325 13.75 8.44888 13.75 7.5555C13.75 7.13472 14.0858 6.7936 14.5 6.7936C14.9142 6.7936 15.25 7.13472 15.25 7.5555C15.25 8.44888 15.9634 9.33325 17 9.33325C17.5157 9.33325 17.8648 9.12435 18.1014 8.82332C18.3091 8.55909 18.4453 8.2006 18.4867 7.80908C18.4696 7.69229 18.4366 7.57818 18.3882 7.47013L17.8504 6.26815C17.6475 5.81483 17.2026 5.52379 16.7124 5.52379H7.28807C6.79789 5.52379 6.35295 5.81483 6.15011 6.26815L5.61229 7.47013C5.56367 7.57878 5.5305 7.69356 5.51352 7.81104C5.55515 8.20179 5.69127 8.55953 5.8986 8.82332C6.1352 9.12435 6.48429 9.33325 7 9.33325C8.03656 9.33325 8.75 8.44888 8.75 7.5555C8.75 7.13472 9.08579 6.7936 9.5 6.7936C9.91421 6.7936 10.25 7.13472 10.25 7.5555ZM13.4996 18.4752V15.6816C13.4996 14.9803 12.94 14.4118 12.2496 14.4118H11.7496C11.0593 14.4118 10.4996 14.9803 10.4996 15.6816V18.4752H13.4996Z" fill="#0F172A"/>
</svg>
