<svg width="25" height="25" viewBox="0 0 25 25" fill="none" xmlns="http://www.w3.org/2000/svg">
<path fill-rule="evenodd" clip-rule="evenodd" d="M11.0916 18.15C11.0916 17.5931 11.543 17.1417 12.0999 17.1417C12.6568 17.1417 13.1083 17.5931 13.1083 18.15C13.1083 18.7069 12.6568 19.1583 12.0999 19.1583C11.543 19.1583 11.0916 18.7069 11.0916 18.15Z" fill="#FF6868"/>
<path fill-rule="evenodd" clip-rule="evenodd" d="M12.0999 6.55419C9.28581 6.55419 7.15152 7.59327 5.22217 8.93903C4.87961 9.17798 4.4082 9.09398 4.16925 8.75142C3.93031 8.40886 4.01431 7.93745 4.35687 7.6985C6.429 6.25315 8.86406 5.04169 12.0999 5.04169C12.8365 5.04169 13.5341 5.10451 14.1978 5.21983C14.6093 5.29133 14.885 5.68288 14.8135 6.09438C14.742 6.50588 14.3504 6.7815 13.9389 6.71C13.3608 6.60955 12.7498 6.55419 12.0999 6.55419ZM18.9368 5.26319C19.2321 5.55852 19.2321 6.03735 18.9368 6.33269L18.4577 6.81176C18.9397 7.09062 19.4001 7.38955 19.843 7.6985C20.1856 7.93745 20.2696 8.40886 20.0306 8.75142C19.7917 9.09398 19.3203 9.17798 18.9777 8.93903C18.4512 8.57182 17.9109 8.22845 17.3466 7.92284L15.5254 9.74402C16.1497 9.99863 16.7391 10.3206 17.2845 10.7009C17.6271 10.9398 17.7112 11.4111 17.4724 11.7538C17.2335 12.0964 16.7621 12.1805 16.4195 11.9416C15.7903 11.503 15.0917 11.1578 14.3437 10.9258L12.1607 13.1087C13.2451 13.1216 14.2489 13.4775 15.0661 14.0728C15.4037 14.3188 15.4779 14.7918 15.232 15.1294C14.9861 15.467 14.513 15.5412 14.1754 15.2953C13.5931 14.871 12.8768 14.6209 12.0999 14.6209C11.3231 14.6209 10.6068 14.871 10.0244 15.2953C9.98489 15.3241 9.94349 15.3485 9.90082 15.3686L7.34093 17.9285C7.0456 18.2239 6.56677 18.2239 6.27144 17.9285C5.9761 17.6332 5.9761 17.1544 6.27144 16.859L17.8673 5.26319C18.1626 4.96785 18.6414 4.96785 18.9368 5.26319ZM11.1731 9.84783C11.2564 10.2571 10.9922 10.6564 10.5829 10.7397C9.55874 10.9482 8.60954 11.3638 7.78076 11.9416C7.43814 12.1805 6.96675 12.0964 6.72789 11.7538C6.48903 11.4111 6.57315 10.9398 6.91577 10.7009C7.90997 10.0078 9.05016 9.50819 10.2812 9.25761C10.6905 9.17431 11.0898 9.43856 11.1731 9.84783Z" fill="#FF6868"/>
</svg>
