<svg width="24" height="24" viewBox="0 0 24 24" fill="none" xmlns="http://www.w3.org/2000/svg">
<path fill-rule="evenodd" clip-rule="evenodd" d="M18.4069 2.833C18.4991 2.42918 18.9012 2.17655 19.305 2.26873C19.3049 2.2687 19.305 2.26873 19.1381 2.99992L19.305 2.26873L19.3063 2.26903L19.3079 2.26939L19.312 2.27035L19.3237 2.27313C19.333 2.27538 19.3453 2.27843 19.3603 2.28229C19.3903 2.29 19.4314 2.30104 19.4811 2.31558C19.58 2.34447 19.7162 2.38813 19.8694 2.44836C20.1579 2.56178 20.5823 2.76264 20.9099 3.09023C21.2375 3.41781 21.4384 3.84227 21.5518 4.13077C21.612 4.28398 21.6557 4.4202 21.6846 4.51904C21.6991 4.56877 21.7101 4.60984 21.7178 4.63985C21.7217 4.65487 21.7247 4.66717 21.727 4.67647L21.7298 4.68814L21.7307 4.69222L21.7311 4.69381L21.7313 4.69481L21.0002 4.86199C21.7314 4.69511 21.7314 4.69496 21.7313 4.69481C21.8235 5.09864 21.5709 5.50102 21.1671 5.59319C20.7634 5.68532 20.3614 5.43288 20.2691 5.0293L20.2651 5.0133C20.261 4.9976 20.2543 4.97241 20.2448 4.93989C20.2256 4.87425 20.1961 4.78204 20.1558 4.67951C20.0681 4.45654 19.9587 4.26028 19.8493 4.15088C19.7399 4.04149 19.5436 3.93203 19.3206 3.84437C19.2181 3.80407 19.1259 3.7745 19.0602 3.75531C19.0277 3.74581 19.0025 3.73908 18.9868 3.73504L18.9709 3.73105C18.5672 3.63874 18.3148 3.23674 18.4069 2.833ZM11.9999 2.24991C7.98628 2.24991 4.73262 5.50357 4.73262 9.51715V11.8323L2.32125 16.9564C2.21192 17.1888 2.22904 17.4609 2.36661 17.6776C2.50419 17.8944 2.74311 18.0258 2.99986 18.0258H7.5611C7.57035 18.0955 7.58209 18.1719 7.59701 18.254C7.66498 18.6278 7.80224 19.1362 8.08381 19.6524C8.36765 20.1728 8.80143 20.7063 9.45675 21.1067C10.1138 21.5083 10.9513 21.7502 12.0009 21.7502C13.0505 21.7502 13.888 21.5083 14.545 21.1067C15.2003 20.7063 15.6341 20.1728 15.9179 19.6524C16.1995 19.1362 16.3367 18.6278 16.4047 18.254C16.4196 18.1719 16.4314 18.0955 16.4406 18.0258H20.9999C21.2566 18.0258 21.4955 17.8944 21.6331 17.6776C21.7707 17.4609 21.7878 17.1888 21.6785 16.9564L19.2671 11.8323V9.51715C19.2671 5.50357 16.0135 2.24991 11.9999 2.24991ZM14.9214 18.0258C14.8708 18.286 14.7759 18.6136 14.6011 18.9342C14.4194 19.2672 14.1549 19.5872 13.7628 19.8268C13.3724 20.0654 12.8133 20.2502 12.0009 20.2502C11.1884 20.2502 10.6293 20.0654 10.2389 19.8268C9.84683 19.5872 9.58234 19.2672 9.40066 18.9342C9.22583 18.6136 9.13089 18.286 9.08036 18.0258H14.9214ZM6.23262 9.51715C6.23262 6.33199 8.81471 3.74991 11.9999 3.74991C15.185 3.74991 17.7671 6.33199 17.7671 9.51715V11.9999C17.7671 12.1103 17.7915 12.2194 17.8385 12.3193L19.818 16.5258H4.1817L6.16124 12.3193C6.20825 12.2194 6.23262 12.1103 6.23262 11.9999V9.51715ZM2.83297 5.59319C3.23671 5.68533 3.63871 5.43282 3.73099 5.02915L5.59312 2.833C5.50093 2.42918 5.09854 2.17661 4.69472 2.26879L4.69372 2.26902L4.69213 2.26939L4.68804 2.27034L4.67638 2.27313C4.66708 2.27538 4.65477 2.27842 4.63975 2.28229C4.60975 2.29 4.56868 2.30103 4.51895 2.31557C4.4201 2.34447 4.28388 2.38813 4.13067 2.44836C3.84216 2.56177 3.4177 2.76264 3.09012 3.09022C2.76253 3.41781 2.56168 3.84227 2.44827 4.13077C2.38805 4.28398 2.34439 4.42019 2.3155 4.51904C2.30096 4.56877 2.28993 4.60984 2.28222 4.63984C2.27836 4.65486 2.27531 4.66717 2.27306 4.67647L2.27028 4.68813L2.26933 4.69222L2.26896 4.69381L2.26866 4.6951C2.17649 5.09893 2.42915 5.50102 2.83297 5.59319ZM4.86193 2.99992L4.69472 2.26879C4.69487 2.26876 4.69501 2.26873 4.86193 2.99992Z" fill="#64748B"/>
</svg>
