<svg width="24" height="24" viewBox="0 0 24 24" fill="none" xmlns="http://www.w3.org/2000/svg">
<rect width="24" height="24" rx="12" fill="#FFB13C"/>
<path fill-rule="evenodd" clip-rule="evenodd" d="M10 7.16667C10 6.89053 10.2239 6.66667 10.5 6.66667H13.5C13.7762 6.66667 14 6.89053 14 7.16667C14 7.44281 13.7762 7.66667 13.5 7.66667H12.5V8.02647C13.4138 8.12381 14.2488 8.48491 14.9274 9.03216L15.1465 8.81311C15.3417 8.61785 15.6583 8.61785 15.8536 8.81311C16.0488 9.00838 16.0488 9.32496 15.8536 9.52022L15.6345 9.73927C16.2801 10.5398 16.6667 11.5581 16.6667 12.6667C16.6667 15.244 14.5773 17.3333 12 17.3333C9.42268 17.3333 7.33334 15.244 7.33334 12.6667C7.33334 10.2583 9.15779 8.27596 11.5 8.02647V7.66667H10.5C10.2239 7.66667 10 7.44281 10 7.16667ZM12 9C9.97497 9 8.33334 10.6416 8.33334 12.6667C8.33334 14.6917 9.97497 16.3333 12 16.3333C14.0251 16.3333 15.6667 14.6917 15.6667 12.6667C15.6667 10.6416 14.0251 9 12 9ZM12 10C12.2762 10 12.5 10.2239 12.5 10.5V12.8333C12.5 13.1095 12.2762 13.3333 12 13.3333C11.7239 13.3333 11.5 13.1095 11.5 12.8333V10.5C11.5 10.2239 11.7239 10 12 10Z" fill="white"/>
</svg>
