<svg width="24" height="24" viewBox="0 0 24 24" fill="none" xmlns="http://www.w3.org/2000/svg">
<rect width="24" height="24" rx="12" fill="#41C6FF"/>
<path d="M16.6667 9.53317C16.6667 9.79984 16.4 9.99984 16.1333 9.99984C15.5333 9.93317 14.6667 9.6665 14 9.13317V13.9998C14 15.8665 12.5333 17.3332 10.6667 17.3332C8.8 17.3332 7.33334 15.8665 7.33334 13.9998C7.33334 12.1998 8.93334 10.6665 10.8667 10.6665C11.1333 10.6665 11.3333 10.8665 11.3333 11.1998C11.3333 11.4665 11.1333 11.7332 10.8 11.7332C9.46667 11.7332 8.26667 12.7998 8.26667 14.0665C8.26667 15.3332 9.33334 16.3998 10.6 16.3998C11.8667 16.3998 12.9333 15.3332 12.9333 14.0665V7.19984C13 6.8665 13.2 6.6665 13.5333 6.6665C13.8667 6.6665 14 6.8665 14 7.19984C14 8.73317 16.1333 8.99984 16.2 9.0665C16.5333 9.0665 16.6667 9.2665 16.6667 9.53317Z" fill="white"/>
</svg>
