<svg width="24" height="24" viewBox="0 0 24 24" fill="none" xmlns="http://www.w3.org/2000/svg">
<rect width="24" height="24" rx="12" fill="#41C6FF"/>
<path fill-rule="evenodd" clip-rule="evenodd" d="M6.66666 9.1665C6.66666 7.78579 7.78595 6.6665 9.16666 6.6665H14.8333C16.214 6.6665 17.3333 7.78579 17.3333 9.1665V14.8332C17.3333 16.2139 16.214 17.3332 14.8333 17.3332H9.16666C7.78595 17.3332 6.66666 16.2139 6.66666 14.8332V9.1665ZM9.16666 7.6665C8.33824 7.6665 7.66666 8.33808 7.66666 9.1665V14.8332C7.66666 15.6616 8.33824 16.3332 9.16666 16.3332H14.8333C15.6618 16.3332 16.3333 15.6616 16.3333 14.8332V9.1665C16.3333 8.33808 15.6618 7.6665 14.8333 7.6665H9.16666Z" fill="white"/>
<path fill-rule="evenodd" clip-rule="evenodd" d="M14 9.33317C14 8.96498 14.2985 8.6665 14.6667 8.6665C15.0349 8.6665 15.3333 8.96498 15.3333 9.33317C15.3333 9.70136 15.0349 9.99984 14.6667 9.99984C14.2985 9.99984 14 9.70136 14 9.33317Z" fill="white"/>
<path fill-rule="evenodd" clip-rule="evenodd" d="M12 10.9998C11.0795 10.9998 10.3333 11.746 10.3333 12.6665C10.3333 13.587 11.0795 14.3332 12 14.3332C12.9205 14.3332 13.6667 13.587 13.6667 12.6665C13.6667 11.746 12.9205 10.9998 12 10.9998ZM9.33333 12.6665C9.33333 11.1937 10.5272 9.99984 12 9.99984C13.4728 9.99984 14.6667 11.1937 14.6667 12.6665C14.6667 14.1393 13.4728 15.3332 12 15.3332C10.5272 15.3332 9.33333 14.1393 9.33333 12.6665Z" fill="white"/>
</svg>
