<svg width="24" height="24" viewBox="0 0 24 24" fill="none" xmlns="http://www.w3.org/2000/svg">
<rect width="24" height="24" rx="12" fill="#64748B"/>
<path fill-rule="evenodd" clip-rule="evenodd" d="M7.43219 6.86804C7.52653 6.74123 7.67528 6.6665 7.83333 6.6665H16.1667C16.3247 6.6665 16.4735 6.74123 16.5678 6.86804C16.6622 6.99484 16.691 7.15879 16.6456 7.31018L15.9118 9.75597C15.6311 10.6919 15.0742 11.4803 14.3056 11.9998C15.0742 12.5194 15.6311 13.3078 15.9118 14.2437L16.6456 16.6895C16.691 16.8409 16.6622 17.0048 16.5678 17.1316C16.4735 17.2584 16.3247 17.3332 16.1667 17.3332H7.83333C7.67528 17.3332 7.52653 17.2584 7.43219 17.1316C7.33784 17.0048 7.309 16.8409 7.35442 16.6895L8.08816 14.2437C8.36892 13.3078 8.92578 12.5194 9.69441 11.9998C8.92578 11.4803 8.36892 10.6919 8.08816 9.75597L7.35442 7.31018C7.309 7.15879 7.33784 6.99484 7.43219 6.86804ZM8.50535 7.6665L9.04598 9.46863C9.3507 10.4843 10.0489 11.2271 10.9842 11.5231C11.1921 11.5889 11.3333 11.7818 11.3333 11.9998C11.3333 12.2179 11.1921 12.4107 10.9842 12.4765C10.0489 12.7725 9.3507 13.5153 9.04598 14.531L8.50535 16.3332H15.4947L14.954 14.531C14.6493 13.5153 13.9511 12.7725 13.0158 12.4765C12.8079 12.4107 12.6667 12.2179 12.6667 11.9998C12.6667 11.7818 12.8079 11.5889 13.0158 11.5231C13.9511 11.2271 14.6493 10.4843 14.954 9.46863L15.4947 7.6665H8.50535Z" fill="white"/>
</svg>
