<svg width="24" height="24" viewBox="0 0 24 24" fill="none" xmlns="http://www.w3.org/2000/svg">
<rect width="24" height="24" rx="12" fill="#41C6FF"/>
<path fill-rule="evenodd" clip-rule="evenodd" d="M14.0832 7.55709C14.2358 7.32691 14.546 7.26398 14.7762 7.41653C16.1998 8.36001 17.3333 10.124 17.3333 12C17.3333 13.876 16.1998 15.6399 14.7762 16.5834C14.546 16.736 14.2358 16.673 14.0832 16.4429C13.9307 16.2127 13.9936 15.9024 14.2238 15.7499C15.4116 14.9626 16.3333 13.4915 16.3333 12C16.3333 10.5085 15.4116 9.0373 14.2238 8.25008C13.9936 8.09753 13.9307 7.78727 14.0832 7.55709Z" fill="white"/>
<path fill-rule="evenodd" clip-rule="evenodd" d="M9.91677 7.55711C10.0693 7.78729 10.0064 8.09756 9.77621 8.25011C8.5884 9.03732 7.66666 10.5086 7.66666 12C7.66666 13.4915 8.58839 14.9627 9.77621 15.7499C10.0064 15.9024 10.0693 16.2127 9.91677 16.4429C9.76422 16.6731 9.45395 16.736 9.22377 16.5834C7.80018 15.64 6.66666 13.8761 6.66666 12C6.66666 10.124 7.80018 8.36003 9.22377 7.41655C9.45395 7.264 9.76422 7.32693 9.91677 7.55711Z" fill="white"/>
<path fill-rule="evenodd" clip-rule="evenodd" d="M13.4792 9.48037C13.6741 9.28477 13.9907 9.28423 14.1863 9.47915C14.7615 10.0524 15.3333 11.0419 15.3333 12C15.3333 12.9581 14.7615 13.9476 14.1863 14.5208C13.9907 14.7157 13.6741 14.7152 13.4792 14.5196C13.2842 14.324 13.2848 14.0074 13.4804 13.8125C13.9347 13.3597 14.3333 12.6102 14.3333 12C14.3333 11.3897 13.9347 10.6402 13.4804 10.1875C13.2848 9.99255 13.2842 9.67597 13.4792 9.48037Z" fill="white"/>
<path fill-rule="evenodd" clip-rule="evenodd" d="M10.5208 9.48038C10.7157 9.67598 10.7152 9.99256 10.5196 10.1875C10.0653 10.6403 9.66666 11.3898 9.66666 12C9.66666 12.6103 10.0653 13.3597 10.5196 13.8125C10.7152 14.0074 10.7157 14.324 10.5208 14.5196C10.3259 14.7152 10.0093 14.7157 9.81371 14.5208C9.23849 13.9476 8.66666 12.9581 8.66666 12C8.66666 11.0419 9.23849 10.0524 9.81371 9.47917C10.0093 9.28424 10.3259 9.28479 10.5208 9.48038Z" fill="white"/>
<path fill-rule="evenodd" clip-rule="evenodd" d="M11.3333 12C11.3333 11.6318 11.6318 11.3333 12 11.3333C12.3682 11.3333 12.6667 11.6318 12.6667 12C12.6667 12.3682 12.3682 12.6667 12 12.6667C11.6318 12.6667 11.3333 12.3682 11.3333 12Z" fill="white"/>
</svg>
