<svg width="24" height="24" viewBox="0 0 24 24" fill="none" xmlns="http://www.w3.org/2000/svg">
<rect width="24" height="24" rx="12" fill="#41C6FF"/>
<path fill-rule="evenodd" clip-rule="evenodd" d="M6.66666 8.50001C6.66666 7.48748 7.48747 6.66667 8.49999 6.66667H15.5C16.5125 6.66667 17.3333 7.48748 17.3333 8.50001V15.5C17.3333 16.5125 16.5125 17.3333 15.5 17.3333H8.49999C7.48747 17.3333 6.66666 16.5125 6.66666 15.5V8.50001ZM8.49999 7.66667C8.03975 7.66667 7.66666 8.03977 7.66666 8.50001V15.5C7.66666 15.9602 8.03975 16.3333 8.49999 16.3333H15.5C15.9602 16.3333 16.3333 15.9602 16.3333 15.5V8.50001C16.3333 8.03977 15.9602 7.66667 15.5 7.66667H8.49999ZM9.83332 10C10.1095 10 10.3333 10.2239 10.3333 10.5V14.1667C10.3333 14.4428 10.1095 14.6667 9.83332 14.6667C9.55718 14.6667 9.33332 14.4428 9.33332 14.1667V10.5C9.33332 10.2239 9.55718 10 9.83332 10ZM14.1667 10C14.4428 10 14.6667 10.2239 14.6667 10.5V14.1667C14.6667 14.4428 14.4428 14.6667 14.1667 14.6667C13.8905 14.6667 13.6667 14.4428 13.6667 14.1667V10.5C13.6667 10.2239 13.8905 10 14.1667 10ZM12 12C12.2761 12 12.5 12.2239 12.5 12.5V14.1667C12.5 14.4428 12.2761 14.6667 12 14.6667C11.7238 14.6667 11.5 14.4428 11.5 14.1667V12.5C11.5 12.2239 11.7238 12 12 12Z" fill="white"/>
</svg>
