<svg width="16" height="16" viewBox="0 0 16 16" fill="none" xmlns="http://www.w3.org/2000/svg">
<path fill-rule="evenodd" clip-rule="evenodd" d="M6.33334 3.66667C5.59696 3.66667 5.00001 4.26363 5.00001 5.00001C5.00001 5.73638 5.59696 6.33334 6.33334 6.33334C7.06972 6.33334 7.66668 5.73638 7.66668 5.00001C7.66668 4.26363 7.06972 3.66667 6.33334 3.66667ZM4.00001 5.00001C4.00001 3.71134 5.04468 2.66667 6.33334 2.66667C7.62201 2.66667 8.66668 3.71134 8.66668 5.00001C8.66668 6.28867 7.62201 7.33334 6.33334 7.33334C5.04468 7.33334 4.00001 6.28867 4.00001 5.00001ZM9.33334 3.16667C9.33334 2.89053 9.5572 2.66667 9.83334 2.66667C11.1829 2.66667 12 3.77648 12 5.00001C12 6.22353 11.1829 7.33334 9.83334 7.33334C9.5572 7.33334 9.33334 7.10948 9.33334 6.83334C9.33334 6.5572 9.5572 6.33334 9.83334 6.33334C10.5088 6.33334 11 5.80152 11 5.00001C11 4.19849 10.5088 3.66667 9.83334 3.66667C9.5572 3.66667 9.33334 3.44281 9.33334 3.16667ZM4.43849 10.6763C4.04156 11.1649 3.84286 11.7804 3.74697 12.252C3.74409 12.2661 3.74563 12.2737 3.74669 12.2774C3.74799 12.282 3.75101 12.2887 3.75819 12.2967C3.77309 12.3133 3.80509 12.3333 3.85447 12.3333H8.81222C8.8616 12.3333 8.8936 12.3133 8.9085 12.2967C8.91568 12.2887 8.91869 12.282 8.92 12.2774C8.92106 12.2737 8.9226 12.2662 8.91971 12.252C8.82383 11.7804 8.62513 11.1649 8.2282 10.6763C7.84776 10.2079 7.26957 9.83334 6.33334 9.83334C5.39712 9.83334 4.81893 10.2079 4.43849 10.6763ZM3.66229 10.0458C4.21998 9.35919 5.07645 8.83334 6.33334 8.83334C7.59024 8.83334 8.44671 9.35919 9.0044 10.0458C9.54559 10.7121 9.78851 11.5061 9.89966 12.0527C10.0474 12.7795 9.45368 13.3333 8.81222 13.3333H3.85447C3.21301 13.3333 2.61925 12.7795 2.76703 12.0527C2.87818 11.5061 3.1211 10.7121 3.66229 10.0458ZM10 9.33334C10 9.0572 10.2239 8.83334 10.5 8.83334C11.3981 8.83334 12.0238 9.3095 12.4336 9.88995C12.8329 10.4556 13.0502 11.146 13.1707 11.6889C13.3754 12.6109 12.6195 13.3333 11.7846 13.3333H11.1667C10.8905 13.3333 10.6667 13.1095 10.6667 12.8333C10.6667 12.5572 10.8905 12.3333 11.1667 12.3333H11.7846C11.93 12.3333 12.0487 12.2727 12.1207 12.1918C12.189 12.1151 12.2195 12.0182 12.1945 11.9057C12.0859 11.4166 11.9049 10.875 11.6166 10.4667C11.3388 10.0731 10.9877 9.83334 10.5 9.83334C10.2239 9.83334 10 9.60948 10 9.33334Z" fill="white"/>
</svg>
