<svg width="24" height="24" viewBox="0 0 24 24" fill="none" xmlns="http://www.w3.org/2000/svg">
<rect width="24" height="24" rx="12" fill="#41C6FF"/>
<path d="M16.7986 11.4665C16.6568 11.4665 16.5208 11.5227 16.4205 11.6227C16.3202 11.7227 16.2639 11.8584 16.2639 11.9998C16.2639 13.1314 15.8132 14.2167 15.011 15.0168C14.2087 15.817 13.1206 16.2665 11.9861 16.2665C11.1413 16.2661 10.3155 16.0162 9.61289 15.5484C8.91026 15.0805 8.36226 14.4157 8.03798 13.6376C7.7137 12.8595 7.62767 12.0031 7.79073 11.1763C7.95379 10.3495 8.35864 9.58943 8.95423 8.99184C9.3503 8.59151 9.82245 8.27399 10.343 8.05787C10.8636 7.84175 11.4222 7.73136 11.9861 7.73317C12.328 7.73531 12.6687 7.77465 13.0021 7.8505C13.0718 7.87203 13.1453 7.87907 13.2179 7.8712C13.2905 7.86332 13.3607 7.8407 13.4242 7.80473C13.4877 7.76876 13.5431 7.7202 13.5871 7.66204C13.631 7.60388 13.6626 7.53735 13.6798 7.46656C13.697 7.39578 13.6994 7.32223 13.6871 7.25045C13.6747 7.17867 13.6477 7.11019 13.6077 7.04922C13.5678 6.98825 13.5157 6.93609 13.4548 6.89595C13.3938 6.85581 13.3253 6.82855 13.2534 6.81584C12.838 6.71837 12.4128 6.66827 11.9861 6.6665C10.9297 6.67198 9.89855 6.98945 9.02284 7.57885C8.14713 8.16826 7.46609 9.00318 7.06566 9.97825C6.66523 10.9533 6.56336 12.0249 6.77291 13.0576C6.98245 14.0904 7.49402 15.0381 8.24305 15.7812C9.23587 16.7719 10.5817 17.3299 11.9861 17.3332C13.4043 17.3332 14.7644 16.7713 15.7672 15.7711C16.77 14.7709 17.3333 13.4143 17.3333 11.9998C17.3333 11.8584 17.277 11.7227 17.1767 11.6227C17.0764 11.5227 16.9404 11.4665 16.7986 11.4665Z" fill="white"/>
</svg>
