<svg width="25" height="25" viewBox="0 0 25 25" fill="none" xmlns="http://www.w3.org/2000/svg">
<path fill-rule="evenodd" clip-rule="evenodd" d="M5.54175 6.85001C5.54175 6.29312 5.99319 5.84167 6.55008 5.84167C7.10697 5.84167 7.55841 6.29312 7.55841 6.85001C7.55841 7.40689 7.10697 7.85834 6.55008 7.85834C5.99319 7.85834 5.54175 7.40689 5.54175 6.85001Z" fill="white"/>
<path fill-rule="evenodd" clip-rule="evenodd" d="M5.54175 12.9C5.54175 12.3431 5.99319 11.8917 6.55008 11.8917C7.10697 11.8917 7.55841 12.3431 7.55841 12.9C7.55841 13.4569 7.10697 13.9083 6.55008 13.9083C5.99319 13.9083 5.54175 13.4569 5.54175 12.9Z" fill="white"/>
<path fill-rule="evenodd" clip-rule="evenodd" d="M5.54175 18.95C5.54175 18.3931 5.99319 17.9417 6.55008 17.9417C7.10697 17.9417 7.55841 18.3931 7.55841 18.95C7.55841 19.5069 7.10697 19.9583 6.55008 19.9583C5.99319 19.9583 5.54175 19.5069 5.54175 18.95Z" fill="white"/>
<path fill-rule="evenodd" clip-rule="evenodd" d="M9.57508 6.85001C9.57508 6.43234 9.91366 6.09376 10.3313 6.09376H18.9022C19.3198 6.09376 19.6584 6.43234 19.6584 6.85001C19.6584 7.26767 19.3198 7.60626 18.9022 7.60626H10.3313C9.91366 7.60626 9.57508 7.26767 9.57508 6.85001Z" fill="white"/>
<path fill-rule="evenodd" clip-rule="evenodd" d="M9.57508 12.9C9.57508 12.4823 9.91366 12.1438 10.3313 12.1438H18.9022C19.3198 12.1438 19.6584 12.4823 19.6584 12.9C19.6584 13.3177 19.3198 13.6563 18.9022 13.6563H10.3313C9.91366 13.6563 9.57508 13.3177 9.57508 12.9Z" fill="white"/>
<path fill-rule="evenodd" clip-rule="evenodd" d="M9.57508 18.95C9.57508 18.5323 9.91366 18.1938 10.3313 18.1938H18.9022C19.3198 18.1938 19.6584 18.5323 19.6584 18.95C19.6584 19.3677 19.3198 19.7063 18.9022 19.7063H10.3313C9.91366 19.7063 9.57508 19.3677 9.57508 18.95Z" fill="white"/>
</svg>
