<svg width="24" height="24" viewBox="0 0 24 24" fill="none" xmlns="http://www.w3.org/2000/svg">
<path fill-rule="evenodd" clip-rule="evenodd" d="M4 6.5C4 5.11929 5.11929 4 6.5 4H15.25C16.7688 4 18 5.23122 18 6.75V7.60352C19.1543 7.92998 20 8.99122 20 10.25V17.25C20 18.7688 18.7688 20 17.25 20H6.75C5.23122 20 4 18.7688 4 17.25V6.75C4 6.72012 4.00175 6.69065 4.00514 6.66169C4.00173 6.60823 4 6.55432 4 6.5ZM5.5 8.79198V17.25C5.5 17.9404 6.05964 18.5 6.75 18.5H17.25C17.9404 18.5 18.5 17.9404 18.5 17.25V10.25C18.5 9.55964 17.9404 9 17.25 9H6.5C6.14445 9 5.80623 8.92578 5.5 8.79198ZM16.5 7.5V6.75C16.5 6.05964 15.9404 5.5 15.25 5.5H6.5C5.94772 5.5 5.5 5.94772 5.5 6.5C5.5 7.05228 5.94772 7.5 6.5 7.5H16.5ZM16 13.25C16.1381 13.25 16.25 13.1381 16.25 13C16.25 12.8619 16.1381 12.75 16 12.75C15.8619 12.75 15.75 12.8619 15.75 13C15.75 13.1381 15.8619 13.25 16 13.25ZM14.75 13C14.75 12.3096 15.3096 11.75 16 11.75C16.6904 11.75 17.25 12.3096 17.25 13C17.25 13.6904 16.6904 14.25 16 14.25C15.3096 14.25 14.75 13.6904 14.75 13Z" fill="#0F172A"/>
</svg>
