<svg width="24" height="24" viewBox="0 0 24 24" fill="none" xmlns="http://www.w3.org/2000/svg">
<path d="M8.81553 21.322L9.16215 19.1203L8.39004 19.1024H4.70312L7.26534 2.85627C7.27329 2.80722 7.29914 2.76149 7.33692 2.72902C7.3747 2.69654 7.42308 2.67865 7.47345 2.67865H13.6901C15.7539 2.67865 17.1782 3.10812 17.9218 3.95578C18.2704 4.35344 18.4924 4.76898 18.5998 5.22629C18.7125 5.70612 18.7145 6.27941 18.6044 6.97861L18.5965 7.02965V7.47767L18.9451 7.67517C19.2387 7.83092 19.472 8.0092 19.6509 8.21333C19.9492 8.55332 20.142 8.98544 20.2236 9.49775C20.3077 10.0246 20.2799 10.6516 20.142 11.3614C19.983 12.1779 19.7258 12.8891 19.3785 13.471C19.0591 14.0071 18.6522 14.4519 18.169 14.7965C17.7077 15.1239 17.1596 15.3724 16.54 15.5315C15.9395 15.6879 15.2549 15.7668 14.504 15.7668H14.0202C13.6742 15.7668 13.3382 15.8914 13.0744 16.1147C12.81 16.3427 12.635 16.6542 12.5813 16.9949L12.5449 17.193L11.9325 21.0735L11.9046 21.216C11.8973 21.261 11.8848 21.2836 11.8662 21.2988C11.8496 21.3127 11.8258 21.322 11.8026 21.322H8.81553Z" fill="#253B80"/>
<path d="M19.2754 7.08136C19.2569 7.19999 19.2356 7.32128 19.2118 7.44588C18.392 11.655 15.5872 13.1091 12.005 13.1091H10.1811C9.74299 13.1091 9.37383 13.4273 9.30557 13.8594L8.37175 19.7818L8.10731 21.4605C8.0629 21.7442 8.28161 22 8.56792 22H11.8028C12.1859 22 12.5113 21.7217 12.5716 21.3439L12.6034 21.1795L13.2125 17.3143L13.2516 17.1022C13.3113 16.7231 13.6373 16.4448 14.0204 16.4448H14.5042C17.6384 16.4448 20.0919 15.1723 20.809 11.49C21.1086 9.95176 20.9535 8.66734 20.1609 7.764C19.9209 7.49161 19.6234 7.26561 19.2754 7.08136Z" fill="#179BD7"/>
<path d="M18.4174 6.73933C18.2922 6.70288 18.1629 6.66974 18.0304 6.63992C17.8971 6.61076 17.7606 6.58491 17.6201 6.56238C17.1284 6.48285 16.5895 6.44507 16.0123 6.44507H11.1397C11.0197 6.44507 10.9057 6.47224 10.8037 6.52129C10.579 6.62931 10.412 6.84206 10.3716 7.10252L9.335 13.6678L9.30518 13.8593C9.37344 13.4272 9.7426 13.1091 10.1807 13.1091H12.0046C15.5868 13.1091 18.3916 11.6543 19.2114 7.44583C19.2359 7.32123 19.2565 7.19995 19.275 7.08131C19.0676 6.9713 18.8429 6.87719 18.601 6.79699C18.5413 6.77711 18.4797 6.75789 18.4174 6.73933Z" fill="#222D65"/>
<path d="M10.3717 7.10256C10.4122 6.8421 10.5792 6.62935 10.8038 6.52199C10.9066 6.47294 11.0199 6.44577 11.1399 6.44577H16.0125C16.5897 6.44577 17.1285 6.48355 17.6203 6.56308C17.7608 6.58561 17.8973 6.61146 18.0305 6.64062C18.1631 6.67045 18.2923 6.70358 18.4176 6.74004C18.4799 6.75859 18.5415 6.77781 18.6018 6.79703C18.8437 6.87723 19.0684 6.972 19.2759 7.08135C19.5198 5.52586 19.2739 4.46678 18.4328 3.50777C17.5056 2.452 15.8322 2 13.6908 2H7.47416C7.03674 2 6.66361 2.31812 6.59601 2.7509L4.00662 19.1641C3.95559 19.4888 4.20611 19.7818 4.53351 19.7818H8.37153L9.33518 13.6678L10.3717 7.10256Z" fill="#253B80"/>
</svg>
