<svg width="24" height="24" viewBox="0 0 24 24" fill="none" xmlns="http://www.w3.org/2000/svg">
<path fill-rule="evenodd" clip-rule="evenodd" d="M4 6.06818C4 4.92596 4.92596 4 6.06818 4H8.89286C9.14362 4 9.3778 4.12533 9.51689 4.33397L11.5883 7.44112C11.7866 7.73858 11.7474 8.13468 11.4946 8.38747L9.85702 10.0251C9.82266 10.0594 9.80672 10.0949 9.80139 10.1203C9.79661 10.1431 9.79948 10.1589 9.80627 10.1733C10.0676 10.7257 10.5915 11.6439 11.4818 12.4929C12.3698 13.3396 13.2731 13.8799 13.8263 14.1657C13.8469 14.1764 13.8692 14.1803 13.897 14.1751C13.9272 14.1695 13.9656 14.1523 14.0014 14.1165L15.6125 12.5054C15.8653 12.2526 16.2614 12.2134 16.5589 12.4117L19.666 14.4831C19.8747 14.6222 20 14.8564 20 15.1071V17.9318C20 19.074 19.074 20 17.9318 20C10.2375 20 4 13.7625 4 6.06818ZM6.06818 5.5C5.75438 5.5 5.5 5.75438 5.5 6.06818C5.5 12.9341 11.0659 18.5 17.9318 18.5C18.2456 18.5 18.5 18.2456 18.5 17.9318V15.5085L16.2384 14.0008L15.0621 15.1772C14.5774 15.6618 13.8109 15.8461 13.1379 15.4984C12.4985 15.1681 11.4665 14.5508 10.4467 13.5785C9.3839 12.5651 8.76338 11.4765 8.4503 10.8146C8.13621 10.1506 8.33691 9.42386 8.79636 8.96441L9.99919 7.76158L8.49147 5.5H6.06818Z" fill="#111827"/>
</svg>
