<svg width="25" height="24" viewBox="0 0 25 24" fill="none" xmlns="http://www.w3.org/2000/svg">
<path fill-rule="evenodd" clip-rule="evenodd" d="M4.25321 6.75C4.25321 5.23122 5.48442 4 7.00321 4H17.5032C19.022 4 20.2532 5.23122 20.2532 6.75V17.25C20.2532 18.7688 19.022 20 17.5032 20H7.00321C5.48442 20 4.25321 18.7688 4.25321 17.25V16.0064C4.25316 16.0018 4.25316 15.9972 4.25321 15.9926V6.75ZM5.75321 16.2595V17.25C5.75321 17.9404 6.31285 18.5 7.00321 18.5H17.5032C18.1936 18.5 18.7532 17.9404 18.7532 17.25V12.8091C18.729 12.7875 18.706 12.764 18.6843 12.7387L16.2699 9.92819C15.7584 9.33276 14.8316 9.35098 14.3437 9.96425L14.3379 9.97163C14.3376 9.97214 14.3371 9.97267 14.3367 9.97323C14.2445 10.0925 13.114 11.5546 12.1384 12.8013L13.8221 14.7613C14.092 15.0755 14.0561 15.549 13.7419 15.8189C13.4277 16.0888 12.9542 16.0529 12.6843 15.7387L10.6083 13.3222C10.6018 13.3149 10.5955 13.3075 10.5893 13.3L10.2699 12.9282C9.75673 12.3308 8.82571 12.3511 8.33901 12.9702L5.75321 16.2595ZM11.1233 11.6643C9.96068 10.6519 8.14577 10.7889 7.15977 12.0432L5.75321 13.8324V6.75C5.75321 6.05964 6.31285 5.5 7.00321 5.5H17.5032C18.1936 5.5 18.7532 6.05964 18.7532 6.75V10.517L17.4077 8.95075C16.2812 7.63944 14.2395 7.68094 13.1668 9.03428L13.1636 9.03837L13.1536 9.05115L13.1536 9.05114L13.1512 9.05425C13.0727 9.15576 12.0582 10.4679 11.1233 11.6643Z" fill="#0F172A"/>
</svg>
