<svg width="16" height="16" viewBox="0 0 16 16" fill="none" xmlns="http://www.w3.org/2000/svg">
<path fill-rule="evenodd" clip-rule="evenodd" d="M12.7803 0.21967C13.0732 0.512563 13.0732 0.987437 12.7803 1.28033L10.6857 3.375L12.625 5.31434L14.7197 3.21967C15.0126 2.92678 15.4874 2.92678 15.7803 3.21967C16.0732 3.51256 16.0732 3.98744 15.7803 4.28033L13.6857 6.375L14.8116 7.50097C15.65 8.33933 15.4296 9.75115 14.3756 10.2941L7.34347 13.9167C7.05353 14.0661 6.70029 14.011 6.46967 13.7803L4.875 12.1857L1.28033 15.7803C0.987437 16.0732 0.512563 16.0732 0.21967 15.7803C-0.0732233 15.4874 -0.0732233 15.0126 0.21967 14.7197L3.81434 11.125L2.21967 9.53033C1.98905 9.29971 1.93391 8.94647 2.08327 8.65653L5.70589 1.62438C6.24885 0.570398 7.66067 0.350013 8.49903 1.18837L9.625 2.31434L11.7197 0.21967C12.0126 -0.0732233 12.4874 -0.0732233 12.7803 0.21967ZM7.43837 2.24903C7.31861 2.12927 7.11692 2.16075 7.03935 2.31132L3.66745 8.85679L7.14321 12.3326L13.6887 8.96065C13.8392 8.88308 13.8707 8.68139 13.751 8.56163L7.43837 2.24903Z" fill="#64748B"/>
</svg>
