<svg width="25" height="25" viewBox="0 0 25 25" fill="none" xmlns="http://www.w3.org/2000/svg">
<path fill-rule="evenodd" clip-rule="evenodd" d="M4.5332 6.80612C4.5332 5.27468 5.77468 4.0332 7.30612 4.0332H17.8936C19.4251 4.0332 20.6665 5.27468 20.6665 6.80612V12.352C20.6665 12.6615 20.4779 12.9398 20.1903 13.0544C19.9028 13.1691 19.5744 13.0969 19.3615 12.8722L16.6748 10.0383C16.6663 10.0293 16.6581 10.0202 16.65 10.0108C16.1343 9.41041 15.1998 9.42877 14.7078 10.0471L14.702 10.0546C14.7016 10.0551 14.7012 10.0557 14.7007 10.0562C14.6083 10.1757 13.4863 11.6269 12.5081 12.8771L13.4087 13.8568C13.6914 14.1643 13.6712 14.6427 13.3638 14.9254C13.0563 15.208 12.5779 15.1879 12.2952 14.8804L11.0702 13.5479C11.0595 13.5403 11.0489 13.5324 11.0385 13.5242C10.9614 13.4637 10.8993 13.3911 10.8527 13.3113L10.6169 13.0548C10.6112 13.0486 10.6056 13.0422 10.6 13.0358C10.0826 12.4335 9.14381 12.4539 8.65306 13.0782L6.0457 16.3949V17.3936C6.0457 18.0897 6.61001 18.654 7.30612 18.654H11.8436C12.2613 18.654 12.5999 18.9926 12.5999 19.4103C12.5999 19.8279 12.2613 20.1665 11.8436 20.1665H7.30612C5.77468 20.1665 4.5332 18.9251 4.5332 17.3936V6.80612ZM6.0457 13.9475L7.46399 12.1434C8.45821 10.8787 10.2882 10.7405 11.4606 11.7613C12.4033 10.555 13.4262 9.23192 13.5053 9.12957L13.5077 9.12646L13.5178 9.11359L13.5211 9.10944C14.5986 7.75003 16.6457 7.70331 17.7843 9.01013L19.154 10.455V6.80612C19.154 6.11001 18.5897 5.5457 17.8936 5.5457H7.30612C6.61001 5.5457 6.0457 6.11001 6.0457 6.80612V13.9475ZM17.6415 14.1165C18.0592 14.1165 18.3978 14.4551 18.3978 14.8728V16.3853H19.9103C20.3279 16.3853 20.6665 16.7239 20.6665 17.1415C20.6665 17.5592 20.3279 17.8978 19.9103 17.8978H18.3978V19.4103C18.3978 19.8279 18.0592 20.1665 17.6415 20.1665C17.2239 20.1665 16.8853 19.8279 16.8853 19.4103V17.8978H15.3728C14.9551 17.8978 14.6165 17.5592 14.6165 17.1415C14.6165 16.7239 14.9551 16.3853 15.3728 16.3853H16.8853V14.8728C16.8853 14.4551 17.2239 14.1165 17.6415 14.1165Z" fill="white"/>
</svg>
