<svg width="24" height="24" viewBox="0 0 24 24" fill="none" xmlns="http://www.w3.org/2000/svg">
<path fill-rule="evenodd" clip-rule="evenodd" d="M18.5 8C18.5 9.38071 17.3807 10.5 16 10.5C14.6193 10.5 13.5 9.38071 13.5 8C13.5 6.61929 14.6193 5.5 16 5.5C17.3807 5.5 18.5 6.61929 18.5 8ZM16.5 11.9691C16.3362 11.9895 16.1693 12 16 12C13.7909 12 12 10.2091 12 8C12 7.83067 12.0105 7.6638 12.0309 7.5H7C6.17157 7.5 5.5 8.17157 5.5 9V17C5.5 17.8284 6.17157 18.5 7 18.5H15C15.8284 18.5 16.5 17.8284 16.5 17V11.9691ZM18 11.4649V17C18 18.6569 16.6569 20 15 20H7C5.34315 20 4 18.6569 4 17V9C4 7.34315 5.34315 6 7 6H12.5351C13.2267 4.8044 14.5194 4 16 4C18.2091 4 20 5.79086 20 8C20 9.48056 19.1956 10.7733 18 11.4649Z" fill="#232838"/>
</svg>
