<svg width="21" height="21" viewBox="0 0 21 21" fill="none" xmlns="http://www.w3.org/2000/svg">
<path fill-rule="evenodd" clip-rule="evenodd" d="M10.18 3.81235C10.4106 3.9105 10.5602 4.13685 10.5602 4.38741V7.52649C12.004 7.59312 13.1626 7.89436 14.0856 8.39109C15.1461 8.96182 15.8572 9.77033 16.3258 10.6929C17.2273 12.4677 17.2271 14.6769 17.2269 16.4009C17.2269 16.4243 17.2269 16.4476 17.2269 16.4707C17.2269 16.7745 17.0085 17.0342 16.7093 17.0864C16.4101 17.1386 16.1167 16.9682 16.0138 16.6824C15.1397 14.2543 13.6007 13.0138 12.29 12.3703C11.6295 12.0461 11.023 11.8721 10.5842 11.7796C10.5762 11.7779 10.5682 11.7762 10.5602 11.7745V14.8041C10.5602 15.0546 10.4106 15.281 10.18 15.3791C9.94951 15.4773 9.68264 15.4283 9.50203 15.2546L4.08536 10.0463C3.96281 9.92842 3.89355 9.76575 3.89355 9.59574C3.89355 9.42573 3.96281 9.26305 4.08536 9.14522L9.50203 3.93689C9.68264 3.76322 9.94951 3.7142 10.18 3.81235ZM9.93522 11.0541C9.96237 10.4297 9.96271 10.4297 9.96308 10.4297L9.96389 10.4297L9.96586 10.4298L9.97112 10.4301L9.98685 10.431C9.99961 10.4317 10.0169 10.4329 10.0385 10.4346C10.0817 10.438 10.1421 10.4436 10.2179 10.4525C10.3693 10.4703 10.5826 10.5017 10.8422 10.5565C11.3605 10.6658 12.0691 10.8694 12.8408 11.2482C13.8468 11.7421 14.9536 12.5314 15.8806 13.781C15.7846 12.8755 15.5932 12.0108 15.2113 11.259C14.8466 10.5409 14.3077 9.93017 13.4932 9.4918C12.6707 9.04913 11.5296 8.76241 9.93522 8.76241C9.59004 8.76241 9.31022 8.48258 9.31022 8.13741V5.85542L5.42029 9.59574L9.31022 13.3361V11.0541C9.31022 10.8836 9.37985 10.7205 9.50298 10.6026C9.62612 10.4847 9.79206 10.4223 9.96237 10.4297L9.93522 11.0541Z" fill="#0F172A"/>
</svg>
