<svg width="17" height="16" viewBox="0 0 17 16" fill="none" xmlns="http://www.w3.org/2000/svg">
<path fill-rule="evenodd" clip-rule="evenodd" d="M7.5 1.5C4.46243 1.5 2 3.96243 2 7C2 10.0376 4.46243 12.5 7.5 12.5C10.5376 12.5 13 10.0376 13 7C13 3.96243 10.5376 1.5 7.5 1.5ZM0.5 7C0.5 3.13401 3.63401 0 7.5 0C11.366 0 14.5 3.13401 14.5 7C14.5 8.66283 13.9202 10.1902 12.9518 11.3911L16.2803 14.7197C16.5732 15.0126 16.5732 15.4874 16.2803 15.7803C15.9874 16.0732 15.5126 16.0732 15.2197 15.7803L11.8911 12.4518C10.6902 13.4202 9.16283 14 7.5 14C3.63401 14 0.5 10.866 0.5 7Z" fill="#0F172A"/>
</svg>
