<svg width="25" height="26" viewBox="0 0 25 26" fill="none" xmlns="http://www.w3.org/2000/svg">
<path fill-rule="evenodd" clip-rule="evenodd" d="M12.0999 5.03174C12.3863 5.03174 12.6482 5.19358 12.7763 5.44978L20.0867 20.0706C20.2314 20.36 20.176 20.7095 19.9488 20.9398C19.7215 21.1702 19.3729 21.2305 19.0815 21.0899L12.0999 17.7194L5.11825 21.0899C4.82685 21.2305 4.47823 21.1702 4.25102 20.9398C4.02381 20.7095 3.96835 20.36 4.11306 20.0706L11.4235 5.44978C11.5516 5.19358 11.8134 5.03174 12.0999 5.03174ZM12.8561 16.405L17.7423 18.7638L12.0999 7.47901L6.45749 18.7638L11.3436 16.405V13.8547C11.3436 13.437 11.6822 13.0984 12.0999 13.0984C12.5176 13.0984 12.8561 13.437 12.8561 13.8547V16.405Z" fill="white"/>
</svg>
