<svg width="32" height="32" viewBox="0 0 32 32" fill="none" xmlns="http://www.w3.org/2000/svg">
<path fill-rule="evenodd" clip-rule="evenodd" d="M13.5173 7.34801C13.6765 6.19347 14.6633 5.3335 15.8287 5.3335H16.1713C17.3368 5.3335 18.3235 6.19347 18.4827 7.34801L18.5989 8.19034C18.6144 8.30283 18.7146 8.46837 18.9531 8.56314C19.0388 8.59721 19.1238 8.63272 19.2081 8.66963C19.4428 8.77248 19.6308 8.72725 19.7217 8.65909L20.1317 8.35154C21.0607 7.65483 22.3606 7.74721 23.1817 8.56829L23.4319 8.81852C24.253 9.6396 24.3453 10.9395 23.6486 11.8684L23.3411 12.2785C23.2729 12.3694 23.2277 12.5574 23.3305 12.7921C23.3675 12.8763 23.403 12.9614 23.437 13.0471C23.5318 13.2856 23.6973 13.3857 23.8098 13.4012L24.6522 13.5174C25.8067 13.6767 26.6667 14.6634 26.6667 15.8289V16.1714C26.6667 17.3369 25.8067 18.3236 24.6522 18.4829L23.8098 18.5991C23.6973 18.6146 23.5318 18.7147 23.437 18.9532C23.403 19.039 23.3675 19.124 23.3305 19.2082C23.2277 19.4429 23.2729 19.6309 23.3411 19.7218L23.6486 20.1319C24.3453 21.0608 24.253 22.3607 23.4319 23.1818L23.1817 23.432C22.3606 24.2531 21.0607 24.3455 20.1317 23.6488L19.7217 23.3412C19.6308 23.2731 19.4428 23.2278 19.2081 23.3307C19.1238 23.3676 19.0388 23.4031 18.9531 23.4372C18.7146 23.5319 18.6144 23.6975 18.5989 23.81L18.4827 24.6523C18.3235 25.8069 17.3368 26.6668 16.1713 26.6668H15.8287C14.6633 26.6668 13.6765 25.8069 13.5173 24.6523L13.4011 23.81C13.3856 23.6975 13.2854 23.5319 13.047 23.4372C12.9612 23.4031 12.8762 23.3676 12.792 23.3307C12.5572 23.2278 12.3692 23.2731 12.2784 23.3412L11.8683 23.6488C10.9393 24.3455 9.63942 24.2531 8.81834 23.4321L8.56811 23.1818C7.74703 22.3607 7.65465 21.0609 8.35136 20.1319L8.65894 19.7218C8.7271 19.6309 8.77232 19.4429 8.66948 19.2082C8.63256 19.124 8.59705 19.039 8.56298 18.9532C8.46822 18.7147 8.30268 18.6146 8.19019 18.5991L7.34786 18.4829C6.19332 18.3236 5.33334 17.3369 5.33334 16.1714V15.8289C5.33334 14.6634 6.19332 13.6767 7.34786 13.5174L8.19019 13.4012C8.30268 13.3857 8.46822 13.2856 8.56298 13.0471C8.59706 12.9614 8.63256 12.8764 8.66948 12.7921C8.77232 12.5574 8.7271 12.3694 8.65894 12.2785L8.35136 11.8684C7.65465 10.9395 7.74703 9.63957 8.56811 8.81849L8.81834 8.56826C9.63942 7.74718 10.9393 7.6548 11.8683 8.35151L12.2784 8.65909C12.3692 8.72725 12.5573 8.77247 12.792 8.66963C12.8762 8.63272 12.9612 8.59721 13.047 8.56314C13.2854 8.46837 13.3856 8.30283 13.4011 8.19034L13.5173 7.34801ZM15.8287 7.3335C15.6622 7.3335 15.5213 7.45635 15.4985 7.62128L15.3823 8.46362C15.2496 9.42588 14.5553 10.1159 13.7855 10.4218C13.7214 10.4473 13.6577 10.4739 13.5946 10.5015C12.8352 10.8342 11.8558 10.8422 11.0784 10.2591L10.6683 9.95151C10.5356 9.85198 10.3499 9.86518 10.2326 9.98248L9.98233 10.2327C9.86503 10.35 9.85183 10.5357 9.95136 10.6684L10.2589 11.0785C10.842 11.8559 10.8341 12.8354 10.5013 13.5948C10.4737 13.6579 10.4471 13.7215 10.4216 13.7857C10.1157 14.5555 9.42573 15.2498 8.46346 15.3825L7.62113 15.4987C7.4562 15.5214 7.33334 15.6624 7.33334 15.8289V16.1714C7.33334 16.3379 7.4562 16.4789 7.62113 16.5017L8.46346 16.6178C9.42573 16.7506 10.1157 17.4449 10.4216 18.2146C10.4471 18.2788 10.4737 18.3425 10.5013 18.4055C10.8341 19.165 10.842 20.1444 10.2589 20.9218L9.95136 21.3319C9.85183 21.4646 9.86503 21.6503 9.98232 21.7676L10.2326 22.0178C10.3499 22.1351 10.5355 22.1483 10.6683 22.0488L11.0784 21.7412C11.8558 21.1582 12.8352 21.1661 13.5946 21.4988C13.6577 21.5265 13.7214 21.5531 13.7855 21.5786C14.5553 21.8844 15.2496 22.5744 15.3823 23.5367L15.4985 24.379C15.5213 24.544 15.6622 24.6668 15.8287 24.6668H16.1713C16.3378 24.6668 16.4788 24.544 16.5015 24.379L16.6177 23.5367C16.7504 22.5744 17.4447 21.8844 18.2145 21.5786C18.2787 21.5531 18.3423 21.5265 18.4054 21.4988C19.1648 21.1661 20.1443 21.1582 20.9217 21.7412L21.3317 22.0488C21.4644 22.1483 21.6501 22.1351 21.7674 22.0178L22.0177 21.7676C22.135 21.6503 22.1482 21.4646 22.0486 21.3319L21.7411 20.9218C21.158 20.1444 21.1659 19.165 21.4987 18.4055C21.5263 18.3425 21.5529 18.2788 21.5784 18.2146C21.8843 17.4449 22.5743 16.7506 23.5366 16.6178L24.3789 16.5017C24.5438 16.4789 24.6667 16.3379 24.6667 16.1714V15.8289C24.6667 15.6624 24.5438 15.5214 24.3789 15.4987L23.5366 15.3825C22.5743 15.2498 21.8843 14.5555 21.5784 13.7857C21.5529 13.7215 21.5263 13.6579 21.4987 13.5948C21.1659 12.8354 21.158 11.8559 21.7411 11.0785L22.0486 10.6684C22.1482 10.5357 22.135 10.35 22.0177 10.2327L21.7674 9.9825C21.6501 9.8652 21.4644 9.85201 21.3317 9.95154L20.9217 10.2591C20.1442 10.8422 19.1648 10.8342 18.4054 10.5015C18.3423 10.4739 18.2787 10.4473 18.2145 10.4218C17.4447 10.1159 16.7504 9.42588 16.6177 8.46362L16.5015 7.62128C16.4788 7.45635 16.3378 7.3335 16.1713 7.3335H15.8287Z" fill="#232838"/>
<path fill-rule="evenodd" clip-rule="evenodd" d="M16 15.3335C15.6318 15.3335 15.3333 15.632 15.3333 16.0002C15.3333 16.3684 15.6318 16.6668 16 16.6668C16.3682 16.6668 16.6667 16.3684 16.6667 16.0002C16.6667 15.632 16.3682 15.3335 16 15.3335ZM13.3333 16.0002C13.3333 14.5274 14.5273 13.3335 16 13.3335C17.4728 13.3335 18.6667 14.5274 18.6667 16.0002C18.6667 17.4729 17.4728 18.6668 16 18.6668C14.5273 18.6668 13.3333 17.4729 13.3333 16.0002Z" fill="#232838"/>
</svg>
