<svg width="32" height="32" viewBox="0 0 32 32" fill="none" xmlns="http://www.w3.org/2000/svg">
<path d="M19.2 7.58325H19.05V7.73325V8.53325V8.68325H19.2H22.4C22.7583 8.68325 23.05 8.97495 23.05 9.33325V22.1332C23.05 22.4916 22.7583 22.7833 22.4 22.7833H9.6C9.24371 22.7833 8.95 22.4913 8.95 22.1332V9.33325C8.95 8.97696 9.24198 8.68325 9.6 8.68325H12.8H12.95V8.53325V7.73325V7.58325H12.8H9.6C8.63259 7.58325 7.85 8.36584 7.85 9.33325V22.1332C7.85 23.1007 8.63259 23.8832 9.6 23.8832H22.4C23.3674 23.8832 24.15 23.1007 24.15 22.1332V9.33325C24.15 8.36584 23.3674 7.58325 22.4 7.58325H19.2ZM13.1902 5.32656L13.1902 5.32657L13.1919 5.32494L15.45 3.06271V15.3333C15.45 15.6355 15.6977 15.8833 16 15.8833C16.3023 15.8833 16.55 15.6355 16.55 15.3333V3.06224L18.8082 5.32046C18.9201 5.43238 19.0608 5.47868 19.2 5.47868C19.3433 5.47868 19.4807 5.42529 19.5886 5.32353L19.5887 5.32358L19.5918 5.32046C19.8058 5.10645 19.8058 4.75776 19.5918 4.54376L16.3918 1.34376C16.1778 1.12975 15.8291 1.12975 15.6151 1.34376L15.7204 1.44907L15.6151 1.34376L12.4151 4.54376C12.2015 4.75738 12.2011 5.1052 12.4139 5.3193C12.6272 5.54083 12.9735 5.53713 13.1902 5.32656Z" fill="white" stroke="white" stroke-width="0.3"/>
</svg>
