<svg width="21" height="20" viewBox="0 0 21 20" fill="none" xmlns="http://www.w3.org/2000/svg">
<path fill-rule="evenodd" clip-rule="evenodd" d="M3.83331 4.79175C3.83331 4.44657 4.11314 4.16675 4.45831 4.16675H9.87498C10.2202 4.16675 10.5 4.44657 10.5 4.79175C10.5 5.13693 10.2202 5.41675 9.87498 5.41675H4.45831C4.11314 5.41675 3.83331 5.13693 3.83331 4.79175ZM13.8333 4.16675C14.0071 4.16675 14.1731 4.23911 14.2913 4.36647L16.9996 7.28313C17.2345 7.53608 17.2199 7.93153 16.9669 8.16641C16.714 8.40129 16.3185 8.38664 16.0837 8.1337L14.4583 6.38333V15.2084C14.4583 15.5536 14.1785 15.8334 13.8333 15.8334C13.4881 15.8334 13.2083 15.5536 13.2083 15.2084V6.38333L11.583 8.1337C11.3481 8.38664 10.9526 8.40129 10.6997 8.16641C10.4468 7.93153 10.4321 7.53608 10.667 7.28313L13.3753 4.36647C13.4936 4.23911 13.6595 4.16675 13.8333 4.16675ZM3.83331 8.33342C3.83331 7.98824 4.11314 7.70842 4.45831 7.70842H8.20831C8.55349 7.70842 8.83331 7.98824 8.83331 8.33342C8.83331 8.67859 8.55349 8.95842 8.20831 8.95842H4.45831C4.11314 8.95842 3.83331 8.67859 3.83331 8.33342ZM3.83331 11.8751C3.83331 11.5299 4.11314 11.2501 4.45831 11.2501H7.37498C7.72016 11.2501 7.99998 11.5299 7.99998 11.8751C7.99998 12.2203 7.72016 12.5001 7.37498 12.5001H4.45831C4.11314 12.5001 3.83331 12.2203 3.83331 11.8751Z" fill="white"/>
</svg>
