<svg width="21" height="20" viewBox="0 0 21 20" fill="none" xmlns="http://www.w3.org/2000/svg">
<path fill-rule="evenodd" clip-rule="evenodd" d="M3.83325 5.625C3.83325 5.27982 4.11307 5 4.45825 5H16.5416C16.8868 5 17.1666 5.27982 17.1666 5.625C17.1666 5.97018 16.8868 6.25 16.5416 6.25H4.45825C4.11307 6.25 3.83325 5.97018 3.83325 5.625ZM3.83325 10C3.83325 9.65482 4.11307 9.375 4.45825 9.375H13.2083C13.5534 9.375 13.8333 9.65482 13.8333 10C13.8333 10.3452 13.5534 10.625 13.2083 10.625H4.45825C4.11307 10.625 3.83325 10.3452 3.83325 10ZM3.83325 14.375C3.83325 14.0298 4.11307 13.75 4.45825 13.75H9.87492C10.2201 13.75 10.4999 14.0298 10.4999 14.375C10.4999 14.7202 10.2201 15 9.87492 15H4.45825C4.11307 15 3.83325 14.7202 3.83325 14.375Z" fill="#0F172A"/>
</svg>
