<svg width="21" height="20" viewBox="0 0 21 20" fill="none" xmlns="http://www.w3.org/2000/svg">
<path fill-rule="evenodd" clip-rule="evenodd" d="M13.8333 4.1665C14.1785 4.1665 14.4583 4.44633 14.4583 4.7915V13.6166L16.0837 11.8662C16.3185 11.6133 16.714 11.5986 16.9669 11.8335C17.2199 12.0684 17.2345 12.4638 16.9996 12.7168L14.2913 15.6335C14.1731 15.7608 14.0071 15.8332 13.8333 15.8332C13.6595 15.8332 13.4936 15.7608 13.3753 15.6335L10.667 12.7168C10.4321 12.4638 10.4468 12.0684 10.6997 11.8335C10.9526 11.5986 11.3481 11.6133 11.583 11.8662L13.2083 13.6166V4.7915C13.2083 4.44633 13.4881 4.1665 13.8333 4.1665ZM3.83331 8.12484C3.83331 7.77966 4.11314 7.49984 4.45831 7.49984H7.37498C7.72016 7.49984 7.99998 7.77966 7.99998 8.12484C7.99998 8.47002 7.72016 8.74984 7.37498 8.74984H4.45831C4.11314 8.74984 3.83331 8.47002 3.83331 8.12484ZM3.83331 11.6665C3.83331 11.3213 4.11314 11.0415 4.45831 11.0415H8.20831C8.55349 11.0415 8.83331 11.3213 8.83331 11.6665C8.83331 12.0117 8.55349 12.2915 8.20831 12.2915H4.45831C4.11314 12.2915 3.83331 12.0117 3.83331 11.6665ZM3.83331 15.2082C3.83331 14.863 4.11314 14.5832 4.45831 14.5832H9.87498C10.2202 14.5832 10.5 14.863 10.5 15.2082C10.5 15.5533 10.2202 15.8332 9.87498 15.8332H4.45831C4.11314 15.8332 3.83331 15.5533 3.83331 15.2082Z" fill="white"/>
</svg>
