<svg width="24" height="24" viewBox="0 0 24 24" fill="none" xmlns="http://www.w3.org/2000/svg">
<path fill-rule="evenodd" clip-rule="evenodd" d="M15 4C15.4142 4 15.75 4.33579 15.75 4.75C15.75 6.00652 16.0902 7.15236 16.6919 7.9638C17.2786 8.75503 18.1245 9.25 19.25 9.25C19.6642 9.25 20 9.58579 20 10C20 10.4142 19.6642 10.75 19.25 10.75C18.1245 10.75 17.2786 11.245 16.6919 12.0362C16.0902 12.8476 15.75 13.9935 15.75 15.25C15.75 15.6642 15.4142 16 15 16C14.5858 16 14.25 15.6642 14.25 15.25C14.25 13.9935 13.9098 12.8476 13.3081 12.0362C12.7214 11.245 11.8755 10.75 10.75 10.75C10.3358 10.75 10 10.4142 10 10C10 9.58579 10.3358 9.25 10.75 9.25C11.8755 9.25 12.7214 8.75503 13.3081 7.9638C13.9098 7.15236 14.25 6.00652 14.25 4.75C14.25 4.33579 14.5858 4 15 4ZM15 8.06914C14.8582 8.34669 14.6959 8.61057 14.513 8.85727C14.1802 9.30605 13.7809 9.69412 13.3198 10C13.7809 10.3059 14.1802 10.6939 14.513 11.1427C14.6959 11.3894 14.8582 11.6533 15 11.9309C15.1418 11.6533 15.3041 11.3894 15.487 11.1427C15.8198 10.6939 16.2191 10.3059 16.6802 10C16.2191 9.69412 15.8198 9.30605 15.487 8.85727C15.3041 8.61057 15.1418 8.34669 15 8.06914ZM8 12C8.41421 12 8.75 12.3358 8.75 12.75C8.75 13.3412 9.03964 13.9716 9.53401 14.466C10.0284 14.9604 10.6588 15.25 11.25 15.25C11.6642 15.25 12 15.5858 12 16C12 16.4142 11.6642 16.75 11.25 16.75C10.6588 16.75 10.0284 17.0396 9.53401 17.534C9.03964 18.0284 8.75 18.6588 8.75 19.25C8.75 19.6642 8.41421 20 8 20C7.58579 20 7.25 19.6642 7.25 19.25C7.25 18.6588 6.96036 18.0284 6.46599 17.534C5.97162 17.0396 5.3412 16.75 4.75 16.75C4.33579 16.75 4 16.4142 4 16C4 15.5858 4.33579 15.25 4.75 15.25C5.3412 15.25 5.97162 14.9604 6.46599 14.466C6.96036 13.9716 7.25 13.3412 7.25 12.75C7.25 12.3358 7.58579 12 8 12ZM8 14.9686C7.85686 15.1686 7.69773 15.3556 7.52665 15.5267C7.35557 15.6977 7.16863 15.8569 6.96864 16C7.16863 16.1431 7.35557 16.3023 7.52665 16.4733C7.69773 16.6444 7.85686 16.8314 8 17.0314C8.14314 16.8314 8.30227 16.6444 8.47335 16.4733C8.64443 16.3023 8.83137 16.1431 9.03136 16C8.83137 15.8569 8.64443 15.6977 8.47335 15.5267C8.30227 15.3556 8.14314 15.1686 8 14.9686Z" fill="#0F172A"/>
</svg>
