<svg width="21" height="21" viewBox="0 0 21 21" fill="none" xmlns="http://www.w3.org/2000/svg">
<path fill-rule="evenodd" clip-rule="evenodd" d="M17.0299 4.15213C17.2015 4.31339 17.2679 4.55743 17.2017 4.78341L13.66 16.8667C13.5965 17.0835 13.4209 17.2491 13.2008 17.2999C12.9807 17.3507 12.7504 17.2789 12.5982 17.1119L8.3731 12.4745L4.15765 9.49288C3.96766 9.35849 3.86806 9.12967 3.89918 8.89905C3.9303 8.66842 4.08698 8.47418 4.30579 8.39495L16.3891 4.01995C16.6106 3.93978 16.8582 3.99088 17.0299 4.15213ZM9.70316 12.0784L12.7733 15.448L15.6553 5.61505L5.85601 9.16308L8.76885 11.2234L10.3813 9.9504C10.6522 9.73651 11.0452 9.78275 11.2591 10.0537C11.473 10.3246 11.4268 10.7176 11.1558 10.9315L9.70316 12.0784Z" fill="#0F172A"/>
</svg>
