<svg width="63" height="56" viewBox="0 0 63 56" fill="none" xmlns="http://www.w3.org/2000/svg">
<circle cx="20.0999" cy="19.2" r="19.2" fill="#FFB13C"/>
<g clip-path="url(#clip0_1592_3996)">
<path d="M51.4331 22.5063C51.4331 23.3597 50.5797 23.9997 49.7264 23.9997C47.8064 23.7863 45.0331 22.933 42.8997 21.2263V36.7997C42.8997 42.773 38.2064 47.4663 32.2331 47.4663C26.2597 47.4663 21.5664 42.773 21.5664 36.7997C21.5664 31.0397 26.6864 26.133 32.8731 26.133C33.7264 26.133 34.3664 26.773 34.3664 27.8397C34.3664 28.693 33.7264 29.5463 32.6597 29.5463C28.3931 29.5463 24.5531 32.9597 24.5531 37.013C24.5531 41.0663 27.9664 44.4797 32.0197 44.4797C36.0731 44.4797 39.4864 41.0663 39.4864 37.013V15.0397C39.6997 13.973 40.3397 13.333 41.4064 13.333C42.4731 13.333 42.8997 13.973 42.8997 15.0397C42.8997 19.9463 49.7264 20.7997 49.9397 21.013C51.0064 21.013 51.4331 21.653 51.4331 22.5063Z" fill="black"/>
</g>
<defs>
<clipPath id="clip0_1592_3996">
<rect width="29.8667" height="34.1333" fill="white" transform="translate(21.5664 13.333)"/>
</clipPath>
</defs>
</svg>
