<svg width="24" height="24" viewBox="0 0 24 24" fill="none" xmlns="http://www.w3.org/2000/svg">
<path fill-rule="evenodd" clip-rule="evenodd" d="M12 2C17.5229 2 22.0001 6.47714 22.0001 12C22.0001 17.5229 17.5229 22.0001 12 22.0001C6.47714 22.0001 2 17.5229 2 12C2 6.47714 6.47714 2 12 2ZM14.0077 6.23846C14.0279 6.41108 14.0572 6.57812 14.0954 6.73892L14.4736 6.73904C14.5438 7.33851 14.714 7.88619 14.9815 8.34087C15.4184 8.74557 15.9893 8.99511 16.6783 9.03933V9.59175C16.8062 9.61839 16.9393 9.63651 17.0778 9.64539V11.4267C16.187 11.5144 15.4074 11.2212 14.499 10.6749L14.6384 13.7256C14.6384 14.7095 14.6421 15.1592 14.1141 16.0642C12.8814 18.1775 10.6225 18.2648 9.18357 17.1635C8.44743 16.9082 7.79943 16.4156 7.39071 15.7469C6.1982 13.7959 7.27316 10.6161 10.7319 10.2889L10.7263 10.759V10.8772C10.9126 10.8384 11.1082 10.8085 11.3139 10.7891V12.6678C10.5649 12.7912 10.0892 13.0212 9.86679 13.4466C9.42135 14.2984 9.62385 15.0381 10.0897 15.5051C11.0663 15.6729 12.1537 14.9963 11.9901 12.904V6.2384H14.0078L14.0077 6.23846Z" fill="#1A121F"/>
<path fill-rule="evenodd" clip-rule="evenodd" d="M14.0072 6.23834C14.1928 7.8227 15.1421 8.94062 16.6777 9.0392V10.542L16.6678 10.5429V9.26636C15.1321 9.16784 14.2492 8.22296 14.0636 6.6386L12.4368 6.63854V13.3042C12.6715 16.3044 10.3338 16.3936 9.43951 15.2561C10.4884 15.912 12.1915 15.4856 11.9895 12.9039V6.23828H14.0072V6.23834ZM9.63595 17.2882C8.71681 17.099 7.88101 16.5498 7.39015 15.7469C6.19765 13.7959 7.27261 10.6161 10.7314 10.2889L10.7257 10.759C7.51915 11.2697 7.19719 14.7142 8.08519 16.1471C8.42761 16.6996 8.98975 17.0882 9.63595 17.2882Z" fill="#26F4EE"/>
<path fill-rule="evenodd" clip-rule="evenodd" d="M14.4738 6.73889C14.5795 7.64105 14.9114 8.42603 15.461 8.95307C14.6891 8.55377 14.2232 7.79417 14.0773 6.73877L14.4739 6.73889H14.4738ZM16.6686 9.58955C16.7995 9.61733 16.936 9.63617 17.078 9.64529V11.4266C16.1872 11.5144 15.4076 11.2211 14.4992 10.6748L14.6386 13.7255C14.6386 14.7094 14.6423 15.1591 14.1143 16.0641C12.8278 18.2697 10.4233 18.2687 9 17.0127C10.8558 18.0786 14.0956 17.2441 14.0897 13.6255V10.2958C14.9981 10.8421 15.7777 11.1354 16.6685 11.0476V9.58949L16.6686 9.58955ZM10.7265 10.8772C10.9128 10.8384 11.1084 10.8085 11.3141 10.7891V12.6677C10.5652 12.7912 10.0894 13.0211 9.867 13.4465C9.24054 14.6444 9.89544 15.6208 10.7624 15.9284C9.67788 15.8895 8.60178 14.7756 9.34908 13.3466C9.5715 12.9212 9.97752 12.6912 10.7265 12.5678V10.8772V10.8772Z" fill="#FB2C53"/>
<path fill-rule="evenodd" clip-rule="evenodd" d="M14.064 6.63873C14.2496 8.22309 15.1325 9.16797 16.6682 9.26649V11.0478C15.7774 11.1356 14.9978 10.8423 14.0894 10.296V13.6257C14.0965 17.9717 9.42129 18.3024 8.08557 16.1472C7.19757 14.7143 7.51947 11.2698 10.7261 10.7591V12.5679C9.97713 12.6913 9.57111 12.9213 9.34869 13.3467C7.97415 15.9752 12.7685 17.539 12.4372 13.3043V6.63867L14.064 6.63873H14.064Z" fill="#FEFEFE"/>
</svg>
