<svg width="24" height="24" viewBox="0 0 24 24" fill="none" xmlns="http://www.w3.org/2000/svg">
<path fill-rule="evenodd" clip-rule="evenodd" d="M12 1C18.0752 1 23.0001 5.92486 23.0001 12C23.0001 18.0752 18.0752 23.0001 12 23.0001C5.92486 23.0001 1 18.0752 1 12C1 5.92486 5.92486 1 12 1ZM14.2085 5.66231C14.2307 5.85219 14.2629 6.03594 14.3049 6.21282L14.7209 6.21295C14.7982 6.87235 14.9853 7.4748 15.2796 7.97495C15.7603 8.42012 16.3882 8.69462 17.1461 8.74326V9.35092C17.2868 9.38022 17.4332 9.40016 17.5856 9.40992V11.3694C16.6057 11.4659 15.7481 11.1433 14.7489 10.5424L14.9022 13.8982C14.9022 14.9805 14.9063 15.4751 14.3255 16.4706C12.9695 18.7953 10.4847 18.8912 8.90192 17.6799C8.09217 17.399 7.37937 16.8571 6.92977 16.1215C5.61802 13.9755 6.80048 10.4777 10.6051 10.1178L10.5989 10.6349V10.7649C10.8038 10.7223 11.019 10.6894 11.2453 10.668V12.7345C10.4214 12.8703 9.89813 13.1233 9.65346 13.5912C9.16348 14.5282 9.38623 15.3419 9.89872 15.8556C10.9729 16.0402 12.1691 15.2959 11.9891 12.9945V5.66224H14.2085L14.2085 5.66231Z" fill="#1A121F"/>
<path fill-rule="evenodd" clip-rule="evenodd" d="M14.2084 5.66242C14.4125 7.40522 15.4568 8.63493 17.146 8.74337V10.3964L17.1351 10.3974V8.99324C15.4458 8.88487 14.4746 7.8455 14.2704 6.10271L12.4809 6.10264V13.4348C12.7391 16.7351 10.1676 16.8332 9.18395 15.5819C10.3378 16.3035 12.2112 15.8344 11.989 12.9946V5.66235H14.2084V5.66242ZM9.40004 17.8173C8.38898 17.6092 7.4696 17.0051 6.92965 16.1218C5.6179 13.9757 6.80036 10.478 10.605 10.118L10.5988 10.6351C7.07155 11.1969 6.7174 14.9858 7.6942 16.562C8.07086 17.1698 8.68921 17.5973 9.40004 17.8173Z" fill="#26F4EE"/>
<path fill-rule="evenodd" clip-rule="evenodd" d="M14.7209 6.21302C14.8371 7.2054 15.2022 8.06888 15.8069 8.64862C14.9577 8.20939 14.4453 7.37383 14.2848 6.21289L14.721 6.21302H14.7209ZM17.1352 9.34875C17.2791 9.37931 17.4293 9.40003 17.5856 9.41006V11.3695C16.6057 11.466 15.748 11.1434 14.7488 10.5425L14.9022 13.8983C14.9022 14.9806 14.9062 15.4752 14.3255 16.4707C12.9102 18.8969 10.2654 18.8958 8.69971 17.5142C10.7411 18.6867 14.3049 17.7688 14.2984 13.7883V10.1256C15.2977 10.7266 16.1552 11.0492 17.1351 10.9526V9.34868L17.1352 9.34875ZM10.5989 10.7651C10.8038 10.7225 11.0189 10.6896 11.2453 10.6682V12.7348C10.4214 12.8705 9.89807 13.1235 9.65341 13.5914C8.9643 14.9091 9.68469 15.9831 10.6383 16.3215C9.44538 16.2787 8.26166 15.0534 9.0837 13.4815C9.32836 13.0136 9.77498 12.7606 10.5989 12.6248V10.7652V10.7651Z" fill="#FB2C53"/>
<path fill-rule="evenodd" clip-rule="evenodd" d="M14.2705 6.10261C14.4746 7.8454 15.4459 8.88477 17.1351 8.99314V10.9526C16.1552 11.0491 15.2976 10.7266 14.2984 10.1256V13.7883C14.3062 18.5689 9.16351 18.9326 7.69422 16.5619C6.71742 14.9858 7.07151 11.1968 10.5988 10.635V12.6247C9.77494 12.7604 9.32832 13.0135 9.08365 13.4813C7.57166 16.3727 12.8455 18.0929 12.481 13.4347V6.10254L14.2705 6.10261H14.2705Z" fill="#FEFEFE"/>
</svg>
