<svg width="20" height="20" viewBox="0 0 20 20" fill="none" xmlns="http://www.w3.org/2000/svg">
<path d="M15.8337 6.91671C15.8337 7.25004 15.5003 7.50004 15.167 7.50004C14.417 7.41671 13.3337 7.08337 12.5003 6.41671V12.5C12.5003 14.8334 10.667 16.6667 8.33366 16.6667C6.00033 16.6667 4.16699 14.8334 4.16699 12.5C4.16699 10.25 6.16699 8.33337 8.58366 8.33337C8.91699 8.33337 9.16699 8.58337 9.16699 9.00004C9.16699 9.33337 8.91699 9.66671 8.50033 9.66671C6.83366 9.66671 5.33366 11 5.33366 12.5834C5.33366 14.1667 6.66699 15.5 8.25033 15.5C9.83366 15.5 11.167 14.1667 11.167 12.5834V4.00004C11.2503 3.58337 11.5003 3.33337 11.917 3.33337C12.3337 3.33337 12.5003 3.58337 12.5003 4.00004C12.5003 5.91671 15.167 6.25004 15.2503 6.33337C15.667 6.33337 15.8337 6.58337 15.8337 6.91671Z" fill="#64748B"/>
</svg>
