<svg width="25" height="25" viewBox="0 0 25 25" fill="none" xmlns="http://www.w3.org/2000/svg">
<g clip-path="url(#clip0_1925_6968)">
<path d="M19.5696 8.82344C19.5696 9.22344 19.1696 9.52344 18.7696 9.52344C17.8696 9.42344 16.5696 9.02344 15.5696 8.22344V15.5234C15.5696 18.3234 13.3696 20.5234 10.5696 20.5234C7.76958 20.5234 5.56958 18.3234 5.56958 15.5234C5.56958 12.8234 7.96958 10.5234 10.8696 10.5234C11.2696 10.5234 11.5696 10.8234 11.5696 11.3234C11.5696 11.7234 11.2696 12.1234 10.7696 12.1234C8.76958 12.1234 6.96958 13.7234 6.96958 15.6234C6.96958 17.5234 8.56958 19.1234 10.4696 19.1234C12.3696 19.1234 13.9696 17.5234 13.9696 15.6234V5.32344C14.0696 4.82344 14.3696 4.52344 14.8696 4.52344C15.3696 4.52344 15.5696 4.82344 15.5696 5.32344C15.5696 7.62344 18.7696 8.02344 18.8696 8.12344C19.3696 8.12344 19.5696 8.42344 19.5696 8.82344Z" fill="black"/>
</g>
<defs>
<clipPath id="clip0_1925_6968">
<rect width="14" height="16" fill="white" transform="translate(5.56958 4.52344)"/>
</clipPath>
</defs>
</svg>
