<svg width="24" height="24" viewBox="0 0 24 24" fill="none" xmlns="http://www.w3.org/2000/svg">
<path fill-rule="evenodd" clip-rule="evenodd" d="M9 4.75C9 4.33579 9.33579 4 9.75 4H14.25C14.6642 4 15 4.33579 15 4.75C15 5.16421 14.6642 5.5 14.25 5.5H12.75V6.03971C14.1207 6.18571 15.3732 6.72736 16.3911 7.54824L16.7197 7.21967C17.0126 6.92678 17.4874 6.92678 17.7803 7.21967C18.0732 7.51256 18.0732 7.98744 17.7803 8.28033L17.4518 8.6089C18.4202 9.80976 19 11.3372 19 13C19 16.866 15.866 20 12 20C8.13401 20 5 16.866 5 13C5 9.38738 7.73668 6.41394 11.25 6.03971V5.5H9.75C9.33579 5.5 9 5.16421 9 4.75ZM12 7.5C8.96243 7.5 6.5 9.96243 6.5 13C6.5 16.0376 8.96243 18.5 12 18.5C15.0376 18.5 17.5 16.0376 17.5 13C17.5 9.96243 15.0376 7.5 12 7.5ZM12 9C12.4142 9 12.75 9.33579 12.75 9.75V13.25C12.75 13.6642 12.4142 14 12 14C11.5858 14 11.25 13.6642 11.25 13.25V9.75C11.25 9.33579 11.5858 9 12 9Z" fill="white"/>
</svg>
