<svg width="14" height="16" viewBox="0 0 14 16" fill="none" xmlns="http://www.w3.org/2000/svg">
<path fill-rule="evenodd" clip-rule="evenodd" d="M7 1.5C4.08595 1.5 1.5 3.92863 1.5 7C1.5 7.80977 1.81929 8.68802 2.36691 9.58611C2.91103 10.4785 3.64836 11.3377 4.40533 12.0947C5.15976 12.8491 5.91709 13.4855 6.48715 13.934C6.68374 14.0886 6.85735 14.2204 7 14.3263C7.14265 14.2204 7.31626 14.0886 7.51285 13.934C8.08291 13.4855 8.84024 12.8491 9.59467 12.0947C10.3516 11.3377 11.089 10.4785 11.6331 9.58611C12.1807 8.68802 12.5 7.80977 12.5 7C12.5 3.92863 9.91405 1.5 7 1.5ZM7 15.25C6.57827 15.8702 6.57793 15.87 6.57793 15.87L6.57606 15.8687L6.57159 15.8656L6.55599 15.8549C6.54268 15.8457 6.52361 15.8325 6.49916 15.8153C6.45027 15.781 6.37984 15.7311 6.29094 15.6666C6.1132 15.5376 5.86123 15.3501 5.55972 15.1129C4.95791 14.6395 4.15274 13.9634 3.34467 13.1553C2.53914 12.3498 1.71397 11.3965 1.08622 10.367C0.461955 9.34323 0 8.19023 0 7C0 3.07137 3.28664 0 7 0C10.7134 0 14 3.07137 14 7C14 8.19023 13.538 9.34323 12.9138 10.367C12.286 11.3965 11.4609 12.3498 10.6553 13.1553C9.84726 13.9634 9.04208 14.6395 8.44028 15.1129C8.13877 15.3501 7.8868 15.5376 7.70906 15.6666C7.62016 15.7311 7.54973 15.781 7.50084 15.8153C7.47639 15.8325 7.45732 15.8457 7.44401 15.8549L7.42841 15.8656L7.42394 15.8687L7.42255 15.8696C7.42255 15.8696 7.42173 15.8702 7 15.25ZM7 15.25L7.42255 15.8696C7.16803 16.0427 6.83245 16.043 6.57793 15.87L7 15.25Z" fill="black"/>
<path fill-rule="evenodd" clip-rule="evenodd" d="M7 5.5C6.17157 5.5 5.5 6.17157 5.5 7C5.5 7.82843 6.17157 8.5 7 8.5C7.82843 8.5 8.5 7.82843 8.5 7C8.5 6.17157 7.82843 5.5 7 5.5ZM4 7C4 5.34315 5.34315 4 7 4C8.65685 4 10 5.34315 10 7C10 8.65685 8.65685 10 7 10C5.34315 10 4 8.65685 4 7Z" fill="black"/>
</svg>
