<svg width="21" height="18" viewBox="0 0 21 18" fill="none" xmlns="http://www.w3.org/2000/svg">
<path fill-rule="evenodd" clip-rule="evenodd" d="M10.2512 5.70777C9.27664 5.70777 8.48661 6.4978 8.48661 7.47235C8.48661 8.4469 9.27664 9.23693 10.2512 9.23693C11.2257 9.23693 12.0158 8.4469 12.0158 7.47235C12.0158 6.4978 11.2257 5.70777 10.2512 5.70777ZM6.97411 7.47235C6.97411 5.66247 8.44131 4.19527 10.2512 4.19527C12.0611 4.19527 13.5283 5.66247 13.5283 7.47235C13.5283 9.28223 12.0611 10.7494 10.2512 10.7494C8.44131 10.7494 6.97411 9.28223 6.97411 7.47235Z" fill="white"/>
<path fill-rule="evenodd" clip-rule="evenodd" d="M13.0572 2.20809C11.6823 1.56646 10.2325 1.39025 8.887 1.65935C7.53671 1.92941 6.2557 2.65528 5.24011 3.67087C4.94477 3.96621 4.46594 3.96621 4.17061 3.67087C3.87528 3.37554 3.87528 2.89671 4.17061 2.60137C5.37335 1.39863 6.91568 0.511166 8.59038 0.176225C10.2699 -0.159673 12.0468 0.0674542 13.6968 0.837488C15.3421 1.6053 16.5694 2.71623 17.4559 4.26279C18.3381 5.70139 18.7755 7.45684 18.6707 9.21024C18.6692 9.494 18.6426 9.90933 18.6183 10.2377C18.6054 10.4111 18.5926 10.5682 18.583 10.682L18.5714 10.8171L18.5681 10.8543L18.5668 10.8679C18.529 11.2838 18.1612 11.5904 17.7452 11.5526C17.3293 11.5148 17.0227 11.1469 17.0605 10.731L17.0616 10.7194L17.0647 10.6845L17.0759 10.5546C17.0852 10.4446 17.0976 10.2929 17.1099 10.126C17.1353 9.78318 17.1583 9.40634 17.1583 9.18612V9.16251L17.1597 9.13895C17.2511 7.67762 16.8843 6.21979 16.1613 5.04497L16.1548 5.0345L16.1488 5.02383C15.4223 3.7526 14.4332 2.85019 13.0572 2.20809Z" fill="white"/>
<path fill-rule="evenodd" clip-rule="evenodd" d="M15.6979 8.41923C16.0101 8.14175 16.4881 8.16986 16.7656 8.48203L17.8765 9.7318L19.1263 8.62089C19.4384 8.34341 19.9164 8.37153 20.1939 8.6837C20.4714 8.99586 20.4433 9.47387 20.1311 9.75135L18.3161 11.3647C18.0039 11.6422 17.5259 11.614 17.2485 11.3019L15.6351 9.48688C15.3576 9.17471 15.3858 8.69671 15.6979 8.41923Z" fill="white"/>
<path fill-rule="evenodd" clip-rule="evenodd" d="M2.63227 5.80951C2.83249 5.82129 3.01984 5.91212 3.15309 6.06203L4.76642 7.87703C5.0439 8.1892 5.01578 8.6672 4.70362 8.94468C4.39145 9.22217 3.91345 9.19405 3.63596 8.88188L2.52506 7.63211L1.27528 8.74302C0.963118 9.0205 0.485113 8.99238 0.207631 8.68021C-0.0698504 8.36805 -0.0417324 7.89004 0.270434 7.61256L2.08543 5.99923C2.23534 5.86598 2.43204 5.79773 2.63227 5.80951Z" fill="white"/>
<path fill-rule="evenodd" clip-rule="evenodd" d="M2.86872 5.96313C3.25652 6.11825 3.44514 6.55836 3.29002 6.94615C3.12131 7.36793 3.04161 7.77703 3.04161 8.17779C3.04161 8.19353 3.04112 8.20926 3.04014 8.22496C2.9488 9.68629 3.31563 11.1441 4.03859 12.3189C4.33658 12.8032 4.69394 13.2548 5.10376 13.6564C5.10767 13.6519 5.11169 13.6472 5.11583 13.6424C5.1768 13.5718 5.26411 13.4755 5.37746 13.3622C5.6037 13.1359 5.93648 12.839 6.37351 12.5429C7.24898 11.9499 8.55375 11.354 10.2512 11.354C11.8435 11.354 13.2153 11.7655 14.2463 12.2604C14.7619 12.5079 15.1989 12.7794 15.5417 13.0378C15.8704 13.2856 16.1558 13.5539 16.3254 13.8083C16.4948 14.0623 16.4948 14.3933 16.3254 14.6473C16.0323 15.0869 15.4164 15.6112 14.6508 16.0545C13.8673 16.5081 12.8505 16.922 11.6897 17.0909C10.0228 17.4196 8.26097 17.1942 6.62306 16.4345C4.95233 15.7608 3.62877 14.5389 2.75046 13.1116C1.86396 11.6711 1.42408 9.91134 1.52917 8.15365C1.53236 7.55434 1.65418 6.96322 1.8857 6.38443C2.04082 5.99663 2.48093 5.80801 2.86872 5.96313ZM6.21234 14.6888C6.21234 14.6888 6.21235 14.6888 6.21234 14.6888ZM6.29962 14.5867C6.337 14.5451 6.38617 14.4925 6.44696 14.4317C6.61775 14.2609 6.87737 14.0285 7.22179 13.7952C7.90924 13.3295 8.92363 12.8665 10.2512 12.8665C11.5831 12.8665 12.7321 13.2113 13.5918 13.6239C14.0202 13.8296 14.3702 14.049 14.629 14.2439C14.4402 14.3971 14.1948 14.5708 13.893 14.7455C13.2444 15.121 12.4032 15.4612 11.4551 15.5966C11.4412 15.5986 11.4274 15.601 11.4137 15.6037C10.0682 15.8728 8.61843 15.6966 7.2435 15.055C7.23068 15.049 7.21769 15.0434 7.20456 15.0381C6.88835 14.9116 6.58626 14.76 6.29962 14.5867Z" fill="white"/>
</svg>
