<svg width="12" height="13" viewBox="0 0 12 13" fill="none" xmlns="http://www.w3.org/2000/svg">
<path fill-rule="evenodd" clip-rule="evenodd" d="M0.21967 0.392521C0.512563 0.0996283 0.987437 0.0996283 1.28033 0.392521L6 5.11219L10.7197 0.392521C11.0126 0.0996283 11.4874 0.0996283 11.7803 0.392521C12.0732 0.685415 12.0732 1.16029 11.7803 1.45318L7.06066 6.17285L11.7803 10.8925C12.0732 11.1854 12.0732 11.6603 11.7803 11.9532C11.4874 12.2461 11.0126 12.2461 10.7197 11.9532L6 7.23351L1.28033 11.9532C0.987437 12.2461 0.512563 12.2461 0.21967 11.9532C-0.0732233 11.6603 -0.0732233 11.1854 0.21967 10.8925L4.93934 6.17285L0.21967 1.45318C-0.0732233 1.16029 -0.0732233 0.685415 0.21967 0.392521Z" fill="#232838"/>
</svg>
