<svg width="65" height="64" viewBox="0 0 65 64" fill="none" xmlns="http://www.w3.org/2000/svg">
<path d="M21.8334 34.6667C20.3606 34.6667 19.1667 35.8606 19.1667 37.3333C19.1667 38.8061 20.3606 40 21.8334 40C23.3061 40 24.5 38.8061 24.5 37.3333C24.5 35.8606 23.3061 34.6667 21.8334 34.6667Z" fill="#0F172A"/>
<path d="M40.5 37.3333C40.5 35.8606 41.6939 34.6667 43.1667 34.6667C44.6394 34.6667 45.8334 35.8606 45.8334 37.3333C45.8334 38.8061 44.6394 40 43.1667 40C41.6939 40 40.5 38.8061 40.5 37.3333Z" fill="#0F172A"/>
<path fill-rule="evenodd" clip-rule="evenodd" d="M13.8639 28.3178L15.7845 16.7944C16.3738 13.2584 19.4332 10.6667 23.018 10.6667H41.9826C45.5675 10.6667 48.6269 13.2584 49.2162 16.7944L51.1368 28.3178C52.783 29.6626 53.834 31.7086 53.834 34V43.3333C53.834 45.9107 51.7446 48 49.1673 48H48.5V51.3333C48.5 52.4379 47.6046 53.3333 46.5 53.3333C45.3955 53.3333 44.5 52.4379 44.5 51.3333V48H20.5V51.3333C20.5 52.4379 19.6046 53.3333 18.5 53.3333C17.3955 53.3333 16.5 52.4379 16.5 51.3333V48H15.8334C13.256 48 11.1667 45.9107 11.1667 43.3333V34C11.1667 31.7085 12.2177 29.6625 13.8639 28.3178ZM19.7301 17.452C19.9979 15.8447 21.3886 14.6667 23.018 14.6667H41.9826C43.6121 14.6667 45.0027 15.8447 45.2706 17.452L46.8064 26.6667H18.1943L19.7301 17.452ZM18.5 30.6667C16.6591 30.6667 15.1667 32.1591 15.1667 34V43.3333C15.1667 43.7015 15.4652 44 15.8334 44H49.1673C49.5355 44 49.834 43.7015 49.834 43.3333V34C49.834 32.1591 48.3416 30.6667 46.5006 30.6667H18.5Z" fill="#0F172A"/>
</svg>
