<svg width="24" height="24" viewBox="0 0 24 24" fill="none" xmlns="http://www.w3.org/2000/svg">
<path fill-rule="evenodd" clip-rule="evenodd" d="M11.9998 5.5C10.6191 5.5 9.49981 6.61929 9.49981 8C9.49981 9.38071 10.6191 10.5 11.9998 10.5C13.3805 10.5 14.4998 9.38071 14.4998 8C14.4998 6.61929 13.3805 5.5 11.9998 5.5ZM7.99981 8C7.99981 5.79086 9.79067 4 11.9998 4C14.2089 4 15.9998 5.79086 15.9998 8C15.9998 10.2091 14.2089 12 11.9998 12C9.79067 12 7.99981 10.2091 7.99981 8ZM12.2498 14.75C8.50376 14.75 6.8724 16.3339 6.13601 17.5775C5.99791 17.8108 6.03303 17.9954 6.15064 18.151C6.28871 18.3337 6.57307 18.5 6.94933 18.5H12.2498C12.664 18.5 12.9998 18.8358 12.9998 19.25C12.9998 19.6642 12.664 20 12.2498 20H6.94933C6.14612 20 5.40066 19.6464 4.95401 19.0555C4.48692 18.4376 4.38245 17.5949 4.84531 16.8133C5.85215 15.1129 7.97456 13.25 12.2498 13.25C12.664 13.25 12.9998 13.5858 12.9998 14C12.9998 14.4142 12.664 14.75 12.2498 14.75ZM15.2195 15.2197C15.5124 14.9268 15.9872 14.9268 16.2801 15.2197L17.4998 16.4393L18.7195 15.2197C19.0124 14.9268 19.4872 14.9268 19.7801 15.2197C20.073 15.5126 20.073 15.9874 19.7801 16.2803L18.5605 17.5L19.7801 18.7197C20.073 19.0126 20.073 19.4874 19.7801 19.7803C19.4872 20.0732 19.0124 20.0732 18.7195 19.7803L17.4998 18.5607L16.2801 19.7803C15.9872 20.0732 15.5124 20.0732 15.2195 19.7803C14.9266 19.4874 14.9266 19.0126 15.2195 18.7197L16.4391 17.5L15.2195 16.2803C14.9266 15.9874 14.9266 15.5126 15.2195 15.2197Z" fill="#CBD5E1"/>
</svg>
