<svg width="16" height="16" viewBox="0 0 16 16" fill="none" xmlns="http://www.w3.org/2000/svg">
    <path fill-rule="evenodd" clip-rule="evenodd"
        d="M8.00012 1.5C6.61941 1.5 5.50012 2.61929 5.50012 4C5.50012 5.38071 6.61941 6.5 8.00012 6.5C9.38083 6.5 10.5001 5.38071 10.5001 4C10.5001 2.61929 9.38083 1.5 8.00012 1.5ZM4.00012 4C4.00012 1.79086 5.79098 0 8.00012 0C10.2093 0 12.0001 1.79086 12.0001 4C12.0001 6.20914 10.2093 8 8.00012 8C5.79098 8 4.00012 6.20914 4.00012 4ZM3.83281 11.7162C2.91504 12.264 2.36093 12.9679 2.02255 13.6086C1.90304 13.8349 1.94076 14.0134 2.06199 14.1656C2.20313 14.3429 2.48415 14.5 2.84762 14.5H13.1526C13.5161 14.5 13.7971 14.3429 13.9382 14.1656C14.0595 14.0134 14.0972 13.8349 13.9777 13.6086C13.6393 12.9679 13.0852 12.264 12.1674 11.7162C11.2491 11.168 9.92282 10.75 8.00012 10.75C6.07742 10.75 4.75117 11.168 3.83281 11.7162ZM3.06399 10.4282C4.25291 9.71852 5.85483 9.25 8.00012 9.25C10.1454 9.25 11.7473 9.71852 12.9362 10.4282C14.1258 11.1382 14.858 12.0635 15.3041 12.9081C15.7178 13.6916 15.5824 14.5089 15.1116 15.1001C14.6608 15.6662 13.9311 16 13.1526 16H2.84762C2.06917 16 1.33943 15.6662 0.888595 15.1001C0.417854 14.5089 0.282407 13.6916 0.696163 12.9081C1.14221 12.0635 1.87449 11.1382 3.06399 10.4282Z"
        fill="#0F172A" />
</svg>
