<svg width="32" height="32" viewBox="0 0 32 32" fill="none" xmlns="http://www.w3.org/2000/svg">
<path fill-rule="evenodd" clip-rule="evenodd" d="M16.1998 11.5139C14.9112 11.5139 13.8665 12.5586 13.8665 13.8472C13.8665 15.1359 14.9112 16.1806 16.1998 16.1806C17.4885 16.1806 18.5332 15.1359 18.5332 13.8472C18.5332 12.5586 17.4885 11.5139 16.1998 11.5139ZM11.8665 13.8472C11.8665 11.454 13.8066 9.51389 16.1998 9.51389C18.5931 9.51389 20.5332 11.454 20.5332 13.8472C20.5332 16.2405 18.5931 18.1806 16.1998 18.1806C13.8066 18.1806 11.8665 16.2405 11.8665 13.8472Z" fill="#64748B"/>
<path fill-rule="evenodd" clip-rule="evenodd" d="M19.9103 6.88621C18.0922 6.03777 16.1752 5.80477 14.396 6.16061C12.6104 6.51772 10.9166 7.47754 9.57362 8.82047C9.1831 9.211 8.54993 9.211 8.15941 8.82047C7.76888 8.42995 7.76888 7.79678 8.15941 7.40626C9.74981 5.81586 11.7892 4.64235 14.0037 4.19945C16.2245 3.75529 18.5742 4.05562 20.7561 5.07385C22.9317 6.08913 24.5546 7.55814 25.7267 9.60318C26.8932 11.5055 27.4717 13.8267 27.3331 16.1453C27.3312 16.5205 27.2959 17.0697 27.2638 17.5039C27.2468 17.7332 27.2298 17.941 27.2171 18.0913L27.2017 18.2701L27.1974 18.3193L27.1957 18.3372C27.1457 18.8872 26.6593 19.2926 26.1093 19.2426C25.5593 19.1926 25.154 18.7062 25.204 18.1562L25.2053 18.1409L25.2094 18.0947L25.2242 17.9229C25.2365 17.7774 25.2529 17.5768 25.2692 17.3562C25.3028 16.9029 25.3332 16.4046 25.3332 16.1134V16.0821L25.3351 16.051C25.4559 14.1187 24.9708 12.1909 24.0149 10.6375L24.0063 10.6236L23.9983 10.6095C23.0377 8.92854 21.7297 7.73528 19.9103 6.88621Z" fill="#64748B"/>
<path fill-rule="evenodd" clip-rule="evenodd" d="M23.4022 15.0993C23.8149 14.7324 24.447 14.7696 24.8139 15.1823L26.2829 16.8349L27.9355 15.366C28.3483 14.999 28.9803 15.0362 29.3473 15.449C29.7142 15.8618 29.677 16.4939 29.2642 16.8608L26.8642 18.9941C26.4514 19.361 25.8194 19.3238 25.4524 18.9111L23.3191 16.5111C22.9522 16.0983 22.9894 15.4662 23.4022 15.0993Z" fill="#64748B"/>
<path fill-rule="evenodd" clip-rule="evenodd" d="M6.12524 11.6484C6.39 11.664 6.63772 11.7841 6.81392 11.9823L8.94726 14.3823C9.31418 14.7951 9.27699 15.4272 8.86421 15.7941C8.45143 16.161 7.81936 16.1238 7.45244 15.7111L5.98347 14.0585L4.33088 15.5274C3.9181 15.8944 3.28602 15.8572 2.91911 15.4444C2.55219 15.0316 2.58937 14.3995 3.00215 14.0326L5.40215 11.8993C5.60038 11.7231 5.86048 11.6328 6.12524 11.6484Z" fill="#64748B"/>
<path fill-rule="evenodd" clip-rule="evenodd" d="M6.43791 11.8516C6.95069 12.0567 7.20011 12.6386 6.99499 13.1514C6.7719 13.7091 6.66651 14.2501 6.66651 14.78C6.66651 14.8008 6.66587 14.8216 6.66457 14.8424C6.5438 16.7747 7.02885 18.7025 7.98484 20.2559C8.37887 20.8962 8.85142 21.4934 9.39333 22.0245C9.39849 22.0185 9.40381 22.0123 9.40929 22.006C9.48991 21.9126 9.60536 21.7853 9.75524 21.6354C10.0544 21.3363 10.4944 20.9436 11.0723 20.5521C12.23 19.7679 13.9553 18.98 16.1998 18.98C18.3054 18.98 20.1193 19.5241 21.4826 20.1785C22.1644 20.5058 22.7423 20.8648 23.1956 21.2065C23.6302 21.5342 24.0076 21.8889 24.2319 22.2253C24.4558 22.5612 24.4558 22.9988 24.2319 23.3347C23.8443 23.9161 23.0299 24.6094 22.0176 25.1955C20.9814 25.7953 19.6369 26.3426 18.1021 26.566C15.8979 27.0006 13.5681 26.7026 11.4023 25.698C9.19309 24.8072 7.44292 23.1914 6.28152 21.3041C5.1093 19.3993 4.52764 17.0723 4.6666 14.7481C4.67081 13.9556 4.8319 13.174 5.13804 12.4086C5.34315 11.8959 5.92512 11.6464 6.43791 11.8516ZM10.8592 23.3896C10.8592 23.3896 10.8592 23.3896 10.8592 23.3896V23.3896ZM10.9746 23.2546C11.0241 23.1996 11.0891 23.13 11.1695 23.0496C11.3953 22.8238 11.7386 22.5165 12.194 22.2079C13.1031 21.5922 14.4444 20.98 16.1998 20.98C17.961 20.98 19.4804 21.4359 20.6171 21.9816C21.1837 22.2535 21.6464 22.5436 21.9887 22.8013C21.7391 23.004 21.4146 23.2336 21.0155 23.4646C20.1578 23.9612 19.0455 24.411 17.7918 24.5901C17.7734 24.5927 17.7552 24.5958 17.7371 24.5995C15.9579 24.9553 14.0408 24.7223 12.2227 23.8738C12.2058 23.8659 12.1886 23.8585 12.1712 23.8516C11.7531 23.6843 11.3537 23.4838 10.9746 23.2546Z" fill="#64748B"/>
</svg>
