<svg width="77" height="70" viewBox="0 0 77 70" fill="none" xmlns="http://www.w3.org/2000/svg">
<circle cx="24.25" cy="24" r="24" fill="#00CEE0"/>
<path fill-rule="evenodd" clip-rule="evenodd" d="M44.7498 20.6667C41.0679 20.6667 38.0832 23.6514 38.0832 27.3333C38.0832 31.0152 41.0679 34 44.7498 34C48.4317 34 51.4165 31.0152 51.4165 27.3333C51.4165 23.6514 48.4317 20.6667 44.7498 20.6667ZM34.0832 27.3333C34.0832 21.4423 38.8588 16.6667 44.7498 16.6667C50.6409 16.6667 55.4165 21.4423 55.4165 27.3333C55.4165 33.2244 50.6409 38 44.7498 38C38.8588 38 34.0832 33.2244 34.0832 27.3333ZM33.637 47.9098C31.1896 49.3707 29.712 51.2477 28.8097 52.9563C28.4909 53.5598 28.5915 54.0357 28.9148 54.4417C29.2912 54.9143 30.0406 55.3333 31.0098 55.3333H58.4898C59.4591 55.3333 60.2085 54.9143 60.5848 54.4417C60.9081 54.0357 61.0087 53.5598 60.69 52.9563C59.7877 51.2477 58.31 49.3707 55.8627 47.9098C53.4137 46.448 49.877 45.3333 44.7498 45.3333C39.6226 45.3333 36.086 46.448 33.637 47.9098ZM31.5868 44.4752C34.7573 42.5827 39.0291 41.3333 44.7498 41.3333C50.4706 41.3333 54.7424 42.5827 57.9128 44.4752C61.0848 46.3686 63.0376 48.8361 64.2271 51.0884C65.3304 53.1776 64.9692 55.3571 63.7139 56.9335C62.5117 58.4432 60.5657 59.3333 58.4898 59.3333H31.0098C28.934 59.3333 26.988 58.4432 25.7858 56.9335C24.5305 55.3571 24.1693 53.1776 25.2726 51.0884C26.4621 48.8361 28.4148 46.3686 31.5868 44.4752Z" fill="#0F172A"/>
</svg>
