<svg width="63" height="56" viewBox="0 0 63 56" fill="none" xmlns="http://www.w3.org/2000/svg">
<circle cx="20.1" cy="19.2" r="19.2" fill="#FFB13C"/>
<path fill-rule="evenodd" clip-rule="evenodd" d="M36.4998 16.533C33.5543 16.533 31.1665 18.9208 31.1665 21.8663C31.1665 24.8119 33.5543 27.1997 36.4998 27.1997C39.4453 27.1997 41.8331 24.8119 41.8331 21.8663C41.8331 18.9208 39.4453 16.533 36.4998 16.533ZM27.9665 21.8663C27.9665 17.1535 31.787 13.333 36.4998 13.333C41.2126 13.333 45.0331 17.1535 45.0331 21.8663C45.0331 26.5792 41.2126 30.3997 36.4998 30.3997C31.787 30.3997 27.9665 26.5792 27.9665 21.8663ZM27.6095 38.3275C25.6516 39.4963 24.4695 40.9979 23.7476 42.3647C23.4927 42.8475 23.5732 43.2283 23.8318 43.553C24.1329 43.9311 24.7324 44.2663 25.5078 44.2663H47.4918C48.2672 44.2663 48.8667 43.9311 49.1678 43.553C49.4264 43.2283 49.5069 42.8475 49.2519 42.3647C48.5301 40.9979 47.348 39.4963 45.39 38.3275C43.4309 37.1581 40.6016 36.2663 36.4998 36.2663C32.398 36.2663 29.5687 37.1581 27.6095 38.3275ZM25.9694 35.5798C28.5057 34.0659 31.9232 33.0663 36.4998 33.0663C41.0764 33.0663 44.4938 34.0659 47.0302 35.5798C49.5678 37.0946 51.13 39.0685 52.0816 40.8704C52.9642 42.5417 52.6753 44.2854 51.671 45.5465C50.7093 46.7542 49.1525 47.4663 47.4918 47.4663H25.5078C23.8471 47.4663 22.2903 46.7542 21.3285 45.5465C20.3243 44.2854 20.0353 42.5417 20.918 40.8704C21.8696 39.0686 23.4318 37.0946 25.9694 35.5798Z" fill="#0F172A"/>
</svg>
