<svg width="25" height="24" viewBox="0 0 25 24" fill="none" xmlns="http://www.w3.org/2000/svg">
<path fill-rule="evenodd" clip-rule="evenodd" d="M4.25317 6.75C4.25317 5.23122 5.48439 4 7.00317 4H17.5032C19.022 4 20.2532 5.23122 20.2532 6.75V17.25C20.2532 18.7688 19.022 20 17.5032 20H7.00317C5.48439 20 4.25317 18.7688 4.25317 17.25V6.75ZM7.00317 5.5C6.31282 5.5 5.75317 6.05964 5.75317 6.75V17.25C5.75317 17.9404 6.31282 18.5 7.00317 18.5H17.5032C18.1935 18.5 18.7532 17.9404 18.7532 17.25V6.75C18.7532 6.05964 18.1935 5.5 17.5032 5.5H7.00317ZM9.63146 8.09859C9.86536 7.96512 10.1529 7.9673 10.3847 8.10431L15.8847 11.3543C16.1131 11.4892 16.2532 11.7348 16.2532 12C16.2532 12.2652 16.1131 12.5108 15.8847 12.6457L10.3847 15.8957C10.1529 16.0327 9.86536 16.0349 9.63146 15.9014C9.39756 15.7679 9.25317 15.5193 9.25317 15.25V8.75C9.25317 8.4807 9.39756 8.23207 9.63146 8.09859ZM10.7532 10.0643V13.9357L14.0289 12L10.7532 10.0643Z" fill="#0F172A"/>
</svg>
