<svg width="48" height="30" viewBox="0 0 48 30" fill="none" xmlns="http://www.w3.org/2000/svg">
<rect width="48" height="30" rx="4" fill="white"/>
<path d="M28.3192 10C26.1587 10 24.2279 11.1359 24.2279 13.2344C24.2279 15.6411 27.6522 15.8074 27.6522 17.0164C27.6522 17.5255 27.077 17.9812 26.0946 17.9812C24.7004 17.9812 23.6584 17.3444 23.6584 17.3444L23.2125 19.4621C23.2125 19.4621 24.4129 20 26.0066 20C28.3688 20 30.2276 18.8084 30.2276 16.6739C30.2276 14.1308 26.789 13.9695 26.789 12.8473C26.789 12.4485 27.2612 12.0116 28.2408 12.0116C29.346 12.0116 30.2478 12.4747 30.2478 12.4747L30.6841 10.4293C30.6841 10.4293 29.7029 10 28.3192 10ZM8.55232 10.1544L8.5 10.4631C8.5 10.4631 9.40895 10.6318 10.2276 10.9684C11.2817 11.3544 11.3568 11.579 11.5343 12.2769L13.4688 19.8408H16.062L20.057 10.1544H17.4697L14.9027 16.7402L13.8552 11.1577C13.7591 10.5188 13.2725 10.1544 12.6769 10.1544H8.55232ZM21.0973 10.1544L19.0677 19.8408H21.5349L23.5573 10.1544H21.0973ZM34.8575 10.1544C34.2625 10.1544 33.9473 10.4774 33.716 11.042L30.1015 19.8408H32.6888L33.1893 18.3743H36.3413L36.6457 19.8408H38.9286L36.937 10.1544H34.8575ZM35.194 12.7713L35.9608 16.4062H33.9063L35.194 12.7713Z" fill="#1434CB"/>
</svg>
