<svg width="62" height="57" viewBox="0 0 62 57" fill="none" xmlns="http://www.w3.org/2000/svg">
<circle cx="19.6696" cy="19.7234" r="19.2" fill="#FFB13C"/>
<path fill-rule="evenodd" clip-rule="evenodd" d="M19.0029 30.9231C19.0029 21.4975 26.6439 13.8564 36.0696 13.8564C45.4953 13.8564 53.1363 21.4975 53.1363 30.9231C53.1363 40.3488 45.4953 47.9898 36.0696 47.9898C26.6439 47.9898 19.0029 40.3488 19.0029 30.9231ZM36.0696 17.0564C28.4112 17.0564 22.2029 23.2648 22.2029 30.9231C22.2029 38.5815 28.4112 44.7898 36.0696 44.7898C43.7279 44.7898 49.9363 38.5815 49.9363 30.9231C49.9363 23.2648 43.7279 17.0564 36.0696 17.0564ZM30.1382 24.9917C30.7631 24.3669 31.7761 24.3669 32.401 24.9917L36.0696 28.6604L39.7382 24.9917C40.3631 24.3669 41.3761 24.3669 42.001 24.9917C42.6258 25.6166 42.6258 26.6296 42.001 27.2545L38.3323 30.9231L42.001 34.5917C42.6258 35.2166 42.6258 36.2296 42.001 36.8545C41.3761 37.4793 40.3631 37.4793 39.7382 36.8545L36.0696 33.1859L32.401 36.8545C31.7761 37.4793 30.7631 37.4793 30.1382 36.8545C29.5134 36.2296 29.5134 35.2166 30.1382 34.5917L33.8069 30.9231L30.1382 27.2545C29.5134 26.6296 29.5134 25.6166 30.1382 24.9917Z" fill="#0F172A"/>
</svg>
