<svg width="63" height="56" viewBox="0 0 63 56" fill="none" xmlns="http://www.w3.org/2000/svg">
<circle cx="20.0999" cy="19.2" r="19.2" fill="#FFB13C"/>
<path fill-rule="evenodd" clip-rule="evenodd" d="M38.8903 18.0119C37.9072 16.0492 35.1061 16.0487 34.1223 18.0111L22.8945 40.4047C22.0054 42.1779 23.2947 44.2666 25.2783 44.2666H47.7235C49.7067 44.2666 50.996 42.1788 50.1078 40.4056L38.8903 18.0119ZM31.2617 16.5768C33.4262 12.2596 39.5885 12.2608 41.7514 16.5787L52.9689 38.9724C54.923 42.8734 52.0866 47.4666 47.7235 47.4666H25.2783C20.9143 47.4666 18.078 42.8716 20.0339 38.9705L31.2617 16.5768Z" fill="#0F172A"/>
<path fill-rule="evenodd" clip-rule="evenodd" d="M36.4995 23.9999C37.6777 23.9999 38.6328 24.955 38.6328 26.1332V30.3999C38.6328 31.5781 37.6777 32.5332 36.4995 32.5332C35.3213 32.5332 34.3662 31.5781 34.3662 30.3999V26.1332C34.3662 24.955 35.3213 23.9999 36.4995 23.9999Z" fill="#0F172A"/>
<path fill-rule="evenodd" clip-rule="evenodd" d="M34.3662 38.9332C34.3662 37.755 35.3213 36.7999 36.4995 36.7999C37.6777 36.7999 38.6328 37.755 38.6328 38.9332C38.6328 40.1115 37.6777 41.0666 36.4995 41.0666C35.3213 41.0666 34.3662 40.1115 34.3662 38.9332Z" fill="#0F172A"/>
</svg>
