<svg width="25" height="25" viewBox="0 0 25 25" fill="none" xmlns="http://www.w3.org/2000/svg">
<path fill-rule="evenodd" clip-rule="evenodd" d="M11.0915 18.15C11.0915 17.5931 11.5429 17.1417 12.0998 17.1417C12.6567 17.1417 13.1081 17.5931 13.1081 18.15C13.1081 18.7069 12.6567 19.1583 12.0998 19.1583C11.5429 19.1583 11.0915 18.7069 11.0915 18.15Z" fill="#00DAB3"/>
<path fill-rule="evenodd" clip-rule="evenodd" d="M12.0998 14.6209C11.3229 14.6209 10.6067 14.871 10.0243 15.2953C9.68672 15.5412 9.21369 15.467 8.96774 15.1294C8.7218 14.7918 8.79608 14.3188 9.13365 14.0728C9.96605 13.4664 10.9922 13.1084 12.0998 13.1084C13.2074 13.1084 14.2336 13.4664 15.066 14.0728C15.4035 14.3188 15.4778 14.7918 15.2319 15.1294C14.9859 15.467 14.5129 15.5412 14.1753 15.2953C13.5929 14.871 12.8767 14.6209 12.0998 14.6209Z" fill="#00DAB3"/>
<path fill-rule="evenodd" clip-rule="evenodd" d="M12.1 10.5875C10.4929 10.5875 9.00498 11.088 7.78063 11.9415C7.43801 12.1804 6.96662 12.0963 6.72776 11.7536C6.4889 11.411 6.57302 10.9396 6.91564 10.7008C8.38552 9.67604 10.1737 9.07502 12.1 9.07502C14.0263 9.07502 15.8145 9.67604 17.2844 10.7008C17.627 10.9396 17.7111 11.411 17.4723 11.7536C17.2334 12.0963 16.762 12.1804 16.4194 11.9415C15.195 11.088 13.7071 10.5875 12.1 10.5875Z" fill="#00DAB3"/>
<path fill-rule="evenodd" clip-rule="evenodd" d="M12.0998 6.55419C9.6351 6.55419 7.35207 7.32229 5.47412 8.63221C5.13156 8.87115 4.66015 8.78715 4.42121 8.44459C4.18226 8.10203 4.26626 7.63062 4.60882 7.39168C6.73236 5.91046 9.31576 5.04169 12.0998 5.04169C14.8838 5.04169 17.4672 5.91046 19.5908 7.39168C19.9333 7.63062 20.0173 8.10203 19.7784 8.44459C19.5395 8.78715 19.0681 8.87115 18.7255 8.63221C16.8475 7.32229 14.5645 6.55419 12.0998 6.55419Z" fill="#00DAB3"/>
</svg>
